<?xml version="1.0" encoding="utf-8"?>
<!-- Generator: Adobe Illustrator 16.0.4, SVG Export Plug-In . SVG Version: 6.00 Build 0)  -->
<!DOCTYPE svg PUBLIC "-//W3C//DTD SVG 1.1//EN" "http://www.w3.org/Graphics/SVG/1.1/DTD/svg11.dtd">
<svg version="1.1" id="Layer_1" xmlns="http://www.w3.org/2000/svg" xmlns:xlink="http://www.w3.org/1999/xlink" x="0px" y="0px"
	 width="51px" height="51px" viewBox="0 0 51 51" enable-background="new 0 0 51 51" xml:space="preserve">
<g>
	<circle fill="#D3BE00" stroke="#231F20" stroke-miterlimit="10" cx="25.5" cy="25.5" r="25"/>
	<path opacity="0.1" fill="none" stroke="#FFFFFF" stroke-width="2" stroke-miterlimit="10" d="M1.12,25.5
		C1.12,12.035,12.035,1.12,25.5,1.12S49.88,12.035,49.88,25.5"/>
	<g>
		<path opacity="0.2" fill="#231F20" stroke="#231F20" stroke-miterlimit="10" d="M10.113,25.263
			c0.34,8.217,7.109,14.774,15.412,14.774c8.279,0,15.029-6.516,15.408-14.7c0.014,0.241,0.018,0.484,0.018,0.726
			c0,8.52-2.885,19.316-15.426,19.316c-12.543,0-15.43-10.8-15.43-19.32C10.095,25.79,10.103,25.528,10.113,25.263z"/>
		<path opacity="0.2" fill="#FFFFFF" stroke="#FFFFFF" stroke-miterlimit="10" d="M25.533,9.513c8.521,0,15.43,6.909,15.43,15.429
			c0,0.219-0.006,0.438-0.018,0.654c-0.414-8.149-7.16-14.634-15.412-14.634c-8.301,0-15.068,6.555-15.406,14.771
			c-0.012-0.265-0.018-0.527-0.018-0.795C10.109,16.417,17.013,9.513,25.533,9.513z"/>
		<path opacity="0.1" fill="#FFFFFF" stroke="#FFFFFF" stroke-miterlimit="10" d="M25.466,39.577c-8.521,0-15.43-6.909-15.43-15.429
			c0-0.219,0.008-0.438,0.018-0.654c0.414,8.149,7.16,14.633,15.412,14.633c8.301,0,15.068-6.555,15.408-14.771
			c0.01,0.265,0.018,0.527,0.018,0.795C40.892,32.672,33.988,39.577,25.466,39.577z"/>
	</g>
</g>
</svg>
