<?xml version="1.0" encoding="utf-8"?>
<!-- Generator: Adobe Illustrator 16.0.4, SVG Export Plug-In . SVG Version: 6.00 Build 0)  -->
<!DOCTYPE svg PUBLIC "-//W3C//DTD SVG 1.1//EN" "http://www.w3.org/Graphics/SVG/1.1/DTD/svg11.dtd">
<svg version="1.1" id="Layer_1" xmlns="http://www.w3.org/2000/svg" xmlns:xlink="http://www.w3.org/1999/xlink" x="0px" y="0px"
	 width="901.806px" height="200.854px" viewBox="0 0 901.806 200.854" enable-background="new 0 0 901.806 200.854"
	 xml:space="preserve">
<g>
	<circle fill="#009444" stroke="#FFFFFF" stroke-miterlimit="10" cx="25.655" cy="25" r="25"/>
	<path opacity="0.1" fill="none" stroke="#FFFFFF" stroke-width="2" stroke-miterlimit="10" d="M1.275,25
		c0-13.465,10.916-24.38,24.38-24.38S50.036,11.535,50.036,25"/>
	<g>
		<path opacity="0.2" fill="#231F20" stroke="#231F20" stroke-miterlimit="10" d="M10.269,24.763
			c0.339,8.217,7.11,14.775,15.411,14.775c8.28,0,15.03-6.516,15.408-14.701c0.014,0.241,0.018,0.484,0.018,0.725
			c0,8.521-2.883,19.317-15.426,19.317c-12.542,0-15.429-10.8-15.429-19.321C10.251,25.29,10.258,25.028,10.269,24.763z"/>
		<path opacity="0.2" fill="#FFFFFF" stroke="#FFFFFF" stroke-miterlimit="10" d="M25.689,9.013c8.521,0,15.429,6.909,15.429,15.429
			c0,0.219-0.007,0.438-0.018,0.654c-0.414-8.149-7.159-14.634-15.411-14.634c-8.301,0-15.068,6.555-15.408,14.771
			c-0.01-0.265-0.018-0.527-0.018-0.795C10.263,15.917,17.168,9.013,25.689,9.013z"/>
		<path opacity="0.1" fill="#FFFFFF" stroke="#FFFFFF" stroke-miterlimit="10" d="M25.622,39.077
			c-8.521,0-15.429-6.909-15.429-15.429c0-0.219,0.007-0.438,0.018-0.654c0.414,8.149,7.159,14.634,15.411,14.634
			c8.301,0,15.068-6.555,15.408-14.771c0.01,0.265,0.018,0.527,0.018,0.795C41.047,32.172,34.142,39.077,25.622,39.077z"/>
	</g>
</g>
<g>
	<circle fill="#F7941D" stroke="#FFFFFF" stroke-miterlimit="10" cx="75.655" cy="25" r="25"/>
	<path opacity="0.1" fill="none" stroke="#FFFFFF" stroke-width="2" stroke-miterlimit="10" d="M51.275,25
		c0-13.465,10.916-24.38,24.38-24.38s24.38,10.916,24.38,24.38"/>
	<g>
		<path opacity="0.2" fill="#231F20" stroke="#231F20" stroke-miterlimit="10" d="M60.269,24.763
			c0.339,8.217,7.11,14.775,15.411,14.775c8.28,0,15.03-6.516,15.408-14.701c0.014,0.241,0.018,0.484,0.018,0.725
			c0,8.521-2.883,19.317-15.426,19.317c-12.542,0-15.429-10.8-15.429-19.321C60.251,25.29,60.258,25.028,60.269,24.763z"/>
		<path opacity="0.2" fill="#FFFFFF" stroke="#FFFFFF" stroke-miterlimit="10" d="M75.689,9.013c8.521,0,15.429,6.909,15.429,15.429
			c0,0.219-0.007,0.438-0.018,0.654c-0.414-8.149-7.159-14.634-15.411-14.634c-8.301,0-15.068,6.555-15.408,14.771
			c-0.01-0.265-0.018-0.527-0.018-0.795C60.263,15.917,67.168,9.013,75.689,9.013z"/>
		<path opacity="0.1" fill="#FFFFFF" stroke="#FFFFFF" stroke-miterlimit="10" d="M75.622,39.077
			c-8.521,0-15.429-6.909-15.429-15.429c0-0.219,0.007-0.438,0.018-0.654c0.414,8.149,7.159,14.634,15.411,14.634
			c8.301,0,15.068-6.555,15.408-14.771c0.01,0.265,0.018,0.527,0.018,0.795C91.047,32.172,84.142,39.077,75.622,39.077z"/>
	</g>
</g>
<g>
	<circle fill="#39B54A" stroke="#FFFFFF" stroke-miterlimit="10" cx="125.655" cy="25" r="25"/>
	<path opacity="0.1" fill="none" stroke="#FFFFFF" stroke-width="2" stroke-miterlimit="10" d="M101.275,25
		c0-13.465,10.916-24.38,24.38-24.38s24.38,10.916,24.38,24.38"/>
	<g>
		<path opacity="0.2" fill="#231F20" stroke="#231F20" stroke-miterlimit="10" d="M110.269,24.763
			c0.339,8.217,7.11,14.775,15.411,14.775c8.28,0,15.03-6.516,15.408-14.701c0.014,0.241,0.018,0.484,0.018,0.725
			c0,8.521-2.883,19.317-15.426,19.317c-12.542,0-15.429-10.8-15.429-19.321C110.251,25.29,110.258,25.028,110.269,24.763z"/>
		<path opacity="0.2" fill="#FFFFFF" stroke="#FFFFFF" stroke-miterlimit="10" d="M125.689,9.013
			c8.521,0,15.429,6.909,15.429,15.429c0,0.219-0.007,0.438-0.018,0.654c-0.414-8.149-7.159-14.634-15.411-14.634
			c-8.301,0-15.068,6.555-15.408,14.771c-0.01-0.265-0.018-0.527-0.018-0.795C110.263,15.917,117.168,9.013,125.689,9.013z"/>
		<path opacity="0.1" fill="#FFFFFF" stroke="#FFFFFF" stroke-miterlimit="10" d="M125.622,39.077
			c-8.521,0-15.429-6.909-15.429-15.429c0-0.219,0.007-0.438,0.018-0.654c0.414,8.149,7.159,14.634,15.411,14.634
			c8.301,0,15.068-6.555,15.408-14.771c0.01,0.265,0.018,0.527,0.018,0.795C141.047,32.172,134.142,39.077,125.622,39.077z"/>
	</g>
</g>
<g>
	<circle fill="#D3BE00" stroke="#FFFFFF" stroke-miterlimit="10" cx="175.655" cy="25" r="25"/>
	<path opacity="0.1" fill="none" stroke="#FFFFFF" stroke-width="2" stroke-miterlimit="10" d="M151.275,25
		c0-13.465,10.916-24.38,24.38-24.38s24.38,10.916,24.38,24.38"/>
	<g>
		<path opacity="0.2" fill="#231F20" stroke="#231F20" stroke-miterlimit="10" d="M160.269,24.763
			c0.339,8.217,7.11,14.775,15.411,14.775c8.28,0,15.03-6.516,15.408-14.701c0.014,0.241,0.018,0.484,0.018,0.725
			c0,8.521-2.883,19.317-15.426,19.317c-12.542,0-15.429-10.8-15.429-19.321C160.251,25.29,160.258,25.028,160.269,24.763z"/>
		<path opacity="0.2" fill="#FFFFFF" stroke="#FFFFFF" stroke-miterlimit="10" d="M175.689,9.013
			c8.521,0,15.429,6.909,15.429,15.429c0,0.219-0.007,0.438-0.018,0.654c-0.414-8.149-7.159-14.634-15.411-14.634
			c-8.301,0-15.068,6.555-15.408,14.771c-0.01-0.265-0.018-0.527-0.018-0.795C160.263,15.917,167.168,9.013,175.689,9.013z"/>
		<path opacity="0.1" fill="#FFFFFF" stroke="#FFFFFF" stroke-miterlimit="10" d="M175.622,39.077
			c-8.521,0-15.429-6.909-15.429-15.429c0-0.219,0.007-0.438,0.018-0.654c0.414,8.149,7.159,14.634,15.411,14.634
			c8.301,0,15.068-6.555,15.408-14.771c0.01,0.265,0.018,0.527,0.018,0.795C191.047,32.172,184.142,39.077,175.622,39.077z"/>
	</g>
</g>
<g>
	<circle fill="#1B75BC" stroke="#FFFFFF" stroke-miterlimit="10" cx="225.655" cy="25" r="25"/>
	<path opacity="0.1" fill="none" stroke="#FFFFFF" stroke-width="2" stroke-miterlimit="10" d="M201.275,25
		c0-13.465,10.916-24.38,24.38-24.38s24.38,10.916,24.38,24.38"/>
	<g>
		<path opacity="0.2" fill="#231F20" stroke="#231F20" stroke-miterlimit="10" d="M210.269,24.763
			c0.339,8.217,7.11,14.775,15.411,14.775c8.28,0,15.03-6.516,15.408-14.701c0.014,0.241,0.018,0.484,0.018,0.725
			c0,8.521-2.883,19.317-15.426,19.317c-12.542,0-15.429-10.8-15.429-19.321C210.251,25.29,210.258,25.028,210.269,24.763z"/>
		<path opacity="0.2" fill="#FFFFFF" stroke="#FFFFFF" stroke-miterlimit="10" d="M225.689,9.013
			c8.521,0,15.429,6.909,15.429,15.429c0,0.219-0.007,0.438-0.018,0.654c-0.414-8.149-7.159-14.634-15.411-14.634
			c-8.301,0-15.069,6.555-15.408,14.771c-0.01-0.265-0.018-0.527-0.018-0.795C210.263,15.917,217.168,9.013,225.689,9.013z"/>
		<path opacity="0.1" fill="#FFFFFF" stroke="#FFFFFF" stroke-miterlimit="10" d="M225.622,39.077
			c-8.521,0-15.429-6.909-15.429-15.429c0-0.219,0.007-0.438,0.018-0.654c0.414,8.149,7.159,14.634,15.411,14.634
			c8.301,0,15.068-6.555,15.408-14.771c0.01,0.265,0.018,0.527,0.018,0.795C241.047,32.172,234.142,39.077,225.622,39.077z"/>
	</g>
</g>
<g>
	<circle fill="#1B75BC" stroke="#FFFFFF" stroke-miterlimit="10" cx="25" cy="125.234" r="25"/>
	<path opacity="0.1" fill="none" stroke="#FFFFFF" stroke-width="2" stroke-miterlimit="10" d="M0.62,125.234
		c0-13.465,10.915-24.38,24.38-24.38s24.38,10.916,24.38,24.38"/>
	<g>
		<path opacity="0.2" fill="#231F20" stroke="#231F20" stroke-miterlimit="10" d="M9.613,124.997
			c0.339,8.217,7.11,14.775,15.412,14.775c8.28,0,15.029-6.516,15.408-14.701c0.014,0.24,0.018,0.484,0.018,0.725
			c0,8.521-2.883,19.317-15.425,19.317c-12.542,0-15.429-10.8-15.429-19.321C9.596,125.524,9.603,125.262,9.613,124.997z"/>
		<path opacity="0.2" fill="#FFFFFF" stroke="#FFFFFF" stroke-miterlimit="10" d="M25.034,109.247
			c8.521,0,15.429,6.908,15.429,15.43c0,0.219-0.007,0.438-0.018,0.653c-0.414-8.149-7.16-14.634-15.412-14.634
			c-8.301,0-15.068,6.555-15.408,14.771c-0.011-0.265-0.018-0.526-0.018-0.795C9.608,116.152,16.513,109.247,25.034,109.247z"/>
		<path opacity="0.1" fill="#FFFFFF" stroke="#FFFFFF" stroke-miterlimit="10" d="M24.967,139.311
			c-8.521,0-15.429-6.908-15.429-15.43c0-0.219,0.007-0.438,0.018-0.654c0.414,8.15,7.16,14.635,15.412,14.635
			c8.301,0,15.068-6.556,15.408-14.771c0.011,0.265,0.018,0.526,0.018,0.795C40.392,132.406,33.487,139.311,24.967,139.311z"/>
	</g>
</g>
<g>
	<circle fill="#009444" stroke="#FFFFFF" stroke-miterlimit="10" cx="275.69" cy="125" r="25"/>
	<path opacity="0.1" fill="none" stroke="#FFFFFF" stroke-width="2" stroke-miterlimit="10" d="M251.311,125
		c0-13.465,10.915-24.381,24.38-24.381s24.38,10.916,24.38,24.381"/>
	<g>
		<path opacity="0.2" fill="#231F20" stroke="#231F20" stroke-miterlimit="10" d="M260.304,124.762
			c0.339,8.217,7.11,14.775,15.412,14.775c8.28,0,15.029-6.516,15.408-14.701c0.014,0.241,0.018,0.484,0.018,0.726
			c0,8.521-2.883,19.317-15.425,19.317c-12.542,0-15.429-10.801-15.429-19.321C260.286,125.29,260.293,125.028,260.304,124.762z"/>
		<path opacity="0.2" fill="#FFFFFF" stroke="#FFFFFF" stroke-miterlimit="10" d="M275.724,109.012
			c8.521,0,15.429,6.909,15.429,15.43c0,0.219-0.007,0.438-0.018,0.654c-0.414-8.149-7.16-14.634-15.412-14.634
			c-8.301,0-15.068,6.555-15.408,14.771c-0.011-0.265-0.018-0.526-0.018-0.796C260.299,115.917,267.204,109.012,275.724,109.012z"/>
		<path opacity="0.1" fill="#FFFFFF" stroke="#FFFFFF" stroke-miterlimit="10" d="M275.657,139.077
			c-8.521,0-15.429-6.908-15.429-15.429c0-0.22,0.007-0.438,0.018-0.654c0.414,8.149,7.16,14.634,15.412,14.634
			c8.301,0,15.068-6.555,15.408-14.771c0.011,0.266,0.018,0.527,0.018,0.795C291.083,132.172,284.178,139.077,275.657,139.077z"/>
	</g>
</g>
<g>
	<circle fill="#F7941D" stroke="#FFFFFF" stroke-miterlimit="10" cx="325.69" cy="125" r="25"/>
	<path opacity="0.1" fill="none" stroke="#FFFFFF" stroke-width="2" stroke-miterlimit="10" d="M301.311,125
		c0-13.465,10.915-24.381,24.38-24.381s24.38,10.916,24.38,24.381"/>
	<g>
		<path opacity="0.2" fill="#231F20" stroke="#231F20" stroke-miterlimit="10" d="M310.304,124.762
			c0.339,8.217,7.11,14.775,15.412,14.775c8.28,0,15.029-6.516,15.408-14.701c0.014,0.241,0.018,0.484,0.018,0.726
			c0,8.521-2.883,19.317-15.425,19.317c-12.542,0-15.429-10.801-15.429-19.321C310.286,125.29,310.293,125.028,310.304,124.762z"/>
		<path opacity="0.2" fill="#FFFFFF" stroke="#FFFFFF" stroke-miterlimit="10" d="M325.724,109.012
			c8.521,0,15.429,6.909,15.429,15.43c0,0.219-0.007,0.438-0.018,0.654c-0.414-8.149-7.16-14.634-15.412-14.634
			c-8.301,0-15.068,6.555-15.408,14.771c-0.011-0.265-0.018-0.526-0.018-0.796C310.299,115.917,317.204,109.012,325.724,109.012z"/>
		<path opacity="0.1" fill="#FFFFFF" stroke="#FFFFFF" stroke-miterlimit="10" d="M325.657,139.077
			c-8.521,0-15.429-6.908-15.429-15.429c0-0.22,0.007-0.438,0.018-0.654c0.414,8.149,7.16,14.634,15.412,14.634
			c8.301,0,15.068-6.555,15.408-14.771c0.011,0.266,0.018,0.527,0.018,0.795C341.083,132.172,334.178,139.077,325.657,139.077z"/>
	</g>
</g>
<g>
	<circle fill="#39B54A" stroke="#FFFFFF" stroke-miterlimit="10" cx="375.69" cy="125" r="25"/>
	<path opacity="0.1" fill="none" stroke="#FFFFFF" stroke-width="2" stroke-miterlimit="10" d="M351.311,125
		c0-13.465,10.915-24.381,24.38-24.381s24.38,10.916,24.38,24.381"/>
	<g>
		<path opacity="0.2" fill="#231F20" stroke="#231F20" stroke-miterlimit="10" d="M360.304,124.762
			c0.339,8.217,7.11,14.775,15.412,14.775c8.28,0,15.029-6.516,15.408-14.701c0.014,0.241,0.018,0.484,0.018,0.726
			c0,8.521-2.883,19.317-15.425,19.317c-12.542,0-15.429-10.801-15.429-19.321C360.286,125.29,360.293,125.028,360.304,124.762z"/>
		<path opacity="0.2" fill="#FFFFFF" stroke="#FFFFFF" stroke-miterlimit="10" d="M375.724,109.012
			c8.521,0,15.429,6.909,15.429,15.43c0,0.219-0.007,0.438-0.018,0.654c-0.414-8.149-7.16-14.634-15.412-14.634
			c-8.301,0-15.068,6.555-15.408,14.771c-0.011-0.265-0.018-0.526-0.018-0.796C360.299,115.917,367.204,109.012,375.724,109.012z"/>
		<path opacity="0.1" fill="#FFFFFF" stroke="#FFFFFF" stroke-miterlimit="10" d="M375.657,139.077
			c-8.521,0-15.429-6.908-15.429-15.429c0-0.22,0.007-0.438,0.018-0.654c0.414,8.149,7.16,14.634,15.412,14.634
			c8.301,0,15.068-6.555,15.408-14.771c0.011,0.266,0.018,0.527,0.018,0.795C391.083,132.172,384.178,139.077,375.657,139.077z"/>
	</g>
</g>
<g>
	<circle fill="#D3BE00" stroke="#FFFFFF" stroke-miterlimit="10" cx="425.69" cy="125" r="25"/>
	<path opacity="0.1" fill="none" stroke="#FFFFFF" stroke-width="2" stroke-miterlimit="10" d="M401.311,125
		c0-13.465,10.915-24.381,24.38-24.381s24.38,10.916,24.38,24.381"/>
	<g>
		<path opacity="0.2" fill="#231F20" stroke="#231F20" stroke-miterlimit="10" d="M410.304,124.762
			c0.339,8.217,7.11,14.775,15.412,14.775c8.28,0,15.029-6.516,15.408-14.701c0.014,0.241,0.018,0.484,0.018,0.726
			c0,8.521-2.883,19.317-15.425,19.317c-12.542,0-15.429-10.801-15.429-19.321C410.286,125.29,410.293,125.028,410.304,124.762z"/>
		<path opacity="0.2" fill="#FFFFFF" stroke="#FFFFFF" stroke-miterlimit="10" d="M425.724,109.012
			c8.521,0,15.429,6.909,15.429,15.43c0,0.219-0.007,0.438-0.018,0.654c-0.414-8.149-7.16-14.634-15.412-14.634
			c-8.301,0-15.068,6.555-15.408,14.771c-0.011-0.265-0.018-0.526-0.018-0.796C410.299,115.917,417.204,109.012,425.724,109.012z"/>
		<path opacity="0.1" fill="#FFFFFF" stroke="#FFFFFF" stroke-miterlimit="10" d="M425.657,139.077
			c-8.521,0-15.429-6.908-15.429-15.429c0-0.22,0.007-0.438,0.018-0.654c0.414,8.149,7.16,14.634,15.412,14.634
			c8.301,0,15.068-6.555,15.408-14.771c0.011,0.266,0.018,0.527,0.018,0.795C441.083,132.172,434.178,139.077,425.657,139.077z"/>
	</g>
</g>
<g>
	<circle fill="#1B75BC" stroke="#FFFFFF" stroke-miterlimit="10" cx="475.69" cy="125" r="25"/>
	<path opacity="0.1" fill="none" stroke="#FFFFFF" stroke-width="2" stroke-miterlimit="10" d="M451.311,125
		c0-13.465,10.915-24.381,24.38-24.381s24.381,10.916,24.381,24.381"/>
	<g>
		<path opacity="0.2" fill="#231F20" stroke="#231F20" stroke-miterlimit="10" d="M460.304,124.762
			c0.34,8.217,7.11,14.775,15.411,14.775c8.28,0,15.03-6.516,15.408-14.701c0.014,0.241,0.018,0.484,0.018,0.726
			c0,8.521-2.883,19.317-15.426,19.317c-12.542,0-15.429-10.801-15.429-19.321C460.286,125.29,460.293,125.028,460.304,124.762z"/>
		<path opacity="0.2" fill="#FFFFFF" stroke="#FFFFFF" stroke-miterlimit="10" d="M475.725,109.012
			c8.521,0,15.429,6.909,15.429,15.43c0,0.219-0.007,0.438-0.018,0.654c-0.414-8.149-7.159-14.634-15.411-14.634
			c-8.302,0-15.069,6.555-15.408,14.771c-0.011-0.265-0.018-0.526-0.018-0.796C460.299,115.917,467.203,109.012,475.725,109.012z"/>
		<path opacity="0.1" fill="#FFFFFF" stroke="#FFFFFF" stroke-miterlimit="10" d="M475.657,139.077
			c-8.521,0-15.43-6.908-15.43-15.429c0-0.22,0.008-0.438,0.019-0.654c0.413,8.149,7.159,14.634,15.411,14.634
			c8.301,0,15.068-6.555,15.407-14.771c0.011,0.266,0.019,0.527,0.019,0.795C491.083,132.172,484.178,139.077,475.657,139.077z"/>
	</g>
</g>
<g>
	<circle fill="#8B5E3C" stroke="#FFFFFF" stroke-miterlimit="10" cx="275.655" cy="25" r="25"/>
	<path opacity="0.1" fill="none" stroke="#FFFFFF" stroke-width="2" stroke-miterlimit="10" d="M251.275,25
		c0-13.465,10.916-24.38,24.38-24.38s24.38,10.916,24.38,24.38"/>
	<g>
		<path opacity="0.2" fill="#231F20" stroke="#231F20" stroke-miterlimit="10" d="M260.269,24.763
			c0.339,8.217,7.11,14.775,15.411,14.775c8.28,0,15.03-6.516,15.408-14.701c0.014,0.241,0.018,0.484,0.018,0.725
			c0,8.521-2.883,19.317-15.426,19.317c-12.542,0-15.429-10.8-15.429-19.321C260.251,25.29,260.258,25.028,260.269,24.763z"/>
		<path opacity="0.2" fill="#FFFFFF" stroke="#FFFFFF" stroke-miterlimit="10" d="M275.689,9.013
			c8.521,0,15.429,6.909,15.429,15.429c0,0.219-0.007,0.438-0.018,0.654c-0.414-8.149-7.159-14.634-15.411-14.634
			c-8.301,0-15.069,6.555-15.408,14.771c-0.01-0.265-0.018-0.527-0.018-0.795C260.263,15.917,267.168,9.013,275.689,9.013z"/>
		<path opacity="0.1" fill="#FFFFFF" stroke="#FFFFFF" stroke-miterlimit="10" d="M275.622,39.077
			c-8.521,0-15.429-6.909-15.429-15.429c0-0.219,0.007-0.438,0.018-0.654c0.414,8.149,7.159,14.634,15.411,14.634
			c8.301,0,15.068-6.555,15.408-14.771c0.01,0.265,0.018,0.527,0.018,0.795C291.047,32.172,284.142,39.077,275.622,39.077z"/>
	</g>
</g>
<g>
	<circle fill="#939598" stroke="#FFFFFF" stroke-miterlimit="10" cx="325.655" cy="25" r="25"/>
	<path opacity="0.1" fill="none" stroke="#FFFFFF" stroke-width="2" stroke-miterlimit="10" d="M301.275,25
		c0-13.465,10.916-24.38,24.38-24.38s24.38,10.916,24.38,24.38"/>
	<g>
		<path opacity="0.2" fill="#231F20" stroke="#231F20" stroke-miterlimit="10" d="M310.269,24.763
			c0.339,8.217,7.11,14.775,15.411,14.775c8.28,0,15.03-6.516,15.408-14.701c0.014,0.241,0.018,0.484,0.018,0.725
			c0,8.521-2.883,19.317-15.426,19.317c-12.542,0-15.429-10.8-15.429-19.321C310.251,25.29,310.258,25.028,310.269,24.763z"/>
		<path opacity="0.2" fill="#FFFFFF" stroke="#FFFFFF" stroke-miterlimit="10" d="M325.689,9.013
			c8.521,0,15.429,6.909,15.429,15.429c0,0.219-0.007,0.438-0.018,0.654c-0.414-8.149-7.159-14.634-15.411-14.634
			c-8.301,0-15.069,6.555-15.408,14.771c-0.01-0.265-0.018-0.527-0.018-0.795C310.263,15.917,317.168,9.013,325.689,9.013z"/>
		<path opacity="0.1" fill="#FFFFFF" stroke="#FFFFFF" stroke-miterlimit="10" d="M325.622,39.077
			c-8.521,0-15.429-6.909-15.429-15.429c0-0.219,0.007-0.438,0.018-0.654c0.414,8.149,7.159,14.634,15.411,14.634
			c8.301,0,15.068-6.555,15.408-14.771c0.01,0.265,0.018,0.527,0.018,0.795C341.047,32.172,334.142,39.077,325.622,39.077z"/>
	</g>
</g>
<g>
	<circle fill="#6D6E71" stroke="#FFFFFF" stroke-miterlimit="10" cx="375.655" cy="25" r="25"/>
	<path opacity="0.1" fill="none" stroke="#FFFFFF" stroke-width="2" stroke-miterlimit="10" d="M351.275,25
		c0-13.465,10.916-24.38,24.38-24.38s24.38,10.916,24.38,24.38"/>
	<g>
		<path opacity="0.2" fill="#231F20" stroke="#231F20" stroke-miterlimit="10" d="M360.269,24.763
			c0.339,8.217,7.11,14.775,15.411,14.775c8.28,0,15.03-6.516,15.408-14.701c0.014,0.241,0.018,0.484,0.018,0.725
			c0,8.521-2.883,19.317-15.426,19.317c-12.542,0-15.429-10.8-15.429-19.321C360.251,25.29,360.258,25.028,360.269,24.763z"/>
		<path opacity="0.2" fill="#FFFFFF" stroke="#FFFFFF" stroke-miterlimit="10" d="M375.689,9.013
			c8.521,0,15.429,6.909,15.429,15.429c0,0.219-0.007,0.438-0.018,0.654c-0.414-8.149-7.159-14.634-15.411-14.634
			c-8.301,0-15.069,6.555-15.408,14.771c-0.01-0.265-0.018-0.527-0.018-0.795C360.263,15.917,367.168,9.013,375.689,9.013z"/>
		<path opacity="0.1" fill="#FFFFFF" stroke="#FFFFFF" stroke-miterlimit="10" d="M375.622,39.077
			c-8.521,0-15.429-6.909-15.429-15.429c0-0.219,0.007-0.438,0.018-0.654c0.414,8.149,7.159,14.634,15.411,14.634
			c8.301,0,15.068-6.555,15.408-14.771c0.01,0.265,0.018,0.527,0.018,0.795C391.047,32.172,384.142,39.077,375.622,39.077z"/>
	</g>
</g>
<g>
	<circle fill="#E59CCF" stroke="#FFFFFF" stroke-miterlimit="10" cx="425.655" cy="25" r="25"/>
	<path opacity="0.1" fill="none" stroke="#FFFFFF" stroke-width="2" stroke-miterlimit="10" d="M401.275,25
		c0-13.465,10.916-24.38,24.38-24.38s24.38,10.916,24.38,24.38"/>
	<g>
		<path opacity="0.2" fill="#231F20" stroke="#231F20" stroke-miterlimit="10" d="M410.269,24.763
			c0.339,8.217,7.11,14.775,15.411,14.775c8.28,0,15.03-6.516,15.408-14.701c0.014,0.241,0.018,0.484,0.018,0.725
			c0,8.521-2.883,19.317-15.426,19.317c-12.542,0-15.429-10.8-15.429-19.321C410.251,25.29,410.258,25.028,410.269,24.763z"/>
		<path opacity="0.2" fill="#FFFFFF" stroke="#FFFFFF" stroke-miterlimit="10" d="M425.689,9.013
			c8.521,0,15.429,6.909,15.429,15.429c0,0.219-0.007,0.438-0.018,0.654c-0.414-8.149-7.159-14.634-15.411-14.634
			c-8.301,0-15.069,6.555-15.408,14.771c-0.01-0.265-0.018-0.527-0.018-0.795C410.263,15.917,417.168,9.013,425.689,9.013z"/>
		<path opacity="0.1" fill="#FFFFFF" stroke="#FFFFFF" stroke-miterlimit="10" d="M425.622,39.077
			c-8.521,0-15.429-6.909-15.429-15.429c0-0.219,0.007-0.438,0.018-0.654c0.414,8.149,7.159,14.634,15.411,14.634
			c8.301,0,15.068-6.555,15.408-14.771c0.01,0.265,0.018,0.527,0.018,0.795C441.047,32.172,434.142,39.077,425.622,39.077z"/>
	</g>
</g>
<g>
	<circle fill="#D3BE00" stroke="#FFFFFF" stroke-miterlimit="10" cx="475.655" cy="25" r="25"/>
	<path opacity="0.1" fill="none" stroke="#FFFFFF" stroke-width="2" stroke-miterlimit="10" d="M451.275,25
		c0-13.465,10.915-24.38,24.38-24.38s24.38,10.916,24.38,24.38"/>
	<g>
		<path opacity="0.2" fill="#231F20" stroke="#231F20" stroke-miterlimit="10" d="M460.269,24.763
			c0.339,8.217,7.109,14.775,15.411,14.775c8.28,0,15.029-6.516,15.408-14.701c0.014,0.241,0.018,0.484,0.018,0.725
			c0,8.521-2.884,19.317-15.426,19.317s-15.429-10.8-15.429-19.321C460.251,25.29,460.258,25.028,460.269,24.763z"/>
		<path opacity="0.2" fill="#FFFFFF" stroke="#FFFFFF" stroke-miterlimit="10" d="M475.688,9.013c8.521,0,15.43,6.909,15.43,15.429
			c0,0.219-0.007,0.438-0.018,0.654c-0.414-8.149-7.16-14.634-15.412-14.634c-8.301,0-15.068,6.555-15.407,14.771
			c-0.011-0.265-0.018-0.527-0.018-0.795C460.264,15.917,467.168,9.013,475.688,9.013z"/>
		<path opacity="0.1" fill="#FFFFFF" stroke="#FFFFFF" stroke-miterlimit="10" d="M475.622,39.077
			c-8.521,0-15.43-6.909-15.43-15.429c0-0.219,0.007-0.438,0.018-0.654c0.414,8.149,7.16,14.634,15.412,14.634
			c8.301,0,15.068-6.555,15.407-14.771c0.011,0.265,0.018,0.527,0.018,0.795C491.047,32.172,484.143,39.077,475.622,39.077z"/>
	</g>
</g>
<g>
	<circle fill="#939598" stroke="#FFFFFF" stroke-miterlimit="10" cx="525.655" cy="25" r="25"/>
	<path opacity="0.1" fill="none" stroke="#FFFFFF" stroke-width="2" stroke-miterlimit="10" d="M501.275,25
		c0-13.465,10.915-24.38,24.38-24.38s24.38,10.916,24.38,24.38"/>
	<g>
		<path opacity="0.2" fill="#231F20" stroke="#231F20" stroke-miterlimit="10" d="M510.269,24.763
			c0.339,8.217,7.109,14.775,15.411,14.775c8.28,0,15.029-6.516,15.408-14.701c0.014,0.241,0.018,0.484,0.018,0.725
			c0,8.521-2.884,19.317-15.426,19.317s-15.429-10.8-15.429-19.321C510.251,25.29,510.258,25.028,510.269,24.763z"/>
		<path opacity="0.2" fill="#FFFFFF" stroke="#FFFFFF" stroke-miterlimit="10" d="M525.688,9.013c8.521,0,15.43,6.909,15.43,15.429
			c0,0.219-0.008,0.438-0.018,0.654c-0.414-8.149-7.16-14.634-15.412-14.634c-8.301,0-15.068,6.555-15.407,14.771
			c-0.011-0.265-0.018-0.527-0.018-0.795C510.264,15.917,517.168,9.013,525.688,9.013z"/>
		<path opacity="0.1" fill="#FFFFFF" stroke="#FFFFFF" stroke-miterlimit="10" d="M525.622,39.077
			c-8.521,0-15.43-6.909-15.43-15.429c0-0.219,0.007-0.438,0.018-0.654c0.414,8.149,7.16,14.634,15.412,14.634
			c8.301,0,15.068-6.555,15.407-14.771c0.011,0.265,0.018,0.527,0.018,0.795C541.047,32.172,534.143,39.077,525.622,39.077z"/>
	</g>
</g>
<g>
	<circle fill="#8B5E3C" stroke="#FFFFFF" stroke-miterlimit="10" cx="575.655" cy="25" r="25"/>
	<path opacity="0.1" fill="none" stroke="#FFFFFF" stroke-width="2" stroke-miterlimit="10" d="M551.275,25
		c0-13.465,10.915-24.38,24.38-24.38s24.38,10.916,24.38,24.38"/>
	<g>
		<path opacity="0.2" fill="#231F20" stroke="#231F20" stroke-miterlimit="10" d="M560.269,24.763
			c0.339,8.217,7.109,14.775,15.411,14.775c8.28,0,15.029-6.516,15.408-14.701c0.014,0.241,0.018,0.484,0.018,0.725
			c0,8.521-2.884,19.317-15.426,19.317s-15.429-10.8-15.429-19.321C560.251,25.29,560.258,25.028,560.269,24.763z"/>
		<path opacity="0.2" fill="#FFFFFF" stroke="#FFFFFF" stroke-miterlimit="10" d="M575.688,9.013c8.521,0,15.43,6.909,15.43,15.429
			c0,0.219-0.008,0.438-0.018,0.654c-0.414-8.149-7.16-14.634-15.412-14.634c-8.301,0-15.068,6.555-15.407,14.771
			c-0.011-0.265-0.018-0.527-0.018-0.795C560.264,15.917,567.168,9.013,575.688,9.013z"/>
		<path opacity="0.1" fill="#FFFFFF" stroke="#FFFFFF" stroke-miterlimit="10" d="M575.622,39.077
			c-8.521,0-15.43-6.909-15.43-15.429c0-0.219,0.007-0.438,0.018-0.654c0.414,8.149,7.16,14.634,15.412,14.634
			c8.301,0,15.068-6.555,15.407-14.771c0.011,0.265,0.018,0.527,0.018,0.795C591.047,32.172,584.143,39.077,575.622,39.077z"/>
	</g>
</g>
<g>
	<circle fill="#F7941D" stroke="#FFFFFF" stroke-miterlimit="10" cx="625.655" cy="25" r="25"/>
	<path opacity="0.1" fill="none" stroke="#FFFFFF" stroke-width="2" stroke-miterlimit="10" d="M601.275,25
		c0-13.465,10.915-24.38,24.38-24.38s24.38,10.916,24.38,24.38"/>
	<g>
		<path opacity="0.2" fill="#231F20" stroke="#231F20" stroke-miterlimit="10" d="M610.269,24.763
			c0.339,8.217,7.109,14.775,15.411,14.775c8.28,0,15.029-6.516,15.408-14.701c0.014,0.241,0.018,0.484,0.018,0.725
			c0,8.521-2.884,19.317-15.426,19.317s-15.429-10.8-15.429-19.321C610.251,25.29,610.258,25.028,610.269,24.763z"/>
		<path opacity="0.2" fill="#FFFFFF" stroke="#FFFFFF" stroke-miterlimit="10" d="M625.688,9.013c8.521,0,15.43,6.909,15.43,15.429
			c0,0.219-0.008,0.438-0.018,0.654c-0.414-8.149-7.16-14.634-15.412-14.634c-8.301,0-15.068,6.555-15.407,14.771
			c-0.011-0.265-0.018-0.527-0.018-0.795C610.264,15.917,617.168,9.013,625.688,9.013z"/>
		<path opacity="0.1" fill="#FFFFFF" stroke="#FFFFFF" stroke-miterlimit="10" d="M625.622,39.077
			c-8.521,0-15.43-6.909-15.43-15.429c0-0.219,0.007-0.438,0.018-0.654c0.414,8.149,7.16,14.634,15.412,14.634
			c8.301,0,15.068-6.555,15.407-14.771c0.011,0.265,0.018,0.527,0.018,0.795C641.047,32.172,634.143,39.077,625.622,39.077z"/>
	</g>
</g>
<g>
	<circle fill="#39B54A" stroke="#FFFFFF" stroke-miterlimit="10" cx="675.655" cy="25" r="25"/>
	<path opacity="0.1" fill="none" stroke="#FFFFFF" stroke-width="2" stroke-miterlimit="10" d="M651.275,25
		c0-13.465,10.915-24.38,24.38-24.38s24.38,10.916,24.38,24.38"/>
	<g>
		<path opacity="0.2" fill="#231F20" stroke="#231F20" stroke-miterlimit="10" d="M660.269,24.763
			c0.339,8.217,7.109,14.775,15.411,14.775c8.28,0,15.029-6.516,15.408-14.701c0.014,0.241,0.018,0.484,0.018,0.725
			c0,8.521-2.884,19.317-15.426,19.317s-15.429-10.8-15.429-19.321C660.251,25.29,660.258,25.028,660.269,24.763z"/>
		<path opacity="0.2" fill="#FFFFFF" stroke="#FFFFFF" stroke-miterlimit="10" d="M675.688,9.013c8.521,0,15.43,6.909,15.43,15.429
			c0,0.219-0.008,0.438-0.018,0.654c-0.414-8.149-7.16-14.634-15.412-14.634c-8.301,0-15.068,6.555-15.407,14.771
			c-0.011-0.265-0.018-0.527-0.018-0.795C660.264,15.917,667.168,9.013,675.688,9.013z"/>
		<path opacity="0.1" fill="#FFFFFF" stroke="#FFFFFF" stroke-miterlimit="10" d="M675.622,39.077
			c-8.521,0-15.43-6.909-15.43-15.429c0-0.219,0.007-0.438,0.018-0.654c0.414,8.149,7.16,14.634,15.412,14.634
			c8.301,0,15.068-6.555,15.407-14.771c0.011,0.265,0.018,0.527,0.018,0.795C691.047,32.172,684.143,39.077,675.622,39.077z"/>
	</g>
</g>
<g>
	<circle fill="#EA3946" stroke="#FFFFFF" stroke-miterlimit="10" cx="725.655" cy="25" r="25"/>
	<path opacity="0.1" fill="none" stroke="#FFFFFF" stroke-width="2" stroke-miterlimit="10" d="M701.275,25
		c0-13.465,10.915-24.38,24.38-24.38s24.38,10.916,24.38,24.38"/>
	<g>
		<path opacity="0.2" fill="#231F20" stroke="#231F20" stroke-miterlimit="10" d="M710.269,24.763
			c0.339,8.217,7.109,14.775,15.411,14.775c8.28,0,15.029-6.516,15.408-14.701c0.014,0.241,0.018,0.484,0.018,0.725
			c0,8.521-2.884,19.317-15.426,19.317s-15.429-10.8-15.429-19.321C710.251,25.29,710.258,25.028,710.269,24.763z"/>
		<path opacity="0.2" fill="#FFFFFF" stroke="#FFFFFF" stroke-miterlimit="10" d="M725.688,9.013c8.521,0,15.43,6.909,15.43,15.429
			c0,0.219-0.008,0.438-0.018,0.654c-0.414-8.149-7.16-14.634-15.412-14.634c-8.301,0-15.068,6.555-15.407,14.771
			c-0.011-0.265-0.018-0.527-0.018-0.795C710.264,15.917,717.168,9.013,725.688,9.013z"/>
		<path opacity="0.1" fill="#FFFFFF" stroke="#FFFFFF" stroke-miterlimit="10" d="M725.622,39.077
			c-8.521,0-15.43-6.909-15.43-15.429c0-0.219,0.007-0.438,0.018-0.654c0.414,8.149,7.16,14.634,15.412,14.634
			c8.301,0,15.068-6.555,15.407-14.771c0.011,0.265,0.018,0.527,0.018,0.795C741.047,32.172,734.143,39.077,725.622,39.077z"/>
	</g>
</g>
<g>
	<circle fill="#E59CCF" stroke="#FFFFFF" stroke-miterlimit="10" cx="775.655" cy="25" r="25"/>
	<path opacity="0.1" fill="none" stroke="#FFFFFF" stroke-width="2" stroke-miterlimit="10" d="M751.275,25
		c0-13.465,10.915-24.38,24.38-24.38s24.38,10.916,24.38,24.38"/>
	<g>
		<path opacity="0.2" fill="#231F20" stroke="#231F20" stroke-miterlimit="10" d="M760.269,24.763
			c0.339,8.217,7.109,14.775,15.411,14.775c8.28,0,15.029-6.516,15.408-14.701c0.014,0.241,0.018,0.484,0.018,0.725
			c0,8.521-2.884,19.317-15.426,19.317s-15.429-10.8-15.429-19.321C760.251,25.29,760.258,25.028,760.269,24.763z"/>
		<path opacity="0.2" fill="#FFFFFF" stroke="#FFFFFF" stroke-miterlimit="10" d="M775.688,9.013c8.521,0,15.43,6.909,15.43,15.429
			c0,0.219-0.008,0.438-0.018,0.654c-0.414-8.149-7.16-14.634-15.412-14.634c-8.301,0-15.068,6.555-15.407,14.771
			c-0.011-0.265-0.018-0.527-0.018-0.795C760.264,15.917,767.168,9.013,775.688,9.013z"/>
		<path opacity="0.1" fill="#FFFFFF" stroke="#FFFFFF" stroke-miterlimit="10" d="M775.622,39.077
			c-8.521,0-15.43-6.909-15.43-15.429c0-0.219,0.007-0.438,0.018-0.654c0.414,8.149,7.16,14.634,15.412,14.634
			c8.301,0,15.068-6.555,15.407-14.771c0.011,0.265,0.018,0.527,0.018,0.795C791.047,32.172,784.143,39.077,775.622,39.077z"/>
	</g>
</g>
<g>
	<circle fill="#8B5E3C" stroke="#FFFFFF" stroke-miterlimit="10" cx="825.655" cy="25" r="25"/>
	<path opacity="0.1" fill="none" stroke="#FFFFFF" stroke-width="2" stroke-miterlimit="10" d="M801.275,25
		c0-13.465,10.915-24.38,24.38-24.38s24.38,10.916,24.38,24.38"/>
	<g>
		<path opacity="0.2" fill="#231F20" stroke="#231F20" stroke-miterlimit="10" d="M810.269,24.763
			c0.339,8.217,7.109,14.775,15.411,14.775c8.28,0,15.029-6.516,15.408-14.701c0.014,0.241,0.018,0.484,0.018,0.725
			c0,8.521-2.884,19.317-15.426,19.317s-15.429-10.8-15.429-19.321C810.251,25.29,810.258,25.028,810.269,24.763z"/>
		<path opacity="0.2" fill="#FFFFFF" stroke="#FFFFFF" stroke-miterlimit="10" d="M825.688,9.013c8.521,0,15.43,6.909,15.43,15.429
			c0,0.219-0.008,0.438-0.018,0.654c-0.414-8.149-7.16-14.634-15.412-14.634c-8.301,0-15.068,6.555-15.407,14.771
			c-0.011-0.265-0.018-0.527-0.018-0.795C810.264,15.917,817.168,9.013,825.688,9.013z"/>
		<path opacity="0.1" fill="#FFFFFF" stroke="#FFFFFF" stroke-miterlimit="10" d="M825.622,39.077
			c-8.521,0-15.43-6.909-15.43-15.429c0-0.219,0.007-0.438,0.018-0.654c0.414,8.149,7.16,14.634,15.412,14.634
			c8.301,0,15.068-6.555,15.407-14.771c0.011,0.265,0.018,0.527,0.018,0.795C841.047,32.172,834.143,39.077,825.622,39.077z"/>
	</g>
</g>
<g>
	<circle fill="#939598" stroke="#FFFFFF" stroke-miterlimit="10" cx="875.655" cy="25" r="25"/>
	<path opacity="0.1" fill="none" stroke="#FFFFFF" stroke-width="2" stroke-miterlimit="10" d="M851.275,25
		c0-13.465,10.915-24.38,24.38-24.38s24.38,10.916,24.38,24.38"/>
	<g>
		<path opacity="0.2" fill="#231F20" stroke="#231F20" stroke-miterlimit="10" d="M860.269,24.763
			c0.339,8.217,7.109,14.775,15.411,14.775c8.28,0,15.029-6.516,15.408-14.701c0.014,0.241,0.018,0.484,0.018,0.725
			c0,8.521-2.884,19.317-15.426,19.317s-15.429-10.8-15.429-19.321C860.251,25.29,860.258,25.028,860.269,24.763z"/>
		<path opacity="0.2" fill="#FFFFFF" stroke="#FFFFFF" stroke-miterlimit="10" d="M875.688,9.013c8.521,0,15.43,6.909,15.43,15.429
			c0,0.219-0.008,0.438-0.018,0.654c-0.414-8.149-7.16-14.634-15.412-14.634c-8.301,0-15.068,6.555-15.407,14.771
			c-0.011-0.265-0.018-0.527-0.018-0.795C860.264,15.917,867.168,9.013,875.688,9.013z"/>
		<path opacity="0.1" fill="#FFFFFF" stroke="#FFFFFF" stroke-miterlimit="10" d="M875.622,39.077
			c-8.521,0-15.43-6.909-15.43-15.429c0-0.219,0.007-0.438,0.018-0.654c0.414,8.149,7.16,14.634,15.412,14.634
			c8.301,0,15.068-6.555,15.407-14.771c0.011,0.265,0.018,0.527,0.018,0.795C891.047,32.172,884.143,39.077,875.622,39.077z"/>
	</g>
</g>
<g>
	<circle fill="#39B54A" stroke="#FFFFFF" stroke-miterlimit="10" cx="525.69" cy="125" r="25"/>
	<path opacity="0.1" fill="none" stroke="#FFFFFF" stroke-width="2" stroke-miterlimit="10" d="M501.311,125
		c0-13.465,10.915-24.381,24.38-24.381s24.381,10.916,24.381,24.381"/>
	<g>
		<path opacity="0.2" fill="#231F20" stroke="#231F20" stroke-miterlimit="10" d="M510.304,124.762
			c0.34,8.217,7.11,14.775,15.411,14.775c8.28,0,15.03-6.516,15.408-14.701c0.014,0.241,0.018,0.484,0.018,0.726
			c0,8.521-2.883,19.317-15.426,19.317c-12.542,0-15.429-10.801-15.429-19.321C510.286,125.29,510.293,125.028,510.304,124.762z"/>
		<path opacity="0.2" fill="#FFFFFF" stroke="#FFFFFF" stroke-miterlimit="10" d="M525.725,109.012
			c8.521,0,15.429,6.909,15.429,15.43c0,0.219-0.007,0.438-0.018,0.654c-0.414-8.149-7.159-14.634-15.411-14.634
			c-8.302,0-15.069,6.555-15.408,14.771c-0.011-0.265-0.018-0.526-0.018-0.796C510.299,115.917,517.203,109.012,525.725,109.012z"/>
		<path opacity="0.1" fill="#FFFFFF" stroke="#FFFFFF" stroke-miterlimit="10" d="M525.657,139.077
			c-8.521,0-15.43-6.908-15.43-15.429c0-0.22,0.008-0.438,0.019-0.654c0.413,8.149,7.159,14.634,15.411,14.634
			c8.301,0,15.068-6.555,15.407-14.771c0.011,0.266,0.019,0.527,0.019,0.795C541.083,132.172,534.178,139.077,525.657,139.077z"/>
	</g>
</g>
<g>
	<circle fill="#39B54A" stroke="#FFFFFF" stroke-miterlimit="10" cx="776.275" cy="125.467" r="25"/>
	<path opacity="0.1" fill="none" stroke="#FFFFFF" stroke-width="2" stroke-miterlimit="10" d="M751.895,125.467
		c0-13.465,10.915-24.38,24.381-24.38c13.465,0,24.38,10.915,24.38,24.38"/>
	<g>
		<path opacity="0.2" fill="#231F20" stroke="#231F20" stroke-miterlimit="10" d="M760.888,125.231
			c0.34,8.217,7.11,14.774,15.412,14.774c8.28,0,15.029-6.516,15.407-14.7c0.015,0.24,0.018,0.484,0.018,0.725
			c0,8.521-2.883,19.316-15.425,19.316c-12.543,0-15.43-10.799-15.43-19.32C760.87,125.757,760.878,125.496,760.888,125.231z"/>
		<path opacity="0.2" fill="#FFFFFF" stroke="#FFFFFF" stroke-miterlimit="10" d="M776.309,109.481
			c8.521,0,15.429,6.908,15.429,15.429c0,0.22-0.007,0.438-0.018,0.653c-0.413-8.148-7.159-14.633-15.411-14.633
			c-8.302,0-15.068,6.555-15.408,14.771c-0.011-0.266-0.018-0.527-0.018-0.795C760.883,116.385,767.788,109.481,776.309,109.481z"/>
		<path opacity="0.1" fill="#FFFFFF" stroke="#FFFFFF" stroke-miterlimit="10" d="M776.241,139.544
			c-8.521,0-15.429-6.908-15.429-15.429c0-0.219,0.007-0.438,0.018-0.654c0.413,8.149,7.159,14.634,15.411,14.634
			c8.302,0,15.068-6.556,15.408-14.771c0.011,0.265,0.018,0.526,0.018,0.796C791.667,132.639,784.762,139.544,776.241,139.544z"/>
	</g>
</g>
<g>
	<circle fill="#D3BE00" stroke="#FFFFFF" stroke-miterlimit="10" cx="826.275" cy="125.467" r="25"/>
	<path opacity="0.1" fill="none" stroke="#FFFFFF" stroke-width="2" stroke-miterlimit="10" d="M801.895,125.467
		c0-13.465,10.915-24.38,24.381-24.38c13.465,0,24.38,10.915,24.38,24.38"/>
	<g>
		<path opacity="0.2" fill="#231F20" stroke="#231F20" stroke-miterlimit="10" d="M810.888,125.231
			c0.34,8.217,7.11,14.774,15.412,14.774c8.28,0,15.029-6.516,15.407-14.7c0.015,0.24,0.018,0.484,0.018,0.725
			c0,8.521-2.883,19.316-15.425,19.316c-12.543,0-15.43-10.799-15.43-19.32C810.87,125.757,810.878,125.496,810.888,125.231z"/>
		<path opacity="0.2" fill="#FFFFFF" stroke="#FFFFFF" stroke-miterlimit="10" d="M826.309,109.481
			c8.521,0,15.429,6.908,15.429,15.429c0,0.22-0.007,0.438-0.018,0.653c-0.413-8.148-7.159-14.633-15.411-14.633
			c-8.302,0-15.068,6.555-15.408,14.771c-0.011-0.266-0.018-0.527-0.018-0.795C810.883,116.385,817.788,109.481,826.309,109.481z"/>
		<path opacity="0.1" fill="#FFFFFF" stroke="#FFFFFF" stroke-miterlimit="10" d="M826.241,139.544
			c-8.521,0-15.429-6.908-15.429-15.429c0-0.219,0.007-0.438,0.018-0.654c0.413,8.149,7.159,14.634,15.411,14.634
			c8.302,0,15.068-6.556,15.408-14.771c0.011,0.265,0.018,0.526,0.018,0.796C841.667,132.639,834.762,139.544,826.241,139.544z"/>
	</g>
</g>
<g>
	<circle fill="#1B75BC" stroke="#FFFFFF" stroke-miterlimit="10" cx="876.275" cy="125.467" r="25"/>
	<path opacity="0.1" fill="none" stroke="#FFFFFF" stroke-width="2" stroke-miterlimit="10" d="M851.895,125.467
		c0-13.465,10.915-24.38,24.381-24.38c13.465,0,24.38,10.915,24.38,24.38"/>
	<g>
		<path opacity="0.2" fill="#231F20" stroke="#231F20" stroke-miterlimit="10" d="M860.888,125.231
			c0.34,8.217,7.11,14.774,15.412,14.774c8.28,0,15.029-6.516,15.407-14.7c0.015,0.24,0.018,0.484,0.018,0.725
			c0,8.521-2.883,19.316-15.425,19.316c-12.543,0-15.43-10.799-15.43-19.32C860.87,125.757,860.878,125.496,860.888,125.231z"/>
		<path opacity="0.2" fill="#FFFFFF" stroke="#FFFFFF" stroke-miterlimit="10" d="M876.309,109.481
			c8.521,0,15.429,6.908,15.429,15.429c0,0.22-0.007,0.438-0.018,0.653c-0.413-8.148-7.159-14.633-15.411-14.633
			c-8.302,0-15.068,6.555-15.408,14.771c-0.011-0.266-0.018-0.527-0.018-0.795C860.883,116.385,867.788,109.481,876.309,109.481z"/>
		<path opacity="0.1" fill="#FFFFFF" stroke="#FFFFFF" stroke-miterlimit="10" d="M876.241,139.544
			c-8.521,0-15.429-6.908-15.429-15.429c0-0.219,0.007-0.438,0.018-0.654c0.413,8.149,7.159,14.634,15.411,14.634
			c8.302,0,15.068-6.556,15.408-14.771c0.011,0.265,0.018,0.526,0.018,0.796C891.667,132.639,884.762,139.544,876.241,139.544z"/>
	</g>
</g>
<g>
	<circle fill="#EA3946" stroke="#FFFFFF" stroke-miterlimit="10" cx="575.69" cy="125" r="25"/>
	<path opacity="0.1" fill="none" stroke="#FFFFFF" stroke-width="2" stroke-miterlimit="10" d="M551.311,125
		c0-13.465,10.915-24.381,24.38-24.381s24.381,10.916,24.381,24.381"/>
	<g>
		<path opacity="0.2" fill="#231F20" stroke="#231F20" stroke-miterlimit="10" d="M560.304,124.762
			c0.34,8.217,7.11,14.775,15.411,14.775c8.28,0,15.03-6.516,15.408-14.701c0.014,0.241,0.018,0.484,0.018,0.726
			c0,8.521-2.883,19.317-15.426,19.317c-12.542,0-15.429-10.801-15.429-19.321C560.286,125.29,560.293,125.028,560.304,124.762z"/>
		<path opacity="0.2" fill="#FFFFFF" stroke="#FFFFFF" stroke-miterlimit="10" d="M575.725,109.012
			c8.521,0,15.429,6.909,15.429,15.43c0,0.219-0.007,0.438-0.018,0.654c-0.414-8.149-7.159-14.634-15.411-14.634
			c-8.302,0-15.069,6.555-15.408,14.771c-0.011-0.265-0.018-0.526-0.018-0.796C560.299,115.917,567.203,109.012,575.725,109.012z"/>
		<path opacity="0.1" fill="#FFFFFF" stroke="#FFFFFF" stroke-miterlimit="10" d="M575.657,139.077
			c-8.521,0-15.43-6.908-15.43-15.429c0-0.22,0.008-0.438,0.019-0.654c0.413,8.149,7.159,14.634,15.411,14.634
			c8.301,0,15.068-6.555,15.407-14.771c0.011,0.266,0.019,0.527,0.019,0.795C591.083,132.172,584.178,139.077,575.657,139.077z"/>
	</g>
</g>
<g>
	<circle fill="#E59CCF" stroke="#FFFFFF" stroke-miterlimit="10" cx="625.69" cy="125" r="25"/>
	<path opacity="0.1" fill="none" stroke="#FFFFFF" stroke-width="2" stroke-miterlimit="10" d="M601.311,125
		c0-13.465,10.915-24.381,24.38-24.381s24.381,10.916,24.381,24.381"/>
	<g>
		<path opacity="0.2" fill="#231F20" stroke="#231F20" stroke-miterlimit="10" d="M610.304,124.762
			c0.34,8.217,7.11,14.775,15.411,14.775c8.28,0,15.03-6.516,15.408-14.701c0.014,0.241,0.018,0.484,0.018,0.726
			c0,8.521-2.883,19.317-15.426,19.317c-12.542,0-15.429-10.801-15.429-19.321C610.286,125.29,610.293,125.028,610.304,124.762z"/>
		<path opacity="0.2" fill="#FFFFFF" stroke="#FFFFFF" stroke-miterlimit="10" d="M625.725,109.012
			c8.521,0,15.429,6.909,15.429,15.43c0,0.219-0.007,0.438-0.018,0.654c-0.414-8.149-7.159-14.634-15.411-14.634
			c-8.302,0-15.069,6.555-15.408,14.771c-0.011-0.265-0.018-0.526-0.018-0.796C610.299,115.917,617.203,109.012,625.725,109.012z"/>
		<path opacity="0.1" fill="#FFFFFF" stroke="#FFFFFF" stroke-miterlimit="10" d="M625.657,139.077
			c-8.521,0-15.43-6.908-15.43-15.429c0-0.22,0.008-0.438,0.019-0.654c0.413,8.149,7.159,14.634,15.411,14.634
			c8.301,0,15.068-6.555,15.407-14.771c0.011,0.266,0.019,0.527,0.019,0.795C641.083,132.172,634.178,139.077,625.657,139.077z"/>
	</g>
</g>
<g>
	<circle fill="#8B5E3C" stroke="#FFFFFF" stroke-miterlimit="10" cx="675.69" cy="125" r="25"/>
	<path opacity="0.1" fill="none" stroke="#FFFFFF" stroke-width="2" stroke-miterlimit="10" d="M651.311,125
		c0-13.465,10.915-24.381,24.38-24.381s24.381,10.916,24.381,24.381"/>
	<g>
		<path opacity="0.2" fill="#231F20" stroke="#231F20" stroke-miterlimit="10" d="M660.304,124.762
			c0.34,8.217,7.11,14.775,15.411,14.775c8.28,0,15.03-6.516,15.408-14.701c0.014,0.241,0.018,0.484,0.018,0.726
			c0,8.521-2.883,19.317-15.426,19.317c-12.542,0-15.429-10.801-15.429-19.321C660.286,125.29,660.293,125.028,660.304,124.762z"/>
		<path opacity="0.2" fill="#FFFFFF" stroke="#FFFFFF" stroke-miterlimit="10" d="M675.725,109.012
			c8.521,0,15.429,6.909,15.429,15.43c0,0.219-0.007,0.438-0.018,0.654c-0.414-8.149-7.159-14.634-15.411-14.634
			c-8.302,0-15.069,6.555-15.408,14.771c-0.011-0.265-0.018-0.526-0.018-0.796C660.299,115.917,667.203,109.012,675.725,109.012z"/>
		<path opacity="0.1" fill="#FFFFFF" stroke="#FFFFFF" stroke-miterlimit="10" d="M675.657,139.077
			c-8.521,0-15.43-6.908-15.43-15.429c0-0.22,0.008-0.438,0.019-0.654c0.413,8.149,7.159,14.634,15.411,14.634
			c8.301,0,15.068-6.555,15.407-14.771c0.011,0.266,0.019,0.527,0.019,0.795C691.083,132.172,684.178,139.077,675.657,139.077z"/>
	</g>
</g>
<g>
	<circle fill="#939598" stroke="#FFFFFF" stroke-miterlimit="10" cx="725.69" cy="125" r="25"/>
	<path opacity="0.1" fill="none" stroke="#FFFFFF" stroke-width="2" stroke-miterlimit="10" d="M701.311,125
		c0-13.465,10.915-24.381,24.38-24.381s24.381,10.916,24.381,24.381"/>
	<g>
		<path opacity="0.2" fill="#231F20" stroke="#231F20" stroke-miterlimit="10" d="M710.304,124.762
			c0.34,8.217,7.11,14.775,15.411,14.775c8.28,0,15.03-6.516,15.408-14.701c0.014,0.241,0.018,0.484,0.018,0.726
			c0,8.521-2.883,19.317-15.426,19.317c-12.542,0-15.429-10.801-15.429-19.321C710.286,125.29,710.293,125.028,710.304,124.762z"/>
		<path opacity="0.2" fill="#FFFFFF" stroke="#FFFFFF" stroke-miterlimit="10" d="M725.725,109.012
			c8.521,0,15.429,6.909,15.429,15.43c0,0.219-0.007,0.438-0.018,0.654c-0.414-8.149-7.159-14.634-15.411-14.634
			c-8.302,0-15.069,6.555-15.408,14.771c-0.011-0.265-0.018-0.526-0.018-0.796C710.299,115.917,717.203,109.012,725.725,109.012z"/>
		<path opacity="0.1" fill="#FFFFFF" stroke="#FFFFFF" stroke-miterlimit="10" d="M725.657,139.077
			c-8.521,0-15.43-6.908-15.43-15.429c0-0.22,0.008-0.438,0.019-0.654c0.413,8.149,7.159,14.634,15.411,14.634
			c8.301,0,15.068-6.555,15.407-14.771c0.011,0.266,0.019,0.527,0.019,0.795C741.083,132.172,734.178,139.077,725.657,139.077z"/>
	</g>
</g>
<g>
	<circle fill="#009444" stroke="#FFFFFF" stroke-miterlimit="10" cx="725.035" cy="75" r="25"/>
	<path opacity="0.1" fill="none" stroke="#FFFFFF" stroke-width="2" stroke-miterlimit="10" d="M700.655,75
		c0-13.465,10.915-24.38,24.38-24.38S749.416,61.535,749.416,75"/>
	<g>
		<path opacity="0.2" fill="#231F20" stroke="#231F20" stroke-miterlimit="10" d="M709.648,74.763
			c0.34,8.217,7.11,14.775,15.412,14.775c8.28,0,15.029-6.516,15.407-14.701c0.015,0.241,0.018,0.484,0.018,0.725
			c0,8.521-2.883,19.317-15.425,19.317c-12.543,0-15.43-10.8-15.43-19.321C709.631,75.29,709.638,75.028,709.648,74.763z"/>
		<path opacity="0.2" fill="#FFFFFF" stroke="#FFFFFF" stroke-miterlimit="10" d="M725.069,59.013
			c8.521,0,15.429,6.909,15.429,15.429c0,0.219-0.007,0.438-0.018,0.654c-0.414-8.149-7.159-14.634-15.411-14.634
			c-8.302,0-15.068,6.555-15.408,14.771c-0.011-0.265-0.018-0.527-0.018-0.795C709.644,65.917,716.549,59.013,725.069,59.013z"/>
		<path opacity="0.1" fill="#FFFFFF" stroke="#FFFFFF" stroke-miterlimit="10" d="M725.002,89.077
			c-8.521,0-15.429-6.909-15.429-15.429c0-0.219,0.007-0.438,0.018-0.654c0.413,8.149,7.159,14.634,15.411,14.634
			c8.302,0,15.068-6.555,15.408-14.771c0.011,0.265,0.018,0.527,0.018,0.795C740.428,82.172,733.522,89.077,725.002,89.077z"/>
	</g>
</g>
<g>
	<circle fill="#F7941D" stroke="#FFFFFF" stroke-miterlimit="10" cx="775.035" cy="75" r="25"/>
	<path opacity="0.1" fill="none" stroke="#FFFFFF" stroke-width="2" stroke-miterlimit="10" d="M750.655,75
		c0-13.465,10.915-24.38,24.38-24.38S799.416,61.535,799.416,75"/>
	<g>
		<path opacity="0.2" fill="#231F20" stroke="#231F20" stroke-miterlimit="10" d="M759.648,74.763
			c0.34,8.217,7.11,14.775,15.412,14.775c8.28,0,15.029-6.516,15.407-14.701c0.015,0.241,0.018,0.484,0.018,0.725
			c0,8.521-2.883,19.317-15.425,19.317c-12.543,0-15.43-10.8-15.43-19.321C759.631,75.29,759.638,75.028,759.648,74.763z"/>
		<path opacity="0.2" fill="#FFFFFF" stroke="#FFFFFF" stroke-miterlimit="10" d="M775.069,59.013
			c8.521,0,15.429,6.909,15.429,15.429c0,0.219-0.007,0.438-0.018,0.654c-0.414-8.149-7.159-14.634-15.411-14.634
			c-8.302,0-15.068,6.555-15.408,14.771c-0.011-0.265-0.018-0.527-0.018-0.795C759.644,65.917,766.549,59.013,775.069,59.013z"/>
		<path opacity="0.1" fill="#FFFFFF" stroke="#FFFFFF" stroke-miterlimit="10" d="M775.002,89.077
			c-8.521,0-15.429-6.909-15.429-15.429c0-0.219,0.007-0.438,0.018-0.654c0.413,8.149,7.159,14.634,15.411,14.634
			c8.302,0,15.068-6.555,15.408-14.771c0.011,0.265,0.018,0.527,0.018,0.795C790.428,82.172,783.522,89.077,775.002,89.077z"/>
	</g>
</g>
<g>
	<circle fill="#39B54A" stroke="#FFFFFF" stroke-miterlimit="10" cx="825.035" cy="75" r="25"/>
	<path opacity="0.1" fill="none" stroke="#FFFFFF" stroke-width="2" stroke-miterlimit="10" d="M800.655,75
		c0-13.465,10.915-24.38,24.38-24.38S849.416,61.535,849.416,75"/>
	<g>
		<path opacity="0.2" fill="#231F20" stroke="#231F20" stroke-miterlimit="10" d="M809.648,74.763
			c0.34,8.217,7.11,14.775,15.412,14.775c8.28,0,15.029-6.516,15.407-14.701c0.015,0.241,0.018,0.484,0.018,0.725
			c0,8.521-2.883,19.317-15.425,19.317c-12.543,0-15.43-10.8-15.43-19.321C809.631,75.29,809.638,75.028,809.648,74.763z"/>
		<path opacity="0.2" fill="#FFFFFF" stroke="#FFFFFF" stroke-miterlimit="10" d="M825.069,59.013
			c8.521,0,15.429,6.909,15.429,15.429c0,0.219-0.007,0.438-0.018,0.654c-0.414-8.149-7.159-14.634-15.411-14.634
			c-8.302,0-15.068,6.555-15.408,14.771c-0.011-0.265-0.018-0.527-0.018-0.795C809.644,65.917,816.549,59.013,825.069,59.013z"/>
		<path opacity="0.1" fill="#FFFFFF" stroke="#FFFFFF" stroke-miterlimit="10" d="M825.002,89.077
			c-8.521,0-15.429-6.909-15.429-15.429c0-0.219,0.007-0.438,0.018-0.654c0.413,8.149,7.159,14.634,15.411,14.634
			c8.302,0,15.068-6.555,15.408-14.771c0.011,0.265,0.018,0.527,0.018,0.795C840.428,82.172,833.522,89.077,825.002,89.077z"/>
	</g>
</g>
<g>
	<circle fill="#D3BE00" stroke="#FFFFFF" stroke-miterlimit="10" cx="875.035" cy="75" r="25"/>
	<path opacity="0.1" fill="none" stroke="#FFFFFF" stroke-width="2" stroke-miterlimit="10" d="M850.655,75
		c0-13.465,10.915-24.38,24.38-24.38S899.416,61.535,899.416,75"/>
	<g>
		<path opacity="0.2" fill="#231F20" stroke="#231F20" stroke-miterlimit="10" d="M859.648,74.763
			c0.34,8.217,7.11,14.775,15.412,14.775c8.28,0,15.029-6.516,15.407-14.701c0.015,0.241,0.018,0.484,0.018,0.725
			c0,8.521-2.883,19.317-15.425,19.317c-12.543,0-15.43-10.8-15.43-19.321C859.631,75.29,859.638,75.028,859.648,74.763z"/>
		<path opacity="0.2" fill="#FFFFFF" stroke="#FFFFFF" stroke-miterlimit="10" d="M875.069,59.013
			c8.521,0,15.429,6.909,15.429,15.429c0,0.219-0.007,0.438-0.018,0.654c-0.414-8.149-7.159-14.634-15.411-14.634
			c-8.302,0-15.068,6.555-15.408,14.771c-0.011-0.265-0.018-0.527-0.018-0.795C859.644,65.917,866.549,59.013,875.069,59.013z"/>
		<path opacity="0.1" fill="#FFFFFF" stroke="#FFFFFF" stroke-miterlimit="10" d="M875.002,89.077
			c-8.521,0-15.429-6.909-15.429-15.429c0-0.219,0.007-0.438,0.018-0.654c0.413,8.149,7.159,14.634,15.411,14.634
			c8.302,0,15.068-6.555,15.408-14.771c0.011,0.265,0.018,0.527,0.018,0.795C890.428,82.172,883.522,89.077,875.002,89.077z"/>
	</g>
</g>
<g>
	<circle fill="#1B75BC" stroke="#FFFFFF" stroke-miterlimit="10" cx="425.274" cy="75" r="25"/>
	<path opacity="0.1" fill="none" stroke="#FFFFFF" stroke-width="2" stroke-miterlimit="10" d="M400.894,75
		c0-13.465,10.915-24.38,24.38-24.38c13.465,0,24.38,10.916,24.38,24.38"/>
	<g>
		<path opacity="0.2" fill="#231F20" stroke="#231F20" stroke-miterlimit="10" d="M409.887,74.763
			c0.339,8.217,7.11,14.775,15.412,14.775c8.28,0,15.029-6.516,15.408-14.701c0.014,0.241,0.018,0.484,0.018,0.725
			c0,8.521-2.883,19.317-15.425,19.317c-12.542,0-15.429-10.8-15.429-19.321C409.87,75.29,409.877,75.028,409.887,74.763z"/>
		<path opacity="0.2" fill="#FFFFFF" stroke="#FFFFFF" stroke-miterlimit="10" d="M425.308,59.013
			c8.521,0,15.429,6.909,15.429,15.429c0,0.219-0.007,0.438-0.018,0.654c-0.414-8.149-7.16-14.634-15.412-14.634
			c-8.301,0-15.068,6.555-15.408,14.771c-0.011-0.265-0.018-0.527-0.018-0.795C409.882,65.917,416.787,59.013,425.308,59.013z"/>
		<path opacity="0.1" fill="#FFFFFF" stroke="#FFFFFF" stroke-miterlimit="10" d="M425.241,89.077
			c-8.521,0-15.429-6.909-15.429-15.429c0-0.219,0.007-0.438,0.018-0.654c0.414,8.149,7.16,14.634,15.412,14.634
			c8.301,0,15.068-6.555,15.408-14.771c0.011,0.265,0.018,0.527,0.018,0.795C440.666,82.172,433.761,89.077,425.241,89.077z"/>
	</g>
</g>
<g>
	<circle fill="#8B5E3C" stroke="#FFFFFF" stroke-miterlimit="10" cx="475.274" cy="75" r="25"/>
	<path opacity="0.1" fill="none" stroke="#FFFFFF" stroke-width="2" stroke-miterlimit="10" d="M450.894,75
		c0-13.465,10.916-24.38,24.38-24.38s24.38,10.916,24.38,24.38"/>
	<g>
		<path opacity="0.2" fill="#231F20" stroke="#231F20" stroke-miterlimit="10" d="M459.888,74.763
			c0.339,8.217,7.109,14.775,15.411,14.775c8.28,0,15.029-6.516,15.408-14.701c0.014,0.241,0.018,0.484,0.018,0.725
			c0,8.521-2.884,19.317-15.426,19.317s-15.429-10.8-15.429-19.321C459.87,75.29,459.877,75.028,459.888,74.763z"/>
		<path opacity="0.2" fill="#FFFFFF" stroke="#FFFFFF" stroke-miterlimit="10" d="M475.308,59.013c8.521,0,15.43,6.909,15.43,15.429
			c0,0.219-0.008,0.438-0.019,0.654c-0.413-8.149-7.159-14.634-15.411-14.634c-8.301,0-15.068,6.555-15.408,14.771
			c-0.01-0.265-0.018-0.527-0.018-0.795C459.882,65.917,466.787,59.013,475.308,59.013z"/>
		<path opacity="0.1" fill="#FFFFFF" stroke="#FFFFFF" stroke-miterlimit="10" d="M475.24,89.077
			c-8.521,0-15.429-6.909-15.429-15.429c0-0.219,0.007-0.438,0.018-0.654c0.414,8.149,7.159,14.634,15.411,14.634
			c8.302,0,15.068-6.555,15.408-14.771c0.011,0.265,0.018,0.527,0.018,0.795C490.666,82.172,483.761,89.077,475.24,89.077z"/>
	</g>
</g>
<g>
	<circle fill="#939598" stroke="#FFFFFF" stroke-miterlimit="10" cx="525.274" cy="75" r="25"/>
	<path opacity="0.1" fill="none" stroke="#FFFFFF" stroke-width="2" stroke-miterlimit="10" d="M500.894,75
		c0-13.465,10.916-24.38,24.381-24.38s24.38,10.916,24.38,24.38"/>
	<g>
		<path opacity="0.2" fill="#231F20" stroke="#231F20" stroke-miterlimit="10" d="M509.888,74.763
			c0.339,8.217,7.109,14.775,15.411,14.775c8.28,0,15.029-6.516,15.407-14.701c0.015,0.241,0.019,0.484,0.019,0.725
			c0,8.521-2.884,19.317-15.426,19.317s-15.429-10.8-15.429-19.321C509.87,75.29,509.877,75.028,509.888,74.763z"/>
		<path opacity="0.2" fill="#FFFFFF" stroke="#FFFFFF" stroke-miterlimit="10" d="M525.308,59.013c8.521,0,15.43,6.909,15.43,15.429
			c0,0.219-0.008,0.438-0.019,0.654c-0.413-8.149-7.159-14.634-15.411-14.634c-8.301,0-15.068,6.555-15.408,14.771
			c-0.01-0.265-0.018-0.527-0.018-0.795C509.882,65.917,516.787,59.013,525.308,59.013z"/>
		<path opacity="0.1" fill="#FFFFFF" stroke="#FFFFFF" stroke-miterlimit="10" d="M525.24,89.077
			c-8.521,0-15.429-6.909-15.429-15.429c0-0.219,0.007-0.438,0.018-0.654c0.414,8.149,7.159,14.634,15.411,14.634
			c8.302,0,15.069-6.555,15.408-14.771c0.011,0.265,0.018,0.527,0.018,0.795C540.666,82.172,533.761,89.077,525.24,89.077z"/>
	</g>
</g>
<g>
	<circle fill="#6D6E71" stroke="#FFFFFF" stroke-miterlimit="10" cx="575.274" cy="75" r="25"/>
	<path opacity="0.1" fill="none" stroke="#FFFFFF" stroke-width="2" stroke-miterlimit="10" d="M550.894,75
		c0-13.465,10.916-24.38,24.381-24.38s24.38,10.916,24.38,24.38"/>
	<g>
		<path opacity="0.2" fill="#231F20" stroke="#231F20" stroke-miterlimit="10" d="M559.888,74.763
			c0.339,8.217,7.109,14.775,15.411,14.775c8.28,0,15.029-6.516,15.407-14.701c0.015,0.241,0.019,0.484,0.019,0.725
			c0,8.521-2.884,19.317-15.426,19.317s-15.429-10.8-15.429-19.321C559.87,75.29,559.877,75.028,559.888,74.763z"/>
		<path opacity="0.2" fill="#FFFFFF" stroke="#FFFFFF" stroke-miterlimit="10" d="M575.308,59.013c8.521,0,15.43,6.909,15.43,15.429
			c0,0.219-0.008,0.438-0.019,0.654c-0.413-8.149-7.159-14.634-15.411-14.634c-8.301,0-15.068,6.555-15.408,14.771
			c-0.01-0.265-0.018-0.527-0.018-0.795C559.882,65.917,566.787,59.013,575.308,59.013z"/>
		<path opacity="0.1" fill="#FFFFFF" stroke="#FFFFFF" stroke-miterlimit="10" d="M575.24,89.077
			c-8.521,0-15.429-6.909-15.429-15.429c0-0.219,0.007-0.438,0.018-0.654c0.414,8.149,7.159,14.634,15.411,14.634
			c8.302,0,15.069-6.555,15.408-14.771c0.011,0.265,0.018,0.527,0.018,0.795C590.666,82.172,583.761,89.077,575.24,89.077z"/>
	</g>
</g>
<g>
	<circle fill="#E59CCF" stroke="#FFFFFF" stroke-miterlimit="10" cx="625.274" cy="75" r="25"/>
	<path opacity="0.1" fill="none" stroke="#FFFFFF" stroke-width="2" stroke-miterlimit="10" d="M600.894,75
		c0-13.465,10.916-24.38,24.381-24.38s24.38,10.916,24.38,24.38"/>
	<g>
		<path opacity="0.2" fill="#231F20" stroke="#231F20" stroke-miterlimit="10" d="M609.888,74.763
			c0.339,8.217,7.109,14.775,15.411,14.775c8.28,0,15.029-6.516,15.407-14.701c0.015,0.241,0.019,0.484,0.019,0.725
			c0,8.521-2.884,19.317-15.426,19.317s-15.429-10.8-15.429-19.321C609.87,75.29,609.877,75.028,609.888,74.763z"/>
		<path opacity="0.2" fill="#FFFFFF" stroke="#FFFFFF" stroke-miterlimit="10" d="M625.308,59.013c8.521,0,15.43,6.909,15.43,15.429
			c0,0.219-0.008,0.438-0.019,0.654c-0.413-8.149-7.159-14.634-15.411-14.634c-8.301,0-15.068,6.555-15.408,14.771
			c-0.01-0.265-0.018-0.527-0.018-0.795C609.882,65.917,616.787,59.013,625.308,59.013z"/>
		<path opacity="0.1" fill="#FFFFFF" stroke="#FFFFFF" stroke-miterlimit="10" d="M625.24,89.077
			c-8.521,0-15.429-6.909-15.429-15.429c0-0.219,0.007-0.438,0.018-0.654c0.414,8.149,7.159,14.634,15.411,14.634
			c8.302,0,15.069-6.555,15.408-14.771c0.011,0.265,0.018,0.527,0.018,0.795C640.666,82.172,633.761,89.077,625.24,89.077z"/>
	</g>
</g>
<g>
	<circle fill="#D3BE00" stroke="#FFFFFF" stroke-miterlimit="10" cx="675.274" cy="75" r="25"/>
	<path opacity="0.1" fill="none" stroke="#FFFFFF" stroke-width="2" stroke-miterlimit="10" d="M650.894,75
		c0-13.465,10.916-24.38,24.381-24.38s24.38,10.916,24.38,24.38"/>
	<g>
		<path opacity="0.2" fill="#231F20" stroke="#231F20" stroke-miterlimit="10" d="M659.888,74.763
			c0.339,8.217,7.109,14.775,15.411,14.775c8.28,0,15.029-6.516,15.407-14.701c0.015,0.241,0.019,0.484,0.019,0.725
			c0,8.521-2.884,19.317-15.426,19.317s-15.429-10.8-15.429-19.321C659.87,75.29,659.877,75.028,659.888,74.763z"/>
		<path opacity="0.2" fill="#FFFFFF" stroke="#FFFFFF" stroke-miterlimit="10" d="M675.308,59.013c8.521,0,15.43,6.909,15.43,15.429
			c0,0.219-0.008,0.438-0.019,0.654c-0.413-8.149-7.159-14.634-15.411-14.634c-8.301,0-15.068,6.555-15.408,14.771
			c-0.01-0.265-0.018-0.527-0.018-0.795C659.882,65.917,666.787,59.013,675.308,59.013z"/>
		<path opacity="0.1" fill="#FFFFFF" stroke="#FFFFFF" stroke-miterlimit="10" d="M675.24,89.077
			c-8.521,0-15.429-6.909-15.429-15.429c0-0.219,0.007-0.438,0.018-0.654c0.414,8.149,7.159,14.634,15.411,14.634
			c8.302,0,15.069-6.555,15.408-14.771c0.011,0.265,0.018,0.527,0.018,0.795C690.666,82.172,683.761,89.077,675.24,89.077z"/>
	</g>
</g>
<g>
	<circle fill="#009444" stroke="#FFFFFF" stroke-miterlimit="10" cx="174.296" cy="125" r="25"/>
	<path opacity="0.1" fill="none" stroke="#FFFFFF" stroke-width="2" stroke-miterlimit="10" d="M149.917,125
		c0-13.465,10.915-24.381,24.38-24.381c13.465,0,24.38,10.916,24.38,24.381"/>
	<g>
		<path opacity="0.2" fill="#231F20" stroke="#231F20" stroke-miterlimit="10" d="M158.91,124.762
			c0.339,8.217,7.11,14.775,15.412,14.775c8.28,0,15.029-6.516,15.408-14.701c0.014,0.241,0.018,0.484,0.018,0.726
			c0,8.521-2.883,19.317-15.425,19.317c-12.542,0-15.429-10.801-15.429-19.321C158.892,125.29,158.899,125.028,158.91,124.762z"/>
		<path opacity="0.2" fill="#FFFFFF" stroke="#FFFFFF" stroke-miterlimit="10" d="M174.33,109.012
			c8.521,0,15.429,6.909,15.429,15.43c0,0.219-0.007,0.438-0.018,0.654c-0.414-8.149-7.16-14.634-15.412-14.634
			c-8.301,0-15.068,6.555-15.408,14.771c-0.011-0.265-0.018-0.526-0.018-0.796C158.905,115.917,165.81,109.012,174.33,109.012z"/>
		<path opacity="0.1" fill="#FFFFFF" stroke="#FFFFFF" stroke-miterlimit="10" d="M174.263,139.077
			c-8.521,0-15.429-6.908-15.429-15.429c0-0.22,0.007-0.438,0.018-0.654c0.414,8.149,7.16,14.634,15.412,14.634
			c8.301,0,15.068-6.555,15.408-14.771c0.011,0.266,0.018,0.527,0.018,0.795C189.688,132.172,182.784,139.077,174.263,139.077z"/>
	</g>
</g>
<g>
	<circle fill="#F7941D" stroke="#FFFFFF" stroke-miterlimit="10" cx="224.296" cy="125" r="25"/>
	<path opacity="0.1" fill="none" stroke="#FFFFFF" stroke-width="2" stroke-miterlimit="10" d="M199.917,125
		c0-13.465,10.915-24.381,24.38-24.381c13.465,0,24.38,10.916,24.38,24.381"/>
	<g>
		<path opacity="0.2" fill="#231F20" stroke="#231F20" stroke-miterlimit="10" d="M208.91,124.762
			c0.339,8.217,7.11,14.775,15.412,14.775c8.28,0,15.029-6.516,15.408-14.701c0.014,0.241,0.018,0.484,0.018,0.726
			c0,8.521-2.883,19.317-15.425,19.317c-12.542,0-15.429-10.801-15.429-19.321C208.892,125.29,208.899,125.028,208.91,124.762z"/>
		<path opacity="0.2" fill="#FFFFFF" stroke="#FFFFFF" stroke-miterlimit="10" d="M224.33,109.012
			c8.521,0,15.429,6.909,15.429,15.43c0,0.219-0.007,0.438-0.018,0.654c-0.414-8.149-7.16-14.634-15.412-14.634
			c-8.301,0-15.068,6.555-15.408,14.771c-0.011-0.265-0.018-0.526-0.018-0.796C208.905,115.917,215.81,109.012,224.33,109.012z"/>
		<path opacity="0.1" fill="#FFFFFF" stroke="#FFFFFF" stroke-miterlimit="10" d="M224.263,139.077
			c-8.521,0-15.429-6.908-15.429-15.429c0-0.22,0.007-0.438,0.018-0.654c0.414,8.149,7.16,14.634,15.412,14.634
			c8.301,0,15.068-6.555,15.408-14.771c0.011,0.266,0.018,0.527,0.018,0.795C239.688,132.172,232.784,139.077,224.263,139.077z"/>
	</g>
</g>
<g>
	<circle fill="#E59CCF" stroke="#FFFFFF" stroke-miterlimit="10" cx="74.535" cy="125" r="25"/>
	<path opacity="0.1" fill="none" stroke="#FFFFFF" stroke-width="2" stroke-miterlimit="10" d="M50.155,125
		c0-13.465,10.916-24.381,24.38-24.381s24.38,10.916,24.38,24.381"/>
	<g>
		<path opacity="0.2" fill="#231F20" stroke="#231F20" stroke-miterlimit="10" d="M59.148,124.762
			c0.339,8.217,7.11,14.775,15.411,14.775c8.28,0,15.03-6.516,15.408-14.701c0.014,0.241,0.018,0.484,0.018,0.726
			c0,8.521-2.883,19.317-15.426,19.317c-12.542,0-15.429-10.801-15.429-19.321C59.131,125.29,59.138,125.028,59.148,124.762z"/>
		<path opacity="0.2" fill="#FFFFFF" stroke="#FFFFFF" stroke-miterlimit="10" d="M74.569,109.012
			c8.521,0,15.429,6.909,15.429,15.43c0,0.219-0.007,0.438-0.018,0.654c-0.414-8.149-7.159-14.634-15.411-14.634
			c-8.301,0-15.068,6.555-15.408,14.771c-0.01-0.265-0.018-0.526-0.018-0.796C59.143,115.917,66.048,109.012,74.569,109.012z"/>
		<path opacity="0.1" fill="#FFFFFF" stroke="#FFFFFF" stroke-miterlimit="10" d="M74.501,139.077
			c-8.521,0-15.429-6.908-15.429-15.429c0-0.22,0.007-0.438,0.018-0.654c0.414,8.149,7.159,14.634,15.411,14.634
			c8.301,0,15.069-6.555,15.408-14.771c0.01,0.266,0.018,0.527,0.018,0.795C89.927,132.172,83.022,139.077,74.501,139.077z"/>
	</g>
</g>
<g>
	<circle fill="#D3BE00" stroke="#FFFFFF" stroke-miterlimit="10" cx="124.535" cy="125" r="25"/>
	<path opacity="0.1" fill="none" stroke="#FFFFFF" stroke-width="2" stroke-miterlimit="10" d="M100.155,125
		c0-13.465,10.916-24.381,24.38-24.381s24.38,10.916,24.38,24.381"/>
	<g>
		<path opacity="0.2" fill="#231F20" stroke="#231F20" stroke-miterlimit="10" d="M109.148,124.762
			c0.339,8.217,7.11,14.775,15.411,14.775c8.28,0,15.03-6.516,15.408-14.701c0.014,0.241,0.018,0.484,0.018,0.726
			c0,8.521-2.883,19.317-15.426,19.317c-12.542,0-15.429-10.801-15.429-19.321C109.131,125.29,109.138,125.028,109.148,124.762z"/>
		<path opacity="0.2" fill="#FFFFFF" stroke="#FFFFFF" stroke-miterlimit="10" d="M124.569,109.012
			c8.521,0,15.429,6.909,15.429,15.43c0,0.219-0.007,0.438-0.018,0.654c-0.414-8.149-7.159-14.634-15.411-14.634
			c-8.301,0-15.068,6.555-15.408,14.771c-0.01-0.265-0.018-0.526-0.018-0.796C109.143,115.917,116.048,109.012,124.569,109.012z"/>
		<path opacity="0.1" fill="#FFFFFF" stroke="#FFFFFF" stroke-miterlimit="10" d="M124.501,139.077
			c-8.521,0-15.429-6.908-15.429-15.429c0-0.22,0.007-0.438,0.018-0.654c0.414,8.149,7.159,14.634,15.411,14.634
			c8.301,0,15.069-6.555,15.408-14.771c0.01,0.266,0.018,0.527,0.018,0.795C139.927,132.172,133.022,139.077,124.501,139.077z"/>
	</g>
</g>
<g>
	<circle fill="#939598" stroke="#FFFFFF" stroke-miterlimit="10" cx="25.036" cy="75" r="25"/>
	<path opacity="0.1" fill="none" stroke="#FFFFFF" stroke-width="2" stroke-miterlimit="10" d="M0.655,75
		c0-13.465,10.916-24.38,24.38-24.38S49.416,61.535,49.416,75"/>
	<g>
		<path opacity="0.2" fill="#231F20" stroke="#231F20" stroke-miterlimit="10" d="M9.649,74.763
			c0.339,8.217,7.11,14.775,15.411,14.775c8.28,0,15.03-6.516,15.408-14.701c0.014,0.241,0.018,0.484,0.018,0.725
			c0,8.521-2.884,19.317-15.426,19.317S9.631,84.079,9.631,75.558C9.631,75.29,9.638,75.028,9.649,74.763z"/>
		<path opacity="0.2" fill="#FFFFFF" stroke="#FFFFFF" stroke-miterlimit="10" d="M25.069,59.013
			c8.521,0,15.429,6.909,15.429,15.429c0,0.219-0.007,0.438-0.018,0.654c-0.414-8.149-7.159-14.634-15.411-14.634
			c-8.302,0-15.069,6.555-15.408,14.771c-0.01-0.265-0.018-0.527-0.018-0.795C9.644,65.917,16.548,59.013,25.069,59.013z"/>
		<path opacity="0.1" fill="#FFFFFF" stroke="#FFFFFF" stroke-miterlimit="10" d="M25.002,89.077
			c-8.521,0-15.429-6.909-15.429-15.429c0-0.219,0.007-0.438,0.018-0.654c0.414,8.149,7.159,14.634,15.411,14.634
			c8.301,0,15.068-6.555,15.408-14.771c0.011,0.265,0.018,0.527,0.018,0.795C40.427,82.172,33.522,89.077,25.002,89.077z"/>
	</g>
</g>
<g>
	<circle fill="#8B5E3C" stroke="#FFFFFF" stroke-miterlimit="10" cx="75.036" cy="75" r="25"/>
	<path opacity="0.1" fill="none" stroke="#FFFFFF" stroke-width="2" stroke-miterlimit="10" d="M50.655,75
		c0-13.465,10.916-24.38,24.38-24.38S99.416,61.535,99.416,75"/>
	<g>
		<path opacity="0.2" fill="#231F20" stroke="#231F20" stroke-miterlimit="10" d="M59.649,74.763
			c0.339,8.217,7.11,14.775,15.411,14.775c8.28,0,15.03-6.516,15.408-14.701c0.014,0.241,0.018,0.484,0.018,0.725
			c0,8.521-2.884,19.317-15.426,19.317s-15.429-10.8-15.429-19.321C59.631,75.29,59.638,75.028,59.649,74.763z"/>
		<path opacity="0.2" fill="#FFFFFF" stroke="#FFFFFF" stroke-miterlimit="10" d="M75.069,59.013
			c8.521,0,15.429,6.909,15.429,15.429c0,0.219-0.007,0.438-0.018,0.654c-0.414-8.149-7.159-14.634-15.411-14.634
			c-8.302,0-15.069,6.555-15.408,14.771c-0.01-0.265-0.018-0.527-0.018-0.795C59.644,65.917,66.548,59.013,75.069,59.013z"/>
		<path opacity="0.1" fill="#FFFFFF" stroke="#FFFFFF" stroke-miterlimit="10" d="M75.002,89.077
			c-8.521,0-15.429-6.909-15.429-15.429c0-0.219,0.007-0.438,0.018-0.654c0.414,8.149,7.16,14.634,15.412,14.634
			c8.301,0,15.068-6.555,15.408-14.771c0.011,0.265,0.018,0.527,0.018,0.795C90.427,82.172,83.522,89.077,75.002,89.077z"/>
	</g>
</g>
<g>
	<circle fill="#F7941D" stroke="#FFFFFF" stroke-miterlimit="10" cx="125.036" cy="75" r="25"/>
	<path opacity="0.1" fill="none" stroke="#FFFFFF" stroke-width="2" stroke-miterlimit="10" d="M100.655,75
		c0-13.465,10.916-24.38,24.38-24.38s24.38,10.916,24.38,24.38"/>
	<g>
		<path opacity="0.2" fill="#231F20" stroke="#231F20" stroke-miterlimit="10" d="M109.649,74.763
			c0.339,8.217,7.11,14.775,15.411,14.775c8.28,0,15.03-6.516,15.408-14.701c0.014,0.241,0.018,0.484,0.018,0.725
			c0,8.521-2.884,19.317-15.426,19.317s-15.429-10.8-15.429-19.321C109.631,75.29,109.638,75.028,109.649,74.763z"/>
		<path opacity="0.2" fill="#FFFFFF" stroke="#FFFFFF" stroke-miterlimit="10" d="M125.069,59.013
			c8.521,0,15.429,6.909,15.429,15.429c0,0.219-0.007,0.438-0.018,0.654c-0.414-8.149-7.159-14.634-15.411-14.634
			c-8.302,0-15.069,6.555-15.408,14.771c-0.01-0.265-0.018-0.527-0.018-0.795C109.644,65.917,116.548,59.013,125.069,59.013z"/>
		<path opacity="0.1" fill="#FFFFFF" stroke="#FFFFFF" stroke-miterlimit="10" d="M125.002,89.077
			c-8.521,0-15.429-6.909-15.429-15.429c0-0.219,0.007-0.438,0.018-0.654c0.414,8.149,7.16,14.634,15.412,14.634
			c8.301,0,15.068-6.555,15.408-14.771c0.011,0.265,0.018,0.527,0.018,0.795C140.427,82.172,133.522,89.077,125.002,89.077z"/>
	</g>
</g>
<g>
	<circle fill="#39B54A" stroke="#FFFFFF" stroke-miterlimit="10" cx="175.036" cy="75" r="25"/>
	<path opacity="0.1" fill="none" stroke="#FFFFFF" stroke-width="2" stroke-miterlimit="10" d="M150.655,75
		c0-13.465,10.916-24.38,24.38-24.38s24.38,10.916,24.38,24.38"/>
	<g>
		<path opacity="0.2" fill="#231F20" stroke="#231F20" stroke-miterlimit="10" d="M159.649,74.763
			c0.339,8.217,7.11,14.775,15.411,14.775c8.28,0,15.03-6.516,15.408-14.701c0.014,0.241,0.018,0.484,0.018,0.725
			c0,8.521-2.884,19.317-15.426,19.317s-15.429-10.8-15.429-19.321C159.631,75.29,159.638,75.028,159.649,74.763z"/>
		<path opacity="0.2" fill="#FFFFFF" stroke="#FFFFFF" stroke-miterlimit="10" d="M175.069,59.013
			c8.521,0,15.429,6.909,15.429,15.429c0,0.219-0.007,0.438-0.018,0.654c-0.414-8.149-7.159-14.634-15.411-14.634
			c-8.302,0-15.069,6.555-15.408,14.771c-0.01-0.265-0.018-0.527-0.018-0.795C159.644,65.917,166.548,59.013,175.069,59.013z"/>
		<path opacity="0.1" fill="#FFFFFF" stroke="#FFFFFF" stroke-miterlimit="10" d="M175.002,89.077
			c-8.521,0-15.429-6.909-15.429-15.429c0-0.219,0.007-0.438,0.018-0.654c0.414,8.149,7.159,14.634,15.411,14.634
			c8.301,0,15.068-6.555,15.408-14.771c0.011,0.265,0.018,0.527,0.018,0.795C190.427,82.172,183.522,89.077,175.002,89.077z"/>
	</g>
</g>
<g>
	<circle fill="#EA3946" stroke="#FFFFFF" stroke-miterlimit="10" cx="225.036" cy="75" r="25"/>
	<path opacity="0.1" fill="none" stroke="#FFFFFF" stroke-width="2" stroke-miterlimit="10" d="M200.655,75
		c0-13.465,10.916-24.38,24.38-24.38s24.38,10.916,24.38,24.38"/>
	<g>
		<path opacity="0.2" fill="#231F20" stroke="#231F20" stroke-miterlimit="10" d="M209.649,74.763
			c0.339,8.217,7.11,14.775,15.411,14.775c8.28,0,15.03-6.516,15.408-14.701c0.014,0.241,0.018,0.484,0.018,0.725
			c0,8.521-2.884,19.317-15.426,19.317s-15.429-10.8-15.429-19.321C209.631,75.29,209.638,75.028,209.649,74.763z"/>
		<path opacity="0.2" fill="#FFFFFF" stroke="#FFFFFF" stroke-miterlimit="10" d="M225.069,59.013
			c8.521,0,15.429,6.909,15.429,15.429c0,0.219-0.007,0.438-0.018,0.654c-0.414-8.149-7.159-14.634-15.411-14.634
			c-8.302,0-15.069,6.555-15.408,14.771c-0.01-0.265-0.018-0.527-0.018-0.795C209.644,65.917,216.548,59.013,225.069,59.013z"/>
		<path opacity="0.1" fill="#FFFFFF" stroke="#FFFFFF" stroke-miterlimit="10" d="M225.002,89.077
			c-8.521,0-15.429-6.909-15.429-15.429c0-0.219,0.007-0.438,0.018-0.654c0.414,8.149,7.16,14.634,15.412,14.634
			c8.301,0,15.068-6.555,15.408-14.771c0.011,0.265,0.018,0.527,0.018,0.795C240.427,82.172,233.522,89.077,225.002,89.077z"/>
	</g>
</g>
<g>
	<circle fill="#E59CCF" stroke="#FFFFFF" stroke-miterlimit="10" cx="275.036" cy="75" r="25"/>
	<path opacity="0.1" fill="none" stroke="#FFFFFF" stroke-width="2" stroke-miterlimit="10" d="M250.655,75
		c0-13.465,10.916-24.38,24.38-24.38s24.38,10.916,24.38,24.38"/>
	<g>
		<path opacity="0.2" fill="#231F20" stroke="#231F20" stroke-miterlimit="10" d="M259.649,74.763
			c0.339,8.217,7.11,14.775,15.411,14.775c8.28,0,15.03-6.516,15.408-14.701c0.015,0.241,0.018,0.484,0.018,0.725
			c0,8.521-2.883,19.317-15.426,19.317c-12.542,0-15.429-10.8-15.429-19.321C259.631,75.29,259.638,75.028,259.649,74.763z"/>
		<path opacity="0.2" fill="#FFFFFF" stroke="#FFFFFF" stroke-miterlimit="10" d="M275.069,59.013
			c8.521,0,15.429,6.909,15.429,15.429c0,0.219-0.007,0.438-0.018,0.654c-0.414-8.149-7.159-14.634-15.411-14.634
			c-8.302,0-15.069,6.555-15.408,14.771c-0.01-0.265-0.018-0.527-0.018-0.795C259.644,65.917,266.548,59.013,275.069,59.013z"/>
		<path opacity="0.1" fill="#FFFFFF" stroke="#FFFFFF" stroke-miterlimit="10" d="M275.002,89.077
			c-8.521,0-15.429-6.909-15.429-15.429c0-0.219,0.007-0.438,0.018-0.654c0.414,8.149,7.159,14.634,15.411,14.634
			c8.301,0,15.068-6.555,15.408-14.771c0.011,0.265,0.018,0.527,0.018,0.795C290.427,82.172,283.522,89.077,275.002,89.077z"/>
	</g>
</g>
<g>
	<circle fill="#8B5E3C" stroke="#FFFFFF" stroke-miterlimit="10" cx="325.036" cy="75" r="25"/>
	<path opacity="0.1" fill="none" stroke="#FFFFFF" stroke-width="2" stroke-miterlimit="10" d="M300.655,75
		c0-13.465,10.916-24.38,24.38-24.38s24.38,10.916,24.38,24.38"/>
	<g>
		<path opacity="0.2" fill="#231F20" stroke="#231F20" stroke-miterlimit="10" d="M309.649,74.763
			c0.339,8.217,7.11,14.775,15.411,14.775c8.28,0,15.03-6.516,15.408-14.701c0.015,0.241,0.018,0.484,0.018,0.725
			c0,8.521-2.883,19.317-15.426,19.317c-12.542,0-15.429-10.8-15.429-19.321C309.631,75.29,309.638,75.028,309.649,74.763z"/>
		<path opacity="0.2" fill="#FFFFFF" stroke="#FFFFFF" stroke-miterlimit="10" d="M325.069,59.013
			c8.521,0,15.429,6.909,15.429,15.429c0,0.219-0.007,0.438-0.018,0.654c-0.414-8.149-7.159-14.634-15.411-14.634
			c-8.302,0-15.069,6.555-15.408,14.771c-0.01-0.265-0.018-0.527-0.018-0.795C309.644,65.917,316.548,59.013,325.069,59.013z"/>
		<path opacity="0.1" fill="#FFFFFF" stroke="#FFFFFF" stroke-miterlimit="10" d="M325.002,89.077
			c-8.521,0-15.429-6.909-15.429-15.429c0-0.219,0.007-0.438,0.018-0.654c0.414,8.149,7.159,14.634,15.411,14.634
			c8.301,0,15.068-6.555,15.408-14.771c0.011,0.265,0.018,0.527,0.018,0.795C340.427,82.172,333.522,89.077,325.002,89.077z"/>
	</g>
</g>
<g>
	<circle fill="#939598" stroke="#FFFFFF" stroke-miterlimit="10" cx="375.036" cy="75" r="25"/>
	<path opacity="0.1" fill="none" stroke="#FFFFFF" stroke-width="2" stroke-miterlimit="10" d="M350.655,75
		c0-13.465,10.916-24.38,24.38-24.38s24.38,10.916,24.38,24.38"/>
	<g>
		<path opacity="0.2" fill="#231F20" stroke="#231F20" stroke-miterlimit="10" d="M359.649,74.763
			c0.339,8.217,7.11,14.775,15.411,14.775c8.28,0,15.03-6.516,15.408-14.701c0.015,0.241,0.018,0.484,0.018,0.725
			c0,8.521-2.883,19.317-15.426,19.317c-12.542,0-15.429-10.8-15.429-19.321C359.631,75.29,359.638,75.028,359.649,74.763z"/>
		<path opacity="0.2" fill="#FFFFFF" stroke="#FFFFFF" stroke-miterlimit="10" d="M375.069,59.013
			c8.521,0,15.429,6.909,15.429,15.429c0,0.219-0.007,0.438-0.018,0.654c-0.414-8.149-7.159-14.634-15.411-14.634
			c-8.302,0-15.069,6.555-15.408,14.771c-0.01-0.265-0.018-0.527-0.018-0.795C359.644,65.917,366.548,59.013,375.069,59.013z"/>
		<path opacity="0.1" fill="#FFFFFF" stroke="#FFFFFF" stroke-miterlimit="10" d="M375.002,89.077
			c-8.521,0-15.429-6.909-15.429-15.429c0-0.219,0.007-0.438,0.018-0.654c0.414,8.149,7.159,14.634,15.411,14.634
			c8.301,0,15.068-6.555,15.408-14.771c0.011,0.265,0.018,0.527,0.018,0.795C390.427,82.172,383.522,89.077,375.002,89.077z"/>
	</g>
</g>
<g>
	<circle fill="#8B5E3C" stroke="#FFFFFF" stroke-miterlimit="10" cx="25.292" cy="175.467" r="25"/>
	<path opacity="0.1" fill="none" stroke="#FFFFFF" stroke-width="2" stroke-miterlimit="10" d="M0.912,175.467
		c0-13.465,10.916-24.38,24.38-24.38s24.38,10.915,24.38,24.38"/>
	<g>
		<path opacity="0.2" fill="#231F20" stroke="#231F20" stroke-miterlimit="10" d="M9.906,175.231
			c0.339,8.217,7.11,14.774,15.411,14.774c8.28,0,15.03-6.516,15.408-14.7c0.014,0.24,0.018,0.484,0.018,0.725
			c0,8.521-2.883,19.316-15.426,19.316c-12.542,0-15.429-10.799-15.429-19.32C9.888,175.757,9.895,175.496,9.906,175.231z"/>
		<path opacity="0.2" fill="#FFFFFF" stroke="#FFFFFF" stroke-miterlimit="10" d="M25.326,159.481
			c8.521,0,15.429,6.908,15.429,15.429c0,0.22-0.007,0.438-0.018,0.653c-0.414-8.148-7.16-14.633-15.411-14.633
			c-8.302,0-15.068,6.555-15.408,14.771c-0.01-0.266-0.018-0.527-0.018-0.795C9.9,166.385,16.805,159.481,25.326,159.481z"/>
		<path opacity="0.1" fill="#FFFFFF" stroke="#FFFFFF" stroke-miterlimit="10" d="M25.259,189.544
			c-8.521,0-15.429-6.908-15.429-15.429c0-0.219,0.007-0.438,0.018-0.654c0.414,8.149,7.159,14.634,15.411,14.634
			c8.301,0,15.068-6.556,15.408-14.771c0.011,0.265,0.018,0.526,0.018,0.796C40.685,182.639,33.779,189.544,25.259,189.544z"/>
	</g>
</g>
<g>
	<circle fill="#939598" stroke="#FFFFFF" stroke-miterlimit="10" cx="75.292" cy="175.467" r="25"/>
	<path opacity="0.1" fill="none" stroke="#FFFFFF" stroke-width="2" stroke-miterlimit="10" d="M50.912,175.467
		c0-13.465,10.916-24.38,24.38-24.38s24.38,10.915,24.38,24.38"/>
	<g>
		<path opacity="0.2" fill="#231F20" stroke="#231F20" stroke-miterlimit="10" d="M59.906,175.231
			c0.339,8.217,7.11,14.774,15.411,14.774c8.28,0,15.03-6.516,15.408-14.7c0.014,0.24,0.018,0.484,0.018,0.725
			c0,8.521-2.883,19.316-15.426,19.316c-12.542,0-15.429-10.799-15.429-19.32C59.888,175.757,59.895,175.496,59.906,175.231z"/>
		<path opacity="0.2" fill="#FFFFFF" stroke="#FFFFFF" stroke-miterlimit="10" d="M75.326,159.481
			c8.521,0,15.429,6.908,15.429,15.429c0,0.22-0.007,0.438-0.018,0.653c-0.414-8.148-7.16-14.633-15.411-14.633
			c-8.302,0-15.068,6.555-15.408,14.771c-0.011-0.266-0.018-0.527-0.018-0.795C59.9,166.385,66.805,159.481,75.326,159.481z"/>
		<path opacity="0.1" fill="#FFFFFF" stroke="#FFFFFF" stroke-miterlimit="10" d="M75.259,189.544
			c-8.521,0-15.429-6.908-15.429-15.429c0-0.219,0.007-0.438,0.018-0.654c0.414,8.149,7.16,14.634,15.412,14.634
			c8.301,0,15.068-6.556,15.408-14.771c0.011,0.265,0.018,0.526,0.018,0.796C90.685,182.639,83.779,189.544,75.259,189.544z"/>
	</g>
</g>
<g>
	<circle fill="#6D6E71" stroke="#FFFFFF" stroke-miterlimit="10" cx="125.292" cy="175.467" r="25"/>
	<path opacity="0.1" fill="none" stroke="#FFFFFF" stroke-width="2" stroke-miterlimit="10" d="M100.912,175.467
		c0-13.465,10.916-24.38,24.38-24.38s24.38,10.915,24.38,24.38"/>
	<g>
		<path opacity="0.2" fill="#231F20" stroke="#231F20" stroke-miterlimit="10" d="M109.906,175.231
			c0.339,8.217,7.11,14.774,15.411,14.774c8.28,0,15.03-6.516,15.408-14.7c0.014,0.24,0.018,0.484,0.018,0.725
			c0,8.521-2.883,19.316-15.426,19.316c-12.542,0-15.429-10.799-15.429-19.32C109.888,175.757,109.895,175.496,109.906,175.231z"/>
		<path opacity="0.2" fill="#FFFFFF" stroke="#FFFFFF" stroke-miterlimit="10" d="M125.326,159.481
			c8.521,0,15.429,6.908,15.429,15.429c0,0.22-0.007,0.438-0.018,0.653c-0.414-8.148-7.16-14.633-15.411-14.633
			c-8.302,0-15.068,6.555-15.408,14.771c-0.011-0.266-0.018-0.527-0.018-0.795C109.9,166.385,116.805,159.481,125.326,159.481z"/>
		<path opacity="0.1" fill="#FFFFFF" stroke="#FFFFFF" stroke-miterlimit="10" d="M125.259,189.544
			c-8.521,0-15.429-6.908-15.429-15.429c0-0.219,0.007-0.438,0.018-0.654c0.414,8.149,7.16,14.634,15.412,14.634
			c8.301,0,15.068-6.556,15.408-14.771c0.011,0.265,0.018,0.526,0.018,0.796C140.685,182.639,133.779,189.544,125.259,189.544z"/>
	</g>
</g>
<g>
	<circle fill="#E59CCF" stroke="#FFFFFF" stroke-miterlimit="10" cx="175.292" cy="175.467" r="25"/>
	<path opacity="0.1" fill="none" stroke="#FFFFFF" stroke-width="2" stroke-miterlimit="10" d="M150.912,175.467
		c0-13.465,10.916-24.38,24.38-24.38s24.38,10.915,24.38,24.38"/>
	<g>
		<path opacity="0.2" fill="#231F20" stroke="#231F20" stroke-miterlimit="10" d="M159.906,175.231
			c0.339,8.217,7.11,14.774,15.411,14.774c8.28,0,15.03-6.516,15.408-14.7c0.014,0.24,0.018,0.484,0.018,0.725
			c0,8.521-2.883,19.316-15.426,19.316c-12.542,0-15.429-10.799-15.429-19.32C159.888,175.757,159.895,175.496,159.906,175.231z"/>
		<path opacity="0.2" fill="#FFFFFF" stroke="#FFFFFF" stroke-miterlimit="10" d="M175.326,159.481
			c8.521,0,15.429,6.908,15.429,15.429c0,0.22-0.007,0.438-0.018,0.653c-0.414-8.148-7.16-14.633-15.411-14.633
			c-8.302,0-15.068,6.555-15.408,14.771c-0.011-0.266-0.018-0.527-0.018-0.795C159.9,166.385,166.805,159.481,175.326,159.481z"/>
		<path opacity="0.1" fill="#FFFFFF" stroke="#FFFFFF" stroke-miterlimit="10" d="M175.259,189.544
			c-8.521,0-15.429-6.908-15.429-15.429c0-0.219,0.007-0.438,0.018-0.654c0.414,8.149,7.16,14.634,15.412,14.634
			c8.301,0,15.068-6.556,15.408-14.771c0.011,0.265,0.018,0.526,0.018,0.796C190.685,182.639,183.779,189.544,175.259,189.544z"/>
	</g>
</g>
<g>
	<circle fill="#009444" stroke="#FFFFFF" stroke-miterlimit="10" cx="376.638" cy="175.854" r="25"/>
	<path opacity="0.1" fill="none" stroke="#FFFFFF" stroke-width="2" stroke-miterlimit="10" d="M352.258,175.854
		c0-13.465,10.915-24.381,24.38-24.381s24.38,10.916,24.38,24.381"/>
	<g>
		<path opacity="0.2" fill="#231F20" stroke="#231F20" stroke-miterlimit="10" d="M361.251,175.616
			c0.339,8.217,7.11,14.775,15.411,14.775c8.281,0,15.03-6.516,15.408-14.701c0.014,0.241,0.018,0.484,0.018,0.726
			c0,8.521-2.883,19.317-15.426,19.317c-12.542,0-15.429-10.801-15.429-19.32C361.233,176.143,361.24,175.881,361.251,175.616z"/>
		<path opacity="0.2" fill="#FFFFFF" stroke="#FFFFFF" stroke-miterlimit="10" d="M376.671,159.866
			c8.521,0,15.429,6.909,15.429,15.43c0,0.219-0.007,0.438-0.018,0.654c-0.414-8.149-7.16-14.634-15.412-14.634
			c-8.301,0-15.068,6.556-15.408,14.771c-0.011-0.265-0.018-0.526-0.018-0.796C361.246,166.772,368.151,159.866,376.671,159.866z"/>
		<path opacity="0.1" fill="#FFFFFF" stroke="#FFFFFF" stroke-miterlimit="10" d="M376.604,189.93
			c-8.521,0-15.429-6.908-15.429-15.429c0-0.22,0.007-0.438,0.018-0.654c0.414,8.149,7.16,14.634,15.412,14.634
			c8.301,0,15.068-6.555,15.408-14.771c0.011,0.266,0.018,0.527,0.018,0.795C392.03,183.026,385.125,189.93,376.604,189.93z"/>
	</g>
</g>
<g>
	<circle fill="#F7941D" stroke="#FFFFFF" stroke-miterlimit="10" cx="426.638" cy="175.854" r="25"/>
	<path opacity="0.1" fill="none" stroke="#FFFFFF" stroke-width="2" stroke-miterlimit="10" d="M402.258,175.854
		c0-13.465,10.915-24.381,24.38-24.381s24.38,10.916,24.38,24.381"/>
	<g>
		<path opacity="0.2" fill="#231F20" stroke="#231F20" stroke-miterlimit="10" d="M411.251,175.616
			c0.339,8.217,7.11,14.775,15.411,14.775c8.281,0,15.03-6.516,15.408-14.701c0.014,0.241,0.018,0.484,0.018,0.726
			c0,8.521-2.883,19.317-15.426,19.317c-12.542,0-15.429-10.801-15.429-19.32C411.233,176.143,411.24,175.881,411.251,175.616z"/>
		<path opacity="0.2" fill="#FFFFFF" stroke="#FFFFFF" stroke-miterlimit="10" d="M426.671,159.866
			c8.521,0,15.429,6.909,15.429,15.43c0,0.219-0.007,0.438-0.018,0.654c-0.414-8.149-7.16-14.634-15.412-14.634
			c-8.301,0-15.068,6.556-15.408,14.771c-0.011-0.265-0.018-0.526-0.018-0.796C411.246,166.772,418.151,159.866,426.671,159.866z"/>
		<path opacity="0.1" fill="#FFFFFF" stroke="#FFFFFF" stroke-miterlimit="10" d="M426.604,189.93
			c-8.521,0-15.429-6.908-15.429-15.429c0-0.22,0.007-0.438,0.018-0.654c0.414,8.149,7.16,14.634,15.412,14.634
			c8.301,0,15.068-6.555,15.408-14.771c0.011,0.266,0.018,0.527,0.018,0.795C442.03,183.026,435.125,189.93,426.604,189.93z"/>
	</g>
</g>
<g>
	<circle fill="#39B54A" stroke="#FFFFFF" stroke-miterlimit="10" cx="476.638" cy="175.854" r="25"/>
	<path opacity="0.1" fill="none" stroke="#FFFFFF" stroke-width="2" stroke-miterlimit="10" d="M452.258,175.854
		c0-13.465,10.915-24.381,24.38-24.381s24.381,10.916,24.381,24.381"/>
	<g>
		<path opacity="0.2" fill="#231F20" stroke="#231F20" stroke-miterlimit="10" d="M461.251,175.616
			c0.34,8.217,7.11,14.775,15.411,14.775c8.28,0,15.03-6.516,15.408-14.701c0.014,0.241,0.018,0.484,0.018,0.726
			c0,8.521-2.884,19.317-15.426,19.317s-15.429-10.801-15.429-19.32C461.233,176.143,461.24,175.881,461.251,175.616z"/>
		<path opacity="0.2" fill="#FFFFFF" stroke="#FFFFFF" stroke-miterlimit="10" d="M476.672,159.866
			c8.521,0,15.429,6.909,15.429,15.43c0,0.219-0.007,0.438-0.018,0.654c-0.414-8.149-7.159-14.634-15.411-14.634
			c-8.302,0-15.069,6.556-15.408,14.771c-0.011-0.265-0.018-0.526-0.018-0.796C461.246,166.772,468.15,159.866,476.672,159.866z"/>
		<path opacity="0.1" fill="#FFFFFF" stroke="#FFFFFF" stroke-miterlimit="10" d="M476.604,189.93
			c-8.521,0-15.43-6.908-15.43-15.429c0-0.22,0.008-0.438,0.018-0.654c0.414,8.149,7.16,14.634,15.412,14.634
			c8.301,0,15.068-6.555,15.407-14.771c0.011,0.266,0.018,0.527,0.018,0.795C492.029,183.026,485.125,189.93,476.604,189.93z"/>
	</g>
</g>
<g>
	<circle fill="#D3BE00" stroke="#FFFFFF" stroke-miterlimit="10" cx="526.638" cy="175.854" r="25"/>
	<path opacity="0.1" fill="none" stroke="#FFFFFF" stroke-width="2" stroke-miterlimit="10" d="M502.258,175.854
		c0-13.465,10.915-24.381,24.38-24.381s24.381,10.916,24.381,24.381"/>
	<g>
		<path opacity="0.2" fill="#231F20" stroke="#231F20" stroke-miterlimit="10" d="M511.251,175.616
			c0.34,8.217,7.11,14.775,15.411,14.775c8.28,0,15.03-6.516,15.408-14.701c0.014,0.241,0.018,0.484,0.018,0.726
			c0,8.521-2.884,19.317-15.426,19.317s-15.429-10.801-15.429-19.32C511.233,176.143,511.24,175.881,511.251,175.616z"/>
		<path opacity="0.2" fill="#FFFFFF" stroke="#FFFFFF" stroke-miterlimit="10" d="M526.672,159.866
			c8.521,0,15.429,6.909,15.429,15.43c0,0.219-0.007,0.438-0.018,0.654c-0.414-8.149-7.16-14.634-15.411-14.634
			c-8.302,0-15.069,6.556-15.408,14.771c-0.011-0.265-0.018-0.526-0.018-0.796C511.246,166.772,518.15,159.866,526.672,159.866z"/>
		<path opacity="0.1" fill="#FFFFFF" stroke="#FFFFFF" stroke-miterlimit="10" d="M526.604,189.93
			c-8.521,0-15.43-6.908-15.43-15.429c0-0.22,0.008-0.438,0.018-0.654c0.414,8.149,7.16,14.634,15.412,14.634
			c8.301,0,15.068-6.555,15.407-14.771c0.011,0.266,0.019,0.527,0.019,0.795C542.03,183.026,535.125,189.93,526.604,189.93z"/>
	</g>
</g>
<g>
	<circle fill="#D3BE00" stroke="#FFFFFF" stroke-miterlimit="10" cx="225.292" cy="175.467" r="25"/>
	<path opacity="0.1" fill="none" stroke="#FFFFFF" stroke-width="2" stroke-miterlimit="10" d="M200.912,175.467
		c0-13.465,10.916-24.38,24.38-24.38s24.38,10.915,24.38,24.38"/>
	<g>
		<path opacity="0.2" fill="#231F20" stroke="#231F20" stroke-miterlimit="10" d="M209.906,175.231
			c0.339,8.217,7.11,14.774,15.411,14.774c8.28,0,15.03-6.516,15.408-14.7c0.014,0.24,0.018,0.484,0.018,0.725
			c0,8.521-2.883,19.316-15.426,19.316c-12.542,0-15.429-10.799-15.429-19.32C209.888,175.757,209.895,175.496,209.906,175.231z"/>
		<path opacity="0.2" fill="#FFFFFF" stroke="#FFFFFF" stroke-miterlimit="10" d="M225.326,159.481
			c8.521,0,15.429,6.908,15.429,15.429c0,0.22-0.007,0.438-0.018,0.653c-0.414-8.148-7.16-14.633-15.411-14.633
			c-8.302,0-15.068,6.555-15.408,14.771c-0.011-0.266-0.018-0.527-0.018-0.795C209.9,166.385,216.805,159.481,225.326,159.481z"/>
		<path opacity="0.1" fill="#FFFFFF" stroke="#FFFFFF" stroke-miterlimit="10" d="M225.259,189.544
			c-8.521,0-15.429-6.908-15.429-15.429c0-0.219,0.007-0.438,0.018-0.654c0.414,8.149,7.16,14.634,15.412,14.634
			c8.301,0,15.068-6.556,15.408-14.771c0.011,0.265,0.018,0.526,0.018,0.796C240.685,182.639,233.779,189.544,225.259,189.544z"/>
	</g>
</g>
<g>
	<circle fill="#939598" stroke="#FFFFFF" stroke-miterlimit="10" cx="275.292" cy="175.467" r="25"/>
	<path opacity="0.1" fill="none" stroke="#FFFFFF" stroke-width="2" stroke-miterlimit="10" d="M250.912,175.467
		c0-13.465,10.916-24.38,24.38-24.38s24.38,10.915,24.38,24.38"/>
	<g>
		<path opacity="0.2" fill="#231F20" stroke="#231F20" stroke-miterlimit="10" d="M259.906,175.231
			c0.339,8.217,7.11,14.774,15.411,14.774c8.28,0,15.03-6.516,15.408-14.7c0.014,0.24,0.018,0.484,0.018,0.725
			c0,8.521-2.883,19.316-15.426,19.316c-12.542,0-15.429-10.799-15.429-19.32C259.888,175.757,259.895,175.496,259.906,175.231z"/>
		<path opacity="0.2" fill="#FFFFFF" stroke="#FFFFFF" stroke-miterlimit="10" d="M275.326,159.481
			c8.521,0,15.429,6.908,15.429,15.429c0,0.22-0.007,0.438-0.018,0.653c-0.414-8.148-7.159-14.633-15.411-14.633
			c-8.302,0-15.068,6.555-15.408,14.771c-0.011-0.266-0.018-0.527-0.018-0.795C259.9,166.385,266.805,159.481,275.326,159.481z"/>
		<path opacity="0.1" fill="#FFFFFF" stroke="#FFFFFF" stroke-miterlimit="10" d="M275.259,189.544
			c-8.521,0-15.429-6.908-15.429-15.429c0-0.219,0.007-0.438,0.018-0.654c0.414,8.149,7.16,14.634,15.412,14.634
			c8.301,0,15.068-6.556,15.408-14.771c0.011,0.265,0.018,0.526,0.018,0.796C290.685,182.639,283.779,189.544,275.259,189.544z"/>
	</g>
</g>
<g>
	<circle fill="#8B5E3C" stroke="#FFFFFF" stroke-miterlimit="10" cx="325.292" cy="175.467" r="25"/>
	<path opacity="0.1" fill="none" stroke="#FFFFFF" stroke-width="2" stroke-miterlimit="10" d="M300.912,175.467
		c0-13.465,10.916-24.38,24.38-24.38s24.38,10.915,24.38,24.38"/>
	<g>
		<path opacity="0.2" fill="#231F20" stroke="#231F20" stroke-miterlimit="10" d="M309.906,175.231
			c0.339,8.217,7.11,14.774,15.411,14.774c8.28,0,15.03-6.516,15.408-14.7c0.014,0.24,0.018,0.484,0.018,0.725
			c0,8.521-2.883,19.316-15.426,19.316c-12.542,0-15.429-10.799-15.429-19.32C309.888,175.757,309.895,175.496,309.906,175.231z"/>
		<path opacity="0.2" fill="#FFFFFF" stroke="#FFFFFF" stroke-miterlimit="10" d="M325.326,159.481
			c8.521,0,15.429,6.908,15.429,15.429c0,0.22-0.007,0.438-0.018,0.653c-0.414-8.148-7.16-14.633-15.411-14.633
			c-8.302,0-15.068,6.555-15.408,14.771c-0.011-0.266-0.018-0.527-0.018-0.795C309.9,166.385,316.805,159.481,325.326,159.481z"/>
		<path opacity="0.1" fill="#FFFFFF" stroke="#FFFFFF" stroke-miterlimit="10" d="M325.259,189.544
			c-8.521,0-15.429-6.908-15.429-15.429c0-0.219,0.007-0.438,0.018-0.654c0.414,8.149,7.16,14.634,15.412,14.634
			c8.302,0,15.068-6.556,15.408-14.771c0.011,0.265,0.018,0.526,0.018,0.796C340.685,182.639,333.779,189.544,325.259,189.544z"/>
	</g>
</g>
<g>
	<circle fill="#1B75BC" stroke="#FFFFFF" stroke-miterlimit="10" cx="826.806" cy="175.467" r="25"/>
	<path opacity="0.1" fill="none" stroke="#FFFFFF" stroke-width="2" stroke-miterlimit="10" d="M802.426,175.467
		c0-13.465,10.915-24.38,24.38-24.38s24.381,10.915,24.381,24.38"/>
	<g>
		<path opacity="0.2" fill="#231F20" stroke="#231F20" stroke-miterlimit="10" d="M811.419,175.231
			c0.34,8.217,7.11,14.774,15.411,14.774c8.28,0,15.03-6.516,15.408-14.7c0.014,0.24,0.018,0.484,0.018,0.725
			c0,8.521-2.884,19.316-15.426,19.316s-15.429-10.799-15.429-19.32C811.401,175.757,811.408,175.496,811.419,175.231z"/>
		<path opacity="0.2" fill="#FFFFFF" stroke="#FFFFFF" stroke-miterlimit="10" d="M826.839,159.481
			c8.521,0,15.43,6.908,15.43,15.429c0,0.22-0.007,0.438-0.018,0.653c-0.414-8.148-7.16-14.633-15.412-14.633
			c-8.301,0-15.068,6.555-15.407,14.771c-0.011-0.266-0.018-0.527-0.018-0.795C811.414,166.385,818.318,159.481,826.839,159.481z"/>
		<path opacity="0.1" fill="#FFFFFF" stroke="#FFFFFF" stroke-miterlimit="10" d="M826.772,189.544
			c-8.521,0-15.43-6.908-15.43-15.429c0-0.219,0.008-0.438,0.018-0.654c0.414,8.149,7.16,14.634,15.412,14.634
			c8.301,0,15.068-6.556,15.407-14.771c0.011,0.265,0.018,0.526,0.018,0.796C842.197,182.639,835.293,189.544,826.772,189.544z"/>
	</g>
</g>
<g>
	<circle fill="#8B5E3C" stroke="#FFFFFF" stroke-miterlimit="10" cx="876.806" cy="175.467" r="25"/>
	<path opacity="0.1" fill="none" stroke="#FFFFFF" stroke-width="2" stroke-miterlimit="10" d="M852.426,175.467
		c0-13.465,10.915-24.38,24.38-24.38s24.381,10.915,24.381,24.38"/>
	<g>
		<path opacity="0.2" fill="#231F20" stroke="#231F20" stroke-miterlimit="10" d="M861.419,175.231
			c0.34,8.217,7.11,14.774,15.411,14.774c8.28,0,15.03-6.516,15.408-14.7c0.014,0.24,0.018,0.484,0.018,0.725
			c0,8.521-2.884,19.316-15.426,19.316s-15.429-10.799-15.429-19.32C861.401,175.757,861.408,175.496,861.419,175.231z"/>
		<path opacity="0.2" fill="#FFFFFF" stroke="#FFFFFF" stroke-miterlimit="10" d="M876.839,159.481
			c8.521,0,15.43,6.908,15.43,15.429c0,0.22-0.007,0.438-0.018,0.653c-0.414-8.148-7.16-14.633-15.412-14.633
			c-8.301,0-15.068,6.555-15.407,14.771c-0.011-0.266-0.018-0.527-0.018-0.795C861.414,166.385,868.318,159.481,876.839,159.481z"/>
		<path opacity="0.1" fill="#FFFFFF" stroke="#FFFFFF" stroke-miterlimit="10" d="M876.772,189.544
			c-8.521,0-15.43-6.908-15.43-15.429c0-0.219,0.008-0.438,0.018-0.654c0.414,8.149,7.16,14.634,15.412,14.634
			c8.301,0,15.068-6.556,15.407-14.771c0.011,0.265,0.018,0.526,0.018,0.796C892.197,182.639,885.293,189.544,876.772,189.544z"/>
	</g>
</g>
<g>
	<circle fill="#8B5E3C" stroke="#FFFFFF" stroke-miterlimit="10" cx="726.567" cy="175.467" r="25"/>
	<path opacity="0.1" fill="none" stroke="#FFFFFF" stroke-width="2" stroke-miterlimit="10" d="M702.187,175.467
		c0-13.465,10.916-24.38,24.381-24.38s24.38,10.915,24.38,24.38"/>
	<g>
		<path opacity="0.2" fill="#231F20" stroke="#231F20" stroke-miterlimit="10" d="M711.181,175.231
			c0.339,8.217,7.109,14.774,15.411,14.774c8.28,0,15.029-6.516,15.408-14.7c0.014,0.24,0.018,0.484,0.018,0.725
			c0,8.521-2.884,19.316-15.426,19.316s-15.429-10.799-15.429-19.32C711.163,175.757,711.17,175.496,711.181,175.231z"/>
		<path opacity="0.2" fill="#FFFFFF" stroke="#FFFFFF" stroke-miterlimit="10" d="M726.601,159.481
			c8.521,0,15.43,6.908,15.43,15.429c0,0.22-0.008,0.438-0.019,0.653c-0.413-8.148-7.159-14.633-15.411-14.633
			c-8.301,0-15.068,6.555-15.408,14.771c-0.01-0.266-0.018-0.527-0.018-0.795C711.175,166.385,718.08,159.481,726.601,159.481z"/>
		<path opacity="0.1" fill="#FFFFFF" stroke="#FFFFFF" stroke-miterlimit="10" d="M726.533,189.544
			c-8.521,0-15.429-6.908-15.429-15.429c0-0.219,0.007-0.438,0.018-0.654c0.414,8.149,7.159,14.634,15.411,14.634
			c8.302,0,15.068-6.556,15.408-14.771c0.011,0.265,0.018,0.526,0.018,0.796C741.959,182.639,735.054,189.544,726.533,189.544z"/>
	</g>
</g>
<g>
	<circle fill="#939598" stroke="#FFFFFF" stroke-miterlimit="10" cx="776.567" cy="175.467" r="25"/>
	<path opacity="0.1" fill="none" stroke="#FFFFFF" stroke-width="2" stroke-miterlimit="10" d="M752.187,175.467
		c0-13.465,10.916-24.38,24.381-24.38s24.38,10.915,24.38,24.38"/>
	<g>
		<path opacity="0.2" fill="#231F20" stroke="#231F20" stroke-miterlimit="10" d="M761.181,175.231
			c0.339,8.217,7.109,14.774,15.411,14.774c8.28,0,15.029-6.516,15.408-14.7c0.014,0.24,0.018,0.484,0.018,0.725
			c0,8.521-2.884,19.316-15.426,19.316s-15.429-10.799-15.429-19.32C761.163,175.757,761.17,175.496,761.181,175.231z"/>
		<path opacity="0.2" fill="#FFFFFF" stroke="#FFFFFF" stroke-miterlimit="10" d="M776.601,159.481
			c8.521,0,15.429,6.908,15.429,15.429c0,0.22-0.007,0.438-0.018,0.653c-0.413-8.148-7.159-14.633-15.411-14.633
			c-8.301,0-15.068,6.555-15.408,14.771c-0.01-0.266-0.018-0.527-0.018-0.795C761.175,166.385,768.08,159.481,776.601,159.481z"/>
		<path opacity="0.1" fill="#FFFFFF" stroke="#FFFFFF" stroke-miterlimit="10" d="M776.533,189.544
			c-8.521,0-15.429-6.908-15.429-15.429c0-0.219,0.007-0.438,0.018-0.654c0.414,8.149,7.159,14.634,15.411,14.634
			c8.302,0,15.068-6.556,15.408-14.771c0.011,0.265,0.018,0.526,0.018,0.796C791.959,182.639,785.054,189.544,776.533,189.544z"/>
	</g>
</g>
<g>
	<circle fill="#E59CCF" stroke="#FFFFFF" stroke-miterlimit="10" cx="576.399" cy="175.473" r="25"/>
	<path opacity="0.1" fill="none" stroke="#FFFFFF" stroke-width="2" stroke-miterlimit="10" d="M552.019,175.473
		c0-13.465,10.916-24.381,24.381-24.381s24.38,10.916,24.38,24.381"/>
	<g>
		<path opacity="0.2" fill="#231F20" stroke="#231F20" stroke-miterlimit="10" d="M561.013,175.235
			c0.339,8.217,7.109,14.775,15.411,14.775c8.28,0,15.029-6.516,15.408-14.701c0.014,0.24,0.018,0.484,0.018,0.725
			c0,8.521-2.884,19.318-15.426,19.318s-15.429-10.801-15.429-19.321C560.995,175.762,561.002,175.5,561.013,175.235z"/>
		<path opacity="0.2" fill="#FFFFFF" stroke="#FFFFFF" stroke-miterlimit="10" d="M576.433,159.485c8.521,0,15.43,6.908,15.43,15.43
			c0,0.219-0.008,0.438-0.018,0.654c-0.414-8.15-7.16-14.634-15.412-14.634c-8.301,0-15.068,6.555-15.407,14.771
			c-0.011-0.265-0.019-0.526-0.019-0.796C561.007,166.39,567.912,159.485,576.433,159.485z"/>
		<path opacity="0.1" fill="#FFFFFF" stroke="#FFFFFF" stroke-miterlimit="10" d="M576.365,189.549
			c-8.521,0-15.429-6.908-15.429-15.43c0-0.219,0.007-0.438,0.018-0.653c0.414,8.149,7.16,14.634,15.411,14.634
			c8.302,0,15.069-6.555,15.408-14.771c0.011,0.265,0.018,0.526,0.018,0.795C591.791,182.645,584.887,189.549,576.365,189.549z"/>
	</g>
</g>
<g>
	<circle fill="#8B5E3C" stroke="#FFFFFF" stroke-miterlimit="10" cx="626.399" cy="175.473" r="25"/>
	<path opacity="0.1" fill="none" stroke="#FFFFFF" stroke-width="2" stroke-miterlimit="10" d="M602.019,175.473
		c0-13.465,10.916-24.381,24.381-24.381s24.38,10.916,24.38,24.381"/>
	<g>
		<path opacity="0.2" fill="#231F20" stroke="#231F20" stroke-miterlimit="10" d="M611.013,175.235
			c0.339,8.217,7.109,14.775,15.411,14.775c8.28,0,15.029-6.516,15.408-14.701c0.014,0.24,0.018,0.484,0.018,0.725
			c0,8.521-2.884,19.318-15.426,19.318s-15.429-10.801-15.429-19.321C610.995,175.762,611.002,175.5,611.013,175.235z"/>
		<path opacity="0.2" fill="#FFFFFF" stroke="#FFFFFF" stroke-miterlimit="10" d="M626.433,159.485c8.521,0,15.43,6.908,15.43,15.43
			c0,0.219-0.008,0.438-0.018,0.654c-0.414-8.15-7.16-14.634-15.412-14.634c-8.301,0-15.068,6.555-15.407,14.771
			c-0.011-0.265-0.019-0.526-0.019-0.796C611.007,166.39,617.912,159.485,626.433,159.485z"/>
		<path opacity="0.1" fill="#FFFFFF" stroke="#FFFFFF" stroke-miterlimit="10" d="M626.365,189.549
			c-8.521,0-15.429-6.908-15.429-15.43c0-0.219,0.007-0.438,0.018-0.653c0.414,8.149,7.16,14.634,15.411,14.634
			c8.302,0,15.069-6.555,15.408-14.771c0.011,0.265,0.018,0.526,0.018,0.795C641.791,182.645,634.887,189.549,626.365,189.549z"/>
	</g>
</g>
<g>
	<circle fill="#939598" stroke="#FFFFFF" stroke-miterlimit="10" cx="676.399" cy="175.473" r="25"/>
	<path opacity="0.1" fill="none" stroke="#FFFFFF" stroke-width="2" stroke-miterlimit="10" d="M652.019,175.473
		c0-13.465,10.916-24.381,24.381-24.381s24.38,10.916,24.38,24.381"/>
	<g>
		<path opacity="0.2" fill="#231F20" stroke="#231F20" stroke-miterlimit="10" d="M661.013,175.235
			c0.339,8.217,7.109,14.775,15.411,14.775c8.28,0,15.029-6.516,15.408-14.701c0.014,0.24,0.018,0.484,0.018,0.725
			c0,8.521-2.884,19.318-15.426,19.318s-15.429-10.801-15.429-19.321C660.995,175.762,661.002,175.5,661.013,175.235z"/>
		<path opacity="0.2" fill="#FFFFFF" stroke="#FFFFFF" stroke-miterlimit="10" d="M676.433,159.485c8.521,0,15.43,6.908,15.43,15.43
			c0,0.219-0.008,0.438-0.018,0.654c-0.414-8.15-7.16-14.634-15.412-14.634c-8.301,0-15.068,6.555-15.407,14.771
			c-0.011-0.265-0.019-0.526-0.019-0.796C661.007,166.39,667.912,159.485,676.433,159.485z"/>
		<path opacity="0.1" fill="#FFFFFF" stroke="#FFFFFF" stroke-miterlimit="10" d="M676.365,189.549
			c-8.521,0-15.429-6.908-15.429-15.43c0-0.219,0.007-0.438,0.018-0.653c0.414,8.149,7.16,14.634,15.411,14.634
			c8.302,0,15.069-6.555,15.408-14.771c0.011,0.265,0.018,0.526,0.018,0.795C691.791,182.645,684.887,189.549,676.365,189.549z"/>
	</g>
</g>
<rect x="-1" y="1" opacity="0.5" fill="#FFFFFF" width="902" height="200"/>
</svg>
