<?xml version="1.0" encoding="utf-8"?>
<!-- Generator: Adobe Illustrator 16.0.4, SVG Export Plug-In . SVG Version: 6.00 Build 0)  -->
<!DOCTYPE svg PUBLIC "-//W3C//DTD SVG 1.1//EN" "http://www.w3.org/Graphics/SVG/1.1/DTD/svg11.dtd">
<svg version="1.1" id="Layer_1" xmlns="http://www.w3.org/2000/svg" xmlns:xlink="http://www.w3.org/1999/xlink" x="0px" y="0px"
	 width="902.806px" height="201.854px" viewBox="0 0 902.806 201.854" enable-background="new 0 0 902.806 201.854"
	 xml:space="preserve">
<g>
	<circle fill="#009444" stroke="#231F20" stroke-miterlimit="10" cx="26.158" cy="25.5" r="25"/>
	<path opacity="0.1" fill="none" stroke="#FFFFFF" stroke-width="2" stroke-miterlimit="10" d="M1.777,25.5
		c0-13.465,10.916-24.38,24.38-24.38s24.38,10.916,24.38,24.38"/>
	<g>
		<path opacity="0.2" fill="#231F20" stroke="#231F20" stroke-miterlimit="10" d="M10.771,25.263
			c0.339,8.217,7.11,14.775,15.411,14.775c8.28,0,15.03-6.516,15.408-14.701c0.014,0.241,0.018,0.484,0.018,0.725
			c0,8.521-2.883,19.317-15.426,19.317c-12.542,0-15.429-10.8-15.429-19.321C10.753,25.79,10.76,25.528,10.771,25.263z"/>
		<path opacity="0.2" fill="#FFFFFF" stroke="#FFFFFF" stroke-miterlimit="10" d="M26.191,9.513c8.521,0,15.429,6.909,15.429,15.429
			c0,0.219-0.007,0.438-0.018,0.654c-0.414-8.149-7.159-14.634-15.411-14.634c-8.301,0-15.068,6.555-15.408,14.771
			c-0.01-0.265-0.018-0.527-0.018-0.795C10.766,16.417,17.671,9.513,26.191,9.513z"/>
		<path opacity="0.1" fill="#FFFFFF" stroke="#FFFFFF" stroke-miterlimit="10" d="M26.124,39.577
			c-8.521,0-15.429-6.909-15.429-15.429c0-0.219,0.007-0.438,0.018-0.654c0.414,8.149,7.159,14.634,15.411,14.634
			c8.301,0,15.068-6.555,15.408-14.771c0.01,0.265,0.018,0.527,0.018,0.795C41.55,32.672,34.645,39.577,26.124,39.577z"/>
	</g>
</g>
<g>
	<circle fill="#F7941D" stroke="#231F20" stroke-miterlimit="10" cx="76.158" cy="25.5" r="25"/>
	<path opacity="0.1" fill="none" stroke="#FFFFFF" stroke-width="2" stroke-miterlimit="10" d="M51.777,25.5
		c0-13.465,10.916-24.38,24.38-24.38s24.38,10.916,24.38,24.38"/>
	<g>
		<path opacity="0.2" fill="#231F20" stroke="#231F20" stroke-miterlimit="10" d="M60.771,25.263
			c0.339,8.217,7.11,14.775,15.411,14.775c8.28,0,15.03-6.516,15.408-14.701c0.014,0.241,0.018,0.484,0.018,0.725
			c0,8.521-2.883,19.317-15.426,19.317c-12.542,0-15.429-10.8-15.429-19.321C60.753,25.79,60.76,25.528,60.771,25.263z"/>
		<path opacity="0.2" fill="#FFFFFF" stroke="#FFFFFF" stroke-miterlimit="10" d="M76.191,9.513c8.521,0,15.429,6.909,15.429,15.429
			c0,0.219-0.007,0.438-0.018,0.654c-0.414-8.149-7.159-14.634-15.411-14.634c-8.301,0-15.068,6.555-15.408,14.771
			c-0.01-0.265-0.018-0.527-0.018-0.795C60.766,16.417,67.671,9.513,76.191,9.513z"/>
		<path opacity="0.1" fill="#FFFFFF" stroke="#FFFFFF" stroke-miterlimit="10" d="M76.124,39.577
			c-8.521,0-15.429-6.909-15.429-15.429c0-0.219,0.007-0.438,0.018-0.654c0.414,8.149,7.159,14.634,15.411,14.634
			c8.301,0,15.068-6.555,15.408-14.771c0.01,0.265,0.018,0.527,0.018,0.795C91.55,32.672,84.645,39.577,76.124,39.577z"/>
	</g>
</g>
<g>
	<circle fill="#39B54A" stroke="#231F20" stroke-miterlimit="10" cx="126.158" cy="25.5" r="25"/>
	<path opacity="0.1" fill="none" stroke="#FFFFFF" stroke-width="2" stroke-miterlimit="10" d="M101.777,25.5
		c0-13.465,10.916-24.38,24.38-24.38s24.38,10.916,24.38,24.38"/>
	<g>
		<path opacity="0.2" fill="#231F20" stroke="#231F20" stroke-miterlimit="10" d="M110.771,25.263
			c0.339,8.217,7.11,14.775,15.411,14.775c8.28,0,15.03-6.516,15.408-14.701c0.014,0.241,0.018,0.484,0.018,0.725
			c0,8.521-2.883,19.317-15.426,19.317c-12.542,0-15.429-10.8-15.429-19.321C110.753,25.79,110.76,25.528,110.771,25.263z"/>
		<path opacity="0.2" fill="#FFFFFF" stroke="#FFFFFF" stroke-miterlimit="10" d="M126.191,9.513
			c8.521,0,15.429,6.909,15.429,15.429c0,0.219-0.007,0.438-0.018,0.654c-0.414-8.149-7.159-14.634-15.411-14.634
			c-8.301,0-15.068,6.555-15.408,14.771c-0.01-0.265-0.018-0.527-0.018-0.795C110.766,16.417,117.671,9.513,126.191,9.513z"/>
		<path opacity="0.1" fill="#FFFFFF" stroke="#FFFFFF" stroke-miterlimit="10" d="M126.124,39.577
			c-8.521,0-15.429-6.909-15.429-15.429c0-0.219,0.007-0.438,0.018-0.654c0.414,8.149,7.159,14.634,15.411,14.634
			c8.301,0,15.068-6.555,15.408-14.771c0.01,0.265,0.018,0.527,0.018,0.795C141.55,32.672,134.645,39.577,126.124,39.577z"/>
	</g>
</g>
<g>
	<circle fill="#D3BE00" stroke="#231F20" stroke-miterlimit="10" cx="176.158" cy="25.5" r="25"/>
	<path opacity="0.1" fill="none" stroke="#FFFFFF" stroke-width="2" stroke-miterlimit="10" d="M151.777,25.5
		c0-13.465,10.916-24.38,24.38-24.38s24.38,10.916,24.38,24.38"/>
	<g>
		<path opacity="0.2" fill="#231F20" stroke="#231F20" stroke-miterlimit="10" d="M160.771,25.263
			c0.339,8.217,7.11,14.775,15.411,14.775c8.28,0,15.03-6.516,15.408-14.701c0.014,0.241,0.018,0.484,0.018,0.725
			c0,8.521-2.883,19.317-15.426,19.317c-12.542,0-15.429-10.8-15.429-19.321C160.753,25.79,160.76,25.528,160.771,25.263z"/>
		<path opacity="0.2" fill="#FFFFFF" stroke="#FFFFFF" stroke-miterlimit="10" d="M176.191,9.513
			c8.521,0,15.429,6.909,15.429,15.429c0,0.219-0.007,0.438-0.018,0.654c-0.414-8.149-7.159-14.634-15.411-14.634
			c-8.301,0-15.068,6.555-15.408,14.771c-0.01-0.265-0.018-0.527-0.018-0.795C160.766,16.417,167.671,9.513,176.191,9.513z"/>
		<path opacity="0.1" fill="#FFFFFF" stroke="#FFFFFF" stroke-miterlimit="10" d="M176.124,39.577
			c-8.521,0-15.429-6.909-15.429-15.429c0-0.219,0.007-0.438,0.018-0.654c0.414,8.149,7.159,14.634,15.411,14.634
			c8.301,0,15.068-6.555,15.408-14.771c0.01,0.265,0.018,0.527,0.018,0.795C191.55,32.672,184.645,39.577,176.124,39.577z"/>
	</g>
</g>
<g>
	<circle fill="#1B75BC" stroke="#231F20" stroke-miterlimit="10" cx="226.158" cy="25.5" r="25"/>
	<path opacity="0.1" fill="none" stroke="#FFFFFF" stroke-width="2" stroke-miterlimit="10" d="M201.777,25.5
		c0-13.465,10.916-24.38,24.38-24.38s24.38,10.916,24.38,24.38"/>
	<g>
		<path opacity="0.2" fill="#231F20" stroke="#231F20" stroke-miterlimit="10" d="M210.771,25.263
			c0.339,8.217,7.11,14.775,15.411,14.775c8.28,0,15.03-6.516,15.408-14.701c0.014,0.241,0.018,0.484,0.018,0.725
			c0,8.521-2.883,19.317-15.426,19.317c-12.542,0-15.429-10.8-15.429-19.321C210.753,25.79,210.76,25.528,210.771,25.263z"/>
		<path opacity="0.2" fill="#FFFFFF" stroke="#FFFFFF" stroke-miterlimit="10" d="M226.191,9.513
			c8.521,0,15.429,6.909,15.429,15.429c0,0.219-0.007,0.438-0.018,0.654c-0.414-8.149-7.159-14.634-15.411-14.634
			c-8.301,0-15.069,6.555-15.408,14.771c-0.01-0.265-0.018-0.527-0.018-0.795C210.766,16.417,217.671,9.513,226.191,9.513z"/>
		<path opacity="0.1" fill="#FFFFFF" stroke="#FFFFFF" stroke-miterlimit="10" d="M226.124,39.577
			c-8.521,0-15.429-6.909-15.429-15.429c0-0.219,0.007-0.438,0.018-0.654c0.414,8.149,7.159,14.634,15.411,14.634
			c8.301,0,15.068-6.555,15.408-14.771c0.01,0.265,0.018,0.527,0.018,0.795C241.55,32.672,234.645,39.577,226.124,39.577z"/>
	</g>
</g>
<g>
	<circle fill="#1B75BC" stroke="#231F20" stroke-miterlimit="10" cx="25.502" cy="125.734" r="25"/>
	<path opacity="0.1" fill="none" stroke="#FFFFFF" stroke-width="2" stroke-miterlimit="10" d="M1.123,125.734
		c0-13.465,10.915-24.38,24.38-24.38s24.38,10.916,24.38,24.38"/>
	<g>
		<path opacity="0.2" fill="#231F20" stroke="#231F20" stroke-miterlimit="10" d="M10.116,125.497
			c0.339,8.217,7.11,14.775,15.412,14.775c8.28,0,15.029-6.516,15.408-14.701c0.014,0.24,0.018,0.484,0.018,0.725
			c0,8.521-2.883,19.317-15.425,19.317c-12.542,0-15.429-10.8-15.429-19.321C10.098,126.024,10.105,125.762,10.116,125.497z"/>
		<path opacity="0.2" fill="#FFFFFF" stroke="#FFFFFF" stroke-miterlimit="10" d="M25.536,109.747
			c8.521,0,15.429,6.908,15.429,15.43c0,0.219-0.007,0.438-0.018,0.653c-0.414-8.149-7.16-14.634-15.412-14.634
			c-8.301,0-15.068,6.555-15.408,14.771c-0.011-0.265-0.018-0.526-0.018-0.795C10.111,116.652,17.016,109.747,25.536,109.747z"/>
		<path opacity="0.1" fill="#FFFFFF" stroke="#FFFFFF" stroke-miterlimit="10" d="M25.469,139.811
			c-8.521,0-15.429-6.908-15.429-15.43c0-0.219,0.007-0.438,0.018-0.654c0.414,8.15,7.16,14.635,15.412,14.635
			c8.301,0,15.068-6.556,15.408-14.771c0.011,0.265,0.018,0.526,0.018,0.795C40.895,132.906,33.99,139.811,25.469,139.811z"/>
	</g>
</g>
<g>
	<circle fill="#009444" stroke="#231F20" stroke-miterlimit="10" cx="276.193" cy="125.5" r="25"/>
	<path opacity="0.1" fill="none" stroke="#FFFFFF" stroke-width="2" stroke-miterlimit="10" d="M251.813,125.5
		c0-13.465,10.915-24.381,24.38-24.381s24.38,10.916,24.38,24.381"/>
	<g>
		<path opacity="0.2" fill="#231F20" stroke="#231F20" stroke-miterlimit="10" d="M260.806,125.262
			c0.339,8.217,7.11,14.775,15.412,14.775c8.28,0,15.029-6.516,15.408-14.701c0.014,0.241,0.018,0.484,0.018,0.726
			c0,8.521-2.883,19.317-15.425,19.317c-12.542,0-15.429-10.801-15.429-19.321C260.789,125.79,260.795,125.528,260.806,125.262z"/>
		<path opacity="0.2" fill="#FFFFFF" stroke="#FFFFFF" stroke-miterlimit="10" d="M276.227,109.512
			c8.521,0,15.429,6.909,15.429,15.43c0,0.219-0.007,0.438-0.018,0.654c-0.414-8.149-7.16-14.634-15.412-14.634
			c-8.301,0-15.068,6.555-15.408,14.771c-0.011-0.265-0.018-0.526-0.018-0.796C260.801,116.417,267.706,109.512,276.227,109.512z"/>
		<path opacity="0.1" fill="#FFFFFF" stroke="#FFFFFF" stroke-miterlimit="10" d="M276.16,139.577
			c-8.521,0-15.429-6.908-15.429-15.429c0-0.22,0.007-0.438,0.018-0.654c0.414,8.149,7.16,14.634,15.412,14.634
			c8.301,0,15.068-6.555,15.408-14.771c0.011,0.266,0.018,0.527,0.018,0.795C291.585,132.672,284.68,139.577,276.16,139.577z"/>
	</g>
</g>
<g>
	<circle fill="#F7941D" stroke="#231F20" stroke-miterlimit="10" cx="326.193" cy="125.5" r="25"/>
	<path opacity="0.1" fill="none" stroke="#FFFFFF" stroke-width="2" stroke-miterlimit="10" d="M301.813,125.5
		c0-13.465,10.915-24.381,24.38-24.381s24.38,10.916,24.38,24.381"/>
	<g>
		<path opacity="0.2" fill="#231F20" stroke="#231F20" stroke-miterlimit="10" d="M310.806,125.262
			c0.339,8.217,7.11,14.775,15.412,14.775c8.28,0,15.029-6.516,15.408-14.701c0.014,0.241,0.018,0.484,0.018,0.726
			c0,8.521-2.883,19.317-15.425,19.317c-12.542,0-15.429-10.801-15.429-19.321C310.789,125.79,310.795,125.528,310.806,125.262z"/>
		<path opacity="0.2" fill="#FFFFFF" stroke="#FFFFFF" stroke-miterlimit="10" d="M326.227,109.512
			c8.521,0,15.429,6.909,15.429,15.43c0,0.219-0.007,0.438-0.018,0.654c-0.414-8.149-7.16-14.634-15.412-14.634
			c-8.301,0-15.068,6.555-15.408,14.771c-0.011-0.265-0.018-0.526-0.018-0.796C310.801,116.417,317.706,109.512,326.227,109.512z"/>
		<path opacity="0.1" fill="#FFFFFF" stroke="#FFFFFF" stroke-miterlimit="10" d="M326.16,139.577
			c-8.521,0-15.429-6.908-15.429-15.429c0-0.22,0.007-0.438,0.018-0.654c0.414,8.149,7.16,14.634,15.412,14.634
			c8.301,0,15.068-6.555,15.408-14.771c0.011,0.266,0.018,0.527,0.018,0.795C341.585,132.672,334.68,139.577,326.16,139.577z"/>
	</g>
</g>
<g>
	<circle fill="#39B54A" stroke="#231F20" stroke-miterlimit="10" cx="376.193" cy="125.5" r="25"/>
	<path opacity="0.1" fill="none" stroke="#FFFFFF" stroke-width="2" stroke-miterlimit="10" d="M351.813,125.5
		c0-13.465,10.915-24.381,24.38-24.381s24.38,10.916,24.38,24.381"/>
	<g>
		<path opacity="0.2" fill="#231F20" stroke="#231F20" stroke-miterlimit="10" d="M360.806,125.262
			c0.339,8.217,7.11,14.775,15.412,14.775c8.28,0,15.029-6.516,15.408-14.701c0.014,0.241,0.018,0.484,0.018,0.726
			c0,8.521-2.883,19.317-15.425,19.317c-12.542,0-15.429-10.801-15.429-19.321C360.789,125.79,360.795,125.528,360.806,125.262z"/>
		<path opacity="0.2" fill="#FFFFFF" stroke="#FFFFFF" stroke-miterlimit="10" d="M376.227,109.512
			c8.521,0,15.429,6.909,15.429,15.43c0,0.219-0.007,0.438-0.018,0.654c-0.414-8.149-7.16-14.634-15.412-14.634
			c-8.301,0-15.068,6.555-15.408,14.771c-0.011-0.265-0.018-0.526-0.018-0.796C360.801,116.417,367.706,109.512,376.227,109.512z"/>
		<path opacity="0.1" fill="#FFFFFF" stroke="#FFFFFF" stroke-miterlimit="10" d="M376.16,139.577
			c-8.521,0-15.429-6.908-15.429-15.429c0-0.22,0.007-0.438,0.018-0.654c0.414,8.149,7.16,14.634,15.412,14.634
			c8.301,0,15.068-6.555,15.408-14.771c0.011,0.266,0.018,0.527,0.018,0.795C391.585,132.672,384.68,139.577,376.16,139.577z"/>
	</g>
</g>
<g>
	<circle fill="#D3BE00" stroke="#231F20" stroke-miterlimit="10" cx="426.193" cy="125.5" r="25"/>
	<path opacity="0.1" fill="none" stroke="#FFFFFF" stroke-width="2" stroke-miterlimit="10" d="M401.813,125.5
		c0-13.465,10.915-24.381,24.38-24.381s24.38,10.916,24.38,24.381"/>
	<g>
		<path opacity="0.2" fill="#231F20" stroke="#231F20" stroke-miterlimit="10" d="M410.806,125.262
			c0.339,8.217,7.11,14.775,15.412,14.775c8.28,0,15.029-6.516,15.408-14.701c0.014,0.241,0.018,0.484,0.018,0.726
			c0,8.521-2.883,19.317-15.425,19.317c-12.542,0-15.429-10.801-15.429-19.321C410.789,125.79,410.795,125.528,410.806,125.262z"/>
		<path opacity="0.2" fill="#FFFFFF" stroke="#FFFFFF" stroke-miterlimit="10" d="M426.227,109.512
			c8.521,0,15.429,6.909,15.429,15.43c0,0.219-0.007,0.438-0.018,0.654c-0.414-8.149-7.16-14.634-15.412-14.634
			c-8.301,0-15.068,6.555-15.408,14.771c-0.011-0.265-0.018-0.526-0.018-0.796C410.801,116.417,417.706,109.512,426.227,109.512z"/>
		<path opacity="0.1" fill="#FFFFFF" stroke="#FFFFFF" stroke-miterlimit="10" d="M426.16,139.577
			c-8.521,0-15.429-6.908-15.429-15.429c0-0.22,0.007-0.438,0.018-0.654c0.414,8.149,7.16,14.634,15.412,14.634
			c8.301,0,15.068-6.555,15.408-14.771c0.011,0.266,0.018,0.527,0.018,0.795C441.585,132.672,434.68,139.577,426.16,139.577z"/>
	</g>
</g>
<g>
	<circle fill="#1B75BC" stroke="#231F20" stroke-miterlimit="10" cx="476.193" cy="125.5" r="25"/>
	<path opacity="0.1" fill="none" stroke="#FFFFFF" stroke-width="2" stroke-miterlimit="10" d="M451.813,125.5
		c0-13.465,10.915-24.381,24.379-24.381s24.381,10.916,24.381,24.381"/>
	<g>
		<path opacity="0.2" fill="#231F20" stroke="#231F20" stroke-miterlimit="10" d="M460.806,125.262
			c0.34,8.217,7.111,14.775,15.412,14.775c8.279,0,15.029-6.516,15.408-14.701c0.014,0.241,0.018,0.484,0.018,0.726
			c0,8.521-2.883,19.317-15.426,19.317s-15.43-10.801-15.43-19.321C460.788,125.79,460.796,125.528,460.806,125.262z"/>
		<path opacity="0.2" fill="#FFFFFF" stroke="#FFFFFF" stroke-miterlimit="10" d="M476.228,109.512
			c8.52,0,15.428,6.909,15.428,15.43c0,0.219-0.006,0.438-0.018,0.654c-0.414-8.149-7.158-14.634-15.41-14.634
			c-8.303,0-15.07,6.555-15.408,14.771c-0.012-0.265-0.018-0.526-0.018-0.796C460.802,116.417,467.706,109.512,476.228,109.512z"/>
		<path opacity="0.1" fill="#FFFFFF" stroke="#FFFFFF" stroke-miterlimit="10" d="M476.159,139.577
			c-8.52,0-15.43-6.908-15.43-15.429c0-0.22,0.008-0.438,0.02-0.654c0.412,8.149,7.158,14.634,15.41,14.634
			c8.301,0,15.068-6.555,15.408-14.771c0.01,0.266,0.018,0.527,0.018,0.795C491.585,132.672,484.681,139.577,476.159,139.577z"/>
	</g>
</g>
<g>
	<circle fill="#8B5E3C" stroke="#231F20" stroke-miterlimit="10" cx="276.158" cy="25.5" r="25"/>
	<path opacity="0.1" fill="none" stroke="#FFFFFF" stroke-width="2" stroke-miterlimit="10" d="M251.777,25.5
		c0-13.465,10.916-24.38,24.38-24.38s24.38,10.916,24.38,24.38"/>
	<g>
		<path opacity="0.2" fill="#231F20" stroke="#231F20" stroke-miterlimit="10" d="M260.771,25.263
			c0.339,8.217,7.11,14.775,15.411,14.775c8.28,0,15.03-6.516,15.408-14.701c0.014,0.241,0.018,0.484,0.018,0.725
			c0,8.521-2.883,19.317-15.426,19.317c-12.542,0-15.429-10.8-15.429-19.321C260.753,25.79,260.76,25.528,260.771,25.263z"/>
		<path opacity="0.2" fill="#FFFFFF" stroke="#FFFFFF" stroke-miterlimit="10" d="M276.191,9.513
			c8.521,0,15.429,6.909,15.429,15.429c0,0.219-0.007,0.438-0.018,0.654c-0.414-8.149-7.159-14.634-15.411-14.634
			c-8.301,0-15.069,6.555-15.408,14.771c-0.01-0.265-0.018-0.527-0.018-0.795C260.766,16.417,267.671,9.513,276.191,9.513z"/>
		<path opacity="0.1" fill="#FFFFFF" stroke="#FFFFFF" stroke-miterlimit="10" d="M276.124,39.577
			c-8.521,0-15.429-6.909-15.429-15.429c0-0.219,0.007-0.438,0.018-0.654c0.414,8.149,7.159,14.634,15.411,14.634
			c8.301,0,15.068-6.555,15.408-14.771c0.01,0.265,0.018,0.527,0.018,0.795C291.55,32.672,284.645,39.577,276.124,39.577z"/>
	</g>
</g>
<g>
	<circle fill="#939598" stroke="#231F20" stroke-miterlimit="10" cx="326.158" cy="25.5" r="25"/>
	<path opacity="0.1" fill="none" stroke="#FFFFFF" stroke-width="2" stroke-miterlimit="10" d="M301.777,25.5
		c0-13.465,10.916-24.38,24.38-24.38s24.38,10.916,24.38,24.38"/>
	<g>
		<path opacity="0.2" fill="#231F20" stroke="#231F20" stroke-miterlimit="10" d="M310.771,25.263
			c0.339,8.217,7.11,14.775,15.411,14.775c8.28,0,15.03-6.516,15.408-14.701c0.014,0.241,0.018,0.484,0.018,0.725
			c0,8.521-2.883,19.317-15.426,19.317c-12.542,0-15.429-10.8-15.429-19.321C310.753,25.79,310.76,25.528,310.771,25.263z"/>
		<path opacity="0.2" fill="#FFFFFF" stroke="#FFFFFF" stroke-miterlimit="10" d="M326.191,9.513
			c8.521,0,15.429,6.909,15.429,15.429c0,0.219-0.007,0.438-0.018,0.654c-0.414-8.149-7.159-14.634-15.411-14.634
			c-8.301,0-15.069,6.555-15.408,14.771c-0.01-0.265-0.018-0.527-0.018-0.795C310.766,16.417,317.671,9.513,326.191,9.513z"/>
		<path opacity="0.1" fill="#FFFFFF" stroke="#FFFFFF" stroke-miterlimit="10" d="M326.124,39.577
			c-8.521,0-15.429-6.909-15.429-15.429c0-0.219,0.007-0.438,0.018-0.654c0.414,8.149,7.159,14.634,15.411,14.634
			c8.301,0,15.068-6.555,15.408-14.771c0.01,0.265,0.018,0.527,0.018,0.795C341.55,32.672,334.645,39.577,326.124,39.577z"/>
	</g>
</g>
<g>
	<circle fill="#6D6E71" stroke="#231F20" stroke-miterlimit="10" cx="376.158" cy="25.5" r="25"/>
	<path opacity="0.1" fill="none" stroke="#FFFFFF" stroke-width="2" stroke-miterlimit="10" d="M351.777,25.5
		c0-13.465,10.916-24.38,24.38-24.38s24.38,10.916,24.38,24.38"/>
	<g>
		<path opacity="0.2" fill="#231F20" stroke="#231F20" stroke-miterlimit="10" d="M360.771,25.263
			c0.339,8.217,7.11,14.775,15.411,14.775c8.28,0,15.03-6.516,15.408-14.701c0.014,0.241,0.018,0.484,0.018,0.725
			c0,8.521-2.883,19.317-15.426,19.317c-12.542,0-15.429-10.8-15.429-19.321C360.753,25.79,360.76,25.528,360.771,25.263z"/>
		<path opacity="0.2" fill="#FFFFFF" stroke="#FFFFFF" stroke-miterlimit="10" d="M376.191,9.513
			c8.521,0,15.429,6.909,15.429,15.429c0,0.219-0.007,0.438-0.018,0.654c-0.414-8.149-7.159-14.634-15.411-14.634
			c-8.301,0-15.069,6.555-15.408,14.771c-0.01-0.265-0.018-0.527-0.018-0.795C360.766,16.417,367.671,9.513,376.191,9.513z"/>
		<path opacity="0.1" fill="#FFFFFF" stroke="#FFFFFF" stroke-miterlimit="10" d="M376.124,39.577
			c-8.521,0-15.429-6.909-15.429-15.429c0-0.219,0.007-0.438,0.018-0.654c0.414,8.149,7.159,14.634,15.411,14.634
			c8.301,0,15.068-6.555,15.408-14.771c0.01,0.265,0.018,0.527,0.018,0.795C391.55,32.672,384.645,39.577,376.124,39.577z"/>
	</g>
</g>
<g>
	<circle fill="#E59CCF" stroke="#231F20" stroke-miterlimit="10" cx="426.158" cy="25.5" r="25"/>
	<path opacity="0.1" fill="none" stroke="#FFFFFF" stroke-width="2" stroke-miterlimit="10" d="M401.777,25.5
		c0-13.465,10.916-24.38,24.38-24.38s24.38,10.916,24.38,24.38"/>
	<g>
		<path opacity="0.2" fill="#231F20" stroke="#231F20" stroke-miterlimit="10" d="M410.771,25.263
			c0.339,8.217,7.11,14.775,15.411,14.775c8.28,0,15.03-6.516,15.408-14.701c0.014,0.241,0.018,0.484,0.018,0.725
			c0,8.521-2.883,19.317-15.426,19.317c-12.542,0-15.429-10.8-15.429-19.321C410.753,25.79,410.76,25.528,410.771,25.263z"/>
		<path opacity="0.2" fill="#FFFFFF" stroke="#FFFFFF" stroke-miterlimit="10" d="M426.191,9.513
			c8.521,0,15.429,6.909,15.429,15.429c0,0.219-0.007,0.438-0.018,0.654c-0.414-8.149-7.159-14.634-15.411-14.634
			c-8.301,0-15.069,6.555-15.408,14.771c-0.01-0.265-0.018-0.527-0.018-0.795C410.766,16.417,417.671,9.513,426.191,9.513z"/>
		<path opacity="0.1" fill="#FFFFFF" stroke="#FFFFFF" stroke-miterlimit="10" d="M426.124,39.577
			c-8.521,0-15.429-6.909-15.429-15.429c0-0.219,0.007-0.438,0.018-0.654c0.414,8.149,7.159,14.634,15.411,14.634
			c8.301,0,15.068-6.555,15.408-14.771c0.01,0.265,0.018,0.527,0.018,0.795C441.55,32.672,434.645,39.577,426.124,39.577z"/>
	</g>
</g>
<g>
	<circle fill="#D3BE00" stroke="#231F20" stroke-miterlimit="10" cx="476.157" cy="25.5" r="25"/>
	<path opacity="0.1" fill="none" stroke="#FFFFFF" stroke-width="2" stroke-miterlimit="10" d="M451.778,25.5
		c0-13.465,10.915-24.38,24.379-24.38s24.381,10.916,24.381,24.38"/>
	<g>
		<path opacity="0.2" fill="#231F20" stroke="#231F20" stroke-miterlimit="10" d="M460.771,25.263
			c0.34,8.217,7.109,14.775,15.412,14.775c8.279,0,15.029-6.516,15.408-14.701c0.014,0.241,0.018,0.484,0.018,0.725
			c0,8.521-2.885,19.317-15.426,19.317c-12.543,0-15.43-10.8-15.43-19.321C460.753,25.79,460.761,25.528,460.771,25.263z"/>
		<path opacity="0.2" fill="#FFFFFF" stroke="#FFFFFF" stroke-miterlimit="10" d="M476.19,9.513c8.521,0,15.43,6.909,15.43,15.429
			c0,0.219-0.006,0.438-0.018,0.654c-0.414-8.149-7.16-14.634-15.412-14.634c-8.301,0-15.068,6.555-15.406,14.771
			c-0.012-0.265-0.018-0.527-0.018-0.795C460.767,16.417,467.671,9.513,476.19,9.513z"/>
		<path opacity="0.1" fill="#FFFFFF" stroke="#FFFFFF" stroke-miterlimit="10" d="M476.124,39.577
			c-8.521,0-15.43-6.909-15.43-15.429c0-0.219,0.008-0.438,0.018-0.654c0.414,8.149,7.16,14.634,15.412,14.634
			c8.301,0,15.068-6.555,15.408-14.771c0.01,0.265,0.018,0.527,0.018,0.795C491.55,32.672,484.646,39.577,476.124,39.577z"/>
	</g>
</g>
<g>
	<circle fill="#939598" stroke="#231F20" stroke-miterlimit="10" cx="526.157" cy="25.5" r="25"/>
	<path opacity="0.1" fill="none" stroke="#FFFFFF" stroke-width="2" stroke-miterlimit="10" d="M501.778,25.5
		c0-13.465,10.914-24.38,24.379-24.38s24.381,10.916,24.381,24.38"/>
	<g>
		<path opacity="0.2" fill="#231F20" stroke="#231F20" stroke-miterlimit="10" d="M510.771,25.263
			c0.34,8.217,7.109,14.775,15.412,14.775c8.279,0,15.029-6.516,15.408-14.701c0.014,0.241,0.018,0.484,0.018,0.725
			c0,8.521-2.885,19.317-15.426,19.317c-12.543,0-15.43-10.8-15.43-19.321C510.753,25.79,510.761,25.528,510.771,25.263z"/>
		<path opacity="0.2" fill="#FFFFFF" stroke="#FFFFFF" stroke-miterlimit="10" d="M526.19,9.513c8.521,0,15.43,6.909,15.43,15.429
			c0,0.219-0.008,0.438-0.018,0.654c-0.414-8.149-7.16-14.634-15.412-14.634c-8.301,0-15.068,6.555-15.406,14.771
			c-0.012-0.265-0.018-0.527-0.018-0.795C510.767,16.417,517.671,9.513,526.19,9.513z"/>
		<path opacity="0.1" fill="#FFFFFF" stroke="#FFFFFF" stroke-miterlimit="10" d="M526.124,39.577
			c-8.521,0-15.43-6.909-15.43-15.429c0-0.219,0.008-0.438,0.018-0.654c0.414,8.149,7.16,14.634,15.412,14.634
			c8.301,0,15.068-6.555,15.408-14.771c0.01,0.265,0.018,0.527,0.018,0.795C541.55,32.672,534.646,39.577,526.124,39.577z"/>
	</g>
</g>
<g>
	<circle fill="#8B5E3C" stroke="#231F20" stroke-miterlimit="10" cx="576.157" cy="25.5" r="25"/>
	<path opacity="0.1" fill="none" stroke="#FFFFFF" stroke-width="2" stroke-miterlimit="10" d="M551.778,25.5
		c0-13.465,10.914-24.38,24.379-24.38s24.381,10.916,24.381,24.38"/>
	<g>
		<path opacity="0.2" fill="#231F20" stroke="#231F20" stroke-miterlimit="10" d="M560.771,25.263
			c0.34,8.217,7.109,14.775,15.412,14.775c8.279,0,15.029-6.516,15.408-14.701c0.014,0.241,0.018,0.484,0.018,0.725
			c0,8.521-2.885,19.317-15.426,19.317c-12.543,0-15.43-10.8-15.43-19.321C560.753,25.79,560.761,25.528,560.771,25.263z"/>
		<path opacity="0.2" fill="#FFFFFF" stroke="#FFFFFF" stroke-miterlimit="10" d="M576.19,9.513c8.521,0,15.43,6.909,15.43,15.429
			c0,0.219-0.008,0.438-0.018,0.654c-0.414-8.149-7.16-14.634-15.412-14.634c-8.301,0-15.068,6.555-15.406,14.771
			c-0.012-0.265-0.018-0.527-0.018-0.795C560.767,16.417,567.671,9.513,576.19,9.513z"/>
		<path opacity="0.1" fill="#FFFFFF" stroke="#FFFFFF" stroke-miterlimit="10" d="M576.124,39.577
			c-8.521,0-15.43-6.909-15.43-15.429c0-0.219,0.008-0.438,0.018-0.654c0.414,8.149,7.16,14.634,15.412,14.634
			c8.301,0,15.068-6.555,15.408-14.771c0.01,0.265,0.018,0.527,0.018,0.795C591.55,32.672,584.646,39.577,576.124,39.577z"/>
	</g>
</g>
<g>
	<circle fill="#F7941D" stroke="#231F20" stroke-miterlimit="10" cx="626.157" cy="25.5" r="25"/>
	<path opacity="0.1" fill="none" stroke="#FFFFFF" stroke-width="2" stroke-miterlimit="10" d="M601.778,25.5
		c0-13.465,10.914-24.38,24.379-24.38s24.381,10.916,24.381,24.38"/>
	<g>
		<path opacity="0.2" fill="#231F20" stroke="#231F20" stroke-miterlimit="10" d="M610.771,25.263
			c0.34,8.217,7.109,14.775,15.412,14.775c8.279,0,15.029-6.516,15.408-14.701c0.014,0.241,0.018,0.484,0.018,0.725
			c0,8.521-2.885,19.317-15.426,19.317c-12.543,0-15.43-10.8-15.43-19.321C610.753,25.79,610.761,25.528,610.771,25.263z"/>
		<path opacity="0.2" fill="#FFFFFF" stroke="#FFFFFF" stroke-miterlimit="10" d="M626.19,9.513c8.521,0,15.43,6.909,15.43,15.429
			c0,0.219-0.008,0.438-0.018,0.654c-0.414-8.149-7.16-14.634-15.412-14.634c-8.301,0-15.068,6.555-15.406,14.771
			c-0.012-0.265-0.018-0.527-0.018-0.795C610.767,16.417,617.671,9.513,626.19,9.513z"/>
		<path opacity="0.1" fill="#FFFFFF" stroke="#FFFFFF" stroke-miterlimit="10" d="M626.124,39.577
			c-8.521,0-15.43-6.909-15.43-15.429c0-0.219,0.008-0.438,0.018-0.654c0.414,8.149,7.16,14.634,15.412,14.634
			c8.301,0,15.068-6.555,15.408-14.771c0.01,0.265,0.018,0.527,0.018,0.795C641.55,32.672,634.646,39.577,626.124,39.577z"/>
	</g>
</g>
<g>
	<circle fill="#39B54A" stroke="#231F20" stroke-miterlimit="10" cx="676.157" cy="25.5" r="25"/>
	<path opacity="0.1" fill="none" stroke="#FFFFFF" stroke-width="2" stroke-miterlimit="10" d="M651.778,25.5
		c0-13.465,10.914-24.38,24.379-24.38s24.381,10.916,24.381,24.38"/>
	<g>
		<path opacity="0.2" fill="#231F20" stroke="#231F20" stroke-miterlimit="10" d="M660.771,25.263
			c0.34,8.217,7.109,14.775,15.412,14.775c8.279,0,15.029-6.516,15.408-14.701c0.014,0.241,0.018,0.484,0.018,0.725
			c0,8.521-2.885,19.317-15.426,19.317c-12.543,0-15.43-10.8-15.43-19.321C660.753,25.79,660.761,25.528,660.771,25.263z"/>
		<path opacity="0.2" fill="#FFFFFF" stroke="#FFFFFF" stroke-miterlimit="10" d="M676.19,9.513c8.521,0,15.43,6.909,15.43,15.429
			c0,0.219-0.008,0.438-0.018,0.654c-0.414-8.149-7.16-14.634-15.412-14.634c-8.301,0-15.068,6.555-15.406,14.771
			c-0.012-0.265-0.018-0.527-0.018-0.795C660.767,16.417,667.671,9.513,676.19,9.513z"/>
		<path opacity="0.1" fill="#FFFFFF" stroke="#FFFFFF" stroke-miterlimit="10" d="M676.124,39.577
			c-8.521,0-15.43-6.909-15.43-15.429c0-0.219,0.008-0.438,0.018-0.654c0.414,8.149,7.16,14.634,15.412,14.634
			c8.301,0,15.068-6.555,15.408-14.771c0.01,0.265,0.018,0.527,0.018,0.795C691.55,32.672,684.646,39.577,676.124,39.577z"/>
	</g>
</g>
<g>
	<circle fill="#EA3946" stroke="#231F20" stroke-miterlimit="10" cx="726.157" cy="25.5" r="25"/>
	<path opacity="0.1" fill="none" stroke="#FFFFFF" stroke-width="2" stroke-miterlimit="10" d="M701.778,25.5
		c0-13.465,10.914-24.38,24.379-24.38s24.381,10.916,24.381,24.38"/>
	<g>
		<path opacity="0.2" fill="#231F20" stroke="#231F20" stroke-miterlimit="10" d="M710.771,25.263
			c0.34,8.217,7.109,14.775,15.412,14.775c8.279,0,15.029-6.516,15.408-14.701c0.014,0.241,0.018,0.484,0.018,0.725
			c0,8.521-2.885,19.317-15.426,19.317c-12.543,0-15.43-10.8-15.43-19.321C710.753,25.79,710.761,25.528,710.771,25.263z"/>
		<path opacity="0.2" fill="#FFFFFF" stroke="#FFFFFF" stroke-miterlimit="10" d="M726.19,9.513c8.521,0,15.43,6.909,15.43,15.429
			c0,0.219-0.008,0.438-0.018,0.654c-0.414-8.149-7.16-14.634-15.412-14.634c-8.301,0-15.068,6.555-15.406,14.771
			c-0.012-0.265-0.018-0.527-0.018-0.795C710.767,16.417,717.671,9.513,726.19,9.513z"/>
		<path opacity="0.1" fill="#FFFFFF" stroke="#FFFFFF" stroke-miterlimit="10" d="M726.124,39.577
			c-8.521,0-15.43-6.909-15.43-15.429c0-0.219,0.008-0.438,0.018-0.654c0.414,8.149,7.16,14.634,15.412,14.634
			c8.301,0,15.068-6.555,15.408-14.771c0.01,0.265,0.018,0.527,0.018,0.795C741.55,32.672,734.646,39.577,726.124,39.577z"/>
	</g>
</g>
<g>
	<circle fill="#E59CCF" stroke="#231F20" stroke-miterlimit="10" cx="776.157" cy="25.5" r="25"/>
	<path opacity="0.1" fill="none" stroke="#FFFFFF" stroke-width="2" stroke-miterlimit="10" d="M751.778,25.5
		c0-13.465,10.914-24.38,24.379-24.38s24.381,10.916,24.381,24.38"/>
	<g>
		<path opacity="0.2" fill="#231F20" stroke="#231F20" stroke-miterlimit="10" d="M760.771,25.263
			c0.34,8.217,7.109,14.775,15.412,14.775c8.279,0,15.029-6.516,15.408-14.701c0.014,0.241,0.018,0.484,0.018,0.725
			c0,8.521-2.885,19.317-15.426,19.317c-12.543,0-15.43-10.8-15.43-19.321C760.753,25.79,760.761,25.528,760.771,25.263z"/>
		<path opacity="0.2" fill="#FFFFFF" stroke="#FFFFFF" stroke-miterlimit="10" d="M776.19,9.513c8.521,0,15.43,6.909,15.43,15.429
			c0,0.219-0.008,0.438-0.018,0.654c-0.414-8.149-7.16-14.634-15.412-14.634c-8.301,0-15.068,6.555-15.406,14.771
			c-0.012-0.265-0.018-0.527-0.018-0.795C760.767,16.417,767.671,9.513,776.19,9.513z"/>
		<path opacity="0.1" fill="#FFFFFF" stroke="#FFFFFF" stroke-miterlimit="10" d="M776.124,39.577
			c-8.521,0-15.43-6.909-15.43-15.429c0-0.219,0.008-0.438,0.018-0.654c0.414,8.149,7.16,14.634,15.412,14.634
			c8.301,0,15.068-6.555,15.408-14.771c0.01,0.265,0.018,0.527,0.018,0.795C791.55,32.672,784.646,39.577,776.124,39.577z"/>
	</g>
</g>
<g>
	<circle fill="#8B5E3C" stroke="#231F20" stroke-miterlimit="10" cx="826.157" cy="25.5" r="25"/>
	<path opacity="0.1" fill="none" stroke="#FFFFFF" stroke-width="2" stroke-miterlimit="10" d="M801.778,25.5
		c0-13.465,10.914-24.38,24.379-24.38s24.381,10.916,24.381,24.38"/>
	<g>
		<path opacity="0.2" fill="#231F20" stroke="#231F20" stroke-miterlimit="10" d="M810.771,25.263
			c0.34,8.217,7.109,14.775,15.412,14.775c8.279,0,15.029-6.516,15.408-14.701c0.014,0.241,0.018,0.484,0.018,0.725
			c0,8.521-2.885,19.317-15.426,19.317c-12.543,0-15.43-10.8-15.43-19.321C810.753,25.79,810.761,25.528,810.771,25.263z"/>
		<path opacity="0.2" fill="#FFFFFF" stroke="#FFFFFF" stroke-miterlimit="10" d="M826.19,9.513c8.521,0,15.43,6.909,15.43,15.429
			c0,0.219-0.008,0.438-0.018,0.654c-0.414-8.149-7.16-14.634-15.412-14.634c-8.301,0-15.068,6.555-15.406,14.771
			c-0.012-0.265-0.018-0.527-0.018-0.795C810.767,16.417,817.671,9.513,826.19,9.513z"/>
		<path opacity="0.1" fill="#FFFFFF" stroke="#FFFFFF" stroke-miterlimit="10" d="M826.124,39.577
			c-8.521,0-15.43-6.909-15.43-15.429c0-0.219,0.008-0.438,0.018-0.654c0.414,8.149,7.16,14.634,15.412,14.634
			c8.301,0,15.068-6.555,15.408-14.771c0.01,0.265,0.018,0.527,0.018,0.795C841.55,32.672,834.646,39.577,826.124,39.577z"/>
	</g>
</g>
<g>
	<circle fill="#939598" stroke="#231F20" stroke-miterlimit="10" cx="876.157" cy="25.5" r="25"/>
	<path opacity="0.1" fill="none" stroke="#FFFFFF" stroke-width="2" stroke-miterlimit="10" d="M851.778,25.5
		c0-13.465,10.914-24.38,24.379-24.38s24.381,10.916,24.381,24.38"/>
	<g>
		<path opacity="0.2" fill="#231F20" stroke="#231F20" stroke-miterlimit="10" d="M860.771,25.263
			c0.34,8.217,7.109,14.775,15.412,14.775c8.279,0,15.029-6.516,15.408-14.701c0.014,0.241,0.018,0.484,0.018,0.725
			c0,8.521-2.885,19.317-15.426,19.317c-12.543,0-15.43-10.8-15.43-19.321C860.753,25.79,860.761,25.528,860.771,25.263z"/>
		<path opacity="0.2" fill="#FFFFFF" stroke="#FFFFFF" stroke-miterlimit="10" d="M876.19,9.513c8.521,0,15.43,6.909,15.43,15.429
			c0,0.219-0.008,0.438-0.018,0.654c-0.414-8.149-7.16-14.634-15.412-14.634c-8.301,0-15.068,6.555-15.406,14.771
			c-0.012-0.265-0.018-0.527-0.018-0.795C860.767,16.417,867.671,9.513,876.19,9.513z"/>
		<path opacity="0.1" fill="#FFFFFF" stroke="#FFFFFF" stroke-miterlimit="10" d="M876.124,39.577
			c-8.521,0-15.43-6.909-15.43-15.429c0-0.219,0.008-0.438,0.018-0.654c0.414,8.149,7.16,14.634,15.412,14.634
			c8.301,0,15.068-6.555,15.408-14.771c0.01,0.265,0.018,0.527,0.018,0.795C891.55,32.672,884.646,39.577,876.124,39.577z"/>
	</g>
</g>
<g>
	<circle fill="#39B54A" stroke="#231F20" stroke-miterlimit="10" cx="526.192" cy="125.5" r="25"/>
	<path opacity="0.1" fill="none" stroke="#FFFFFF" stroke-width="2" stroke-miterlimit="10" d="M501.813,125.5
		c0-13.465,10.914-24.381,24.379-24.381s24.381,10.916,24.381,24.381"/>
	<g>
		<path opacity="0.2" fill="#231F20" stroke="#231F20" stroke-miterlimit="10" d="M510.806,125.262
			c0.34,8.217,7.111,14.775,15.412,14.775c8.279,0,15.029-6.516,15.408-14.701c0.014,0.241,0.018,0.484,0.018,0.726
			c0,8.521-2.883,19.317-15.426,19.317s-15.43-10.801-15.43-19.321C510.788,125.79,510.796,125.528,510.806,125.262z"/>
		<path opacity="0.2" fill="#FFFFFF" stroke="#FFFFFF" stroke-miterlimit="10" d="M526.228,109.512
			c8.52,0,15.428,6.909,15.428,15.43c0,0.219-0.006,0.438-0.018,0.654c-0.414-8.149-7.158-14.634-15.41-14.634
			c-8.303,0-15.07,6.555-15.408,14.771c-0.012-0.265-0.018-0.526-0.018-0.796C510.802,116.417,517.706,109.512,526.228,109.512z"/>
		<path opacity="0.1" fill="#FFFFFF" stroke="#FFFFFF" stroke-miterlimit="10" d="M526.159,139.577
			c-8.52,0-15.43-6.908-15.43-15.429c0-0.22,0.008-0.438,0.02-0.654c0.412,8.149,7.158,14.634,15.41,14.634
			c8.301,0,15.068-6.555,15.408-14.771c0.01,0.266,0.018,0.527,0.018,0.795C541.585,132.672,534.681,139.577,526.159,139.577z"/>
	</g>
</g>
<g>
	<circle fill="#39B54A" stroke="#231F20" stroke-miterlimit="10" cx="776.778" cy="125.967" r="25"/>
	<path opacity="0.1" fill="none" stroke="#FFFFFF" stroke-width="2" stroke-miterlimit="10" d="M752.397,125.967
		c0-13.465,10.914-24.38,24.381-24.38c13.465,0,24.379,10.915,24.379,24.38"/>
	<g>
		<path opacity="0.2" fill="#231F20" stroke="#231F20" stroke-miterlimit="10" d="M761.39,125.731
			c0.34,8.217,7.111,14.774,15.412,14.774c8.281,0,15.029-6.516,15.408-14.7c0.014,0.24,0.018,0.484,0.018,0.725
			c0,8.521-2.883,19.316-15.426,19.316s-15.43-10.799-15.43-19.32C761.372,126.257,761.38,125.996,761.39,125.731z"/>
		<path opacity="0.2" fill="#FFFFFF" stroke="#FFFFFF" stroke-miterlimit="10" d="M776.812,109.981
			c8.52,0,15.428,6.908,15.428,15.429c0,0.22-0.006,0.438-0.018,0.653c-0.412-8.148-7.158-14.633-15.41-14.633
			c-8.303,0-15.068,6.555-15.408,14.771c-0.012-0.266-0.018-0.527-0.018-0.795C761.386,116.885,768.29,109.981,776.812,109.981z"/>
		<path opacity="0.1" fill="#FFFFFF" stroke="#FFFFFF" stroke-miterlimit="10" d="M776.743,140.044
			c-8.52,0-15.428-6.908-15.428-15.429c0-0.219,0.006-0.438,0.018-0.654c0.412,8.149,7.158,14.634,15.41,14.634
			c8.303,0,15.068-6.556,15.408-14.771c0.012,0.265,0.018,0.526,0.018,0.796C792.169,133.139,785.265,140.044,776.743,140.044z"/>
	</g>
</g>
<g>
	<circle fill="#D3BE00" stroke="#231F20" stroke-miterlimit="10" cx="826.778" cy="125.967" r="25"/>
	<path opacity="0.1" fill="none" stroke="#FFFFFF" stroke-width="2" stroke-miterlimit="10" d="M802.397,125.967
		c0-13.465,10.914-24.38,24.381-24.38c13.465,0,24.379,10.915,24.379,24.38"/>
	<g>
		<path opacity="0.2" fill="#231F20" stroke="#231F20" stroke-miterlimit="10" d="M811.39,125.731
			c0.34,8.217,7.111,14.774,15.412,14.774c8.281,0,15.029-6.516,15.408-14.7c0.014,0.24,0.018,0.484,0.018,0.725
			c0,8.521-2.883,19.316-15.426,19.316s-15.43-10.799-15.43-19.32C811.372,126.257,811.38,125.996,811.39,125.731z"/>
		<path opacity="0.2" fill="#FFFFFF" stroke="#FFFFFF" stroke-miterlimit="10" d="M826.812,109.981
			c8.52,0,15.428,6.908,15.428,15.429c0,0.22-0.006,0.438-0.018,0.653c-0.412-8.148-7.158-14.633-15.41-14.633
			c-8.303,0-15.068,6.555-15.408,14.771c-0.012-0.266-0.018-0.527-0.018-0.795C811.386,116.885,818.29,109.981,826.812,109.981z"/>
		<path opacity="0.1" fill="#FFFFFF" stroke="#FFFFFF" stroke-miterlimit="10" d="M826.743,140.044
			c-8.52,0-15.428-6.908-15.428-15.429c0-0.219,0.006-0.438,0.018-0.654c0.412,8.149,7.158,14.634,15.41,14.634
			c8.303,0,15.068-6.556,15.408-14.771c0.012,0.265,0.018,0.526,0.018,0.796C842.169,133.139,835.265,140.044,826.743,140.044z"/>
	</g>
</g>
<g>
	<circle fill="#1B75BC" stroke="#231F20" stroke-miterlimit="10" cx="876.778" cy="125.967" r="25"/>
	<path opacity="0.1" fill="none" stroke="#FFFFFF" stroke-width="2" stroke-miterlimit="10" d="M852.397,125.967
		c0-13.465,10.914-24.38,24.381-24.38c13.465,0,24.379,10.915,24.379,24.38"/>
	<g>
		<path opacity="0.2" fill="#231F20" stroke="#231F20" stroke-miterlimit="10" d="M861.39,125.731
			c0.34,8.217,7.111,14.774,15.412,14.774c8.281,0,15.029-6.516,15.408-14.7c0.014,0.24,0.018,0.484,0.018,0.725
			c0,8.521-2.883,19.316-15.426,19.316s-15.43-10.799-15.43-19.32C861.372,126.257,861.38,125.996,861.39,125.731z"/>
		<path opacity="0.2" fill="#FFFFFF" stroke="#FFFFFF" stroke-miterlimit="10" d="M876.812,109.981
			c8.52,0,15.428,6.908,15.428,15.429c0,0.22-0.006,0.438-0.018,0.653c-0.412-8.148-7.158-14.633-15.41-14.633
			c-8.303,0-15.068,6.555-15.408,14.771c-0.012-0.266-0.018-0.527-0.018-0.795C861.386,116.885,868.29,109.981,876.812,109.981z"/>
		<path opacity="0.1" fill="#FFFFFF" stroke="#FFFFFF" stroke-miterlimit="10" d="M876.743,140.044
			c-8.52,0-15.428-6.908-15.428-15.429c0-0.219,0.006-0.438,0.018-0.654c0.412,8.149,7.158,14.634,15.41,14.634
			c8.303,0,15.068-6.556,15.408-14.771c0.012,0.265,0.018,0.526,0.018,0.796C892.169,133.139,885.265,140.044,876.743,140.044z"/>
	</g>
</g>
<g>
	<circle fill="#EA3946" stroke="#231F20" stroke-miterlimit="10" cx="576.192" cy="125.5" r="25"/>
	<path opacity="0.1" fill="none" stroke="#FFFFFF" stroke-width="2" stroke-miterlimit="10" d="M551.813,125.5
		c0-13.465,10.914-24.381,24.379-24.381s24.381,10.916,24.381,24.381"/>
	<g>
		<path opacity="0.2" fill="#231F20" stroke="#231F20" stroke-miterlimit="10" d="M560.806,125.262
			c0.34,8.217,7.111,14.775,15.412,14.775c8.279,0,15.029-6.516,15.408-14.701c0.014,0.241,0.018,0.484,0.018,0.726
			c0,8.521-2.883,19.317-15.426,19.317s-15.43-10.801-15.43-19.321C560.788,125.79,560.796,125.528,560.806,125.262z"/>
		<path opacity="0.2" fill="#FFFFFF" stroke="#FFFFFF" stroke-miterlimit="10" d="M576.228,109.512
			c8.52,0,15.428,6.909,15.428,15.43c0,0.219-0.006,0.438-0.018,0.654c-0.414-8.149-7.158-14.634-15.41-14.634
			c-8.303,0-15.07,6.555-15.408,14.771c-0.012-0.265-0.018-0.526-0.018-0.796C560.802,116.417,567.706,109.512,576.228,109.512z"/>
		<path opacity="0.1" fill="#FFFFFF" stroke="#FFFFFF" stroke-miterlimit="10" d="M576.159,139.577
			c-8.52,0-15.43-6.908-15.43-15.429c0-0.22,0.008-0.438,0.02-0.654c0.412,8.149,7.158,14.634,15.41,14.634
			c8.301,0,15.068-6.555,15.408-14.771c0.01,0.266,0.018,0.527,0.018,0.795C591.585,132.672,584.681,139.577,576.159,139.577z"/>
	</g>
</g>
<g>
	<circle fill="#E59CCF" stroke="#231F20" stroke-miterlimit="10" cx="626.192" cy="125.5" r="25"/>
	<path opacity="0.1" fill="none" stroke="#FFFFFF" stroke-width="2" stroke-miterlimit="10" d="M601.813,125.5
		c0-13.465,10.914-24.381,24.379-24.381s24.381,10.916,24.381,24.381"/>
	<g>
		<path opacity="0.2" fill="#231F20" stroke="#231F20" stroke-miterlimit="10" d="M610.806,125.262
			c0.34,8.217,7.111,14.775,15.412,14.775c8.279,0,15.029-6.516,15.408-14.701c0.014,0.241,0.018,0.484,0.018,0.726
			c0,8.521-2.883,19.317-15.426,19.317s-15.43-10.801-15.43-19.321C610.788,125.79,610.796,125.528,610.806,125.262z"/>
		<path opacity="0.2" fill="#FFFFFF" stroke="#FFFFFF" stroke-miterlimit="10" d="M626.228,109.512
			c8.52,0,15.428,6.909,15.428,15.43c0,0.219-0.006,0.438-0.018,0.654c-0.414-8.149-7.158-14.634-15.41-14.634
			c-8.303,0-15.07,6.555-15.408,14.771c-0.012-0.265-0.018-0.526-0.018-0.796C610.802,116.417,617.706,109.512,626.228,109.512z"/>
		<path opacity="0.1" fill="#FFFFFF" stroke="#FFFFFF" stroke-miterlimit="10" d="M626.159,139.577
			c-8.52,0-15.43-6.908-15.43-15.429c0-0.22,0.008-0.438,0.02-0.654c0.412,8.149,7.158,14.634,15.41,14.634
			c8.301,0,15.068-6.555,15.408-14.771c0.01,0.266,0.018,0.527,0.018,0.795C641.585,132.672,634.681,139.577,626.159,139.577z"/>
	</g>
</g>
<g>
	<circle fill="#8B5E3C" stroke="#231F20" stroke-miterlimit="10" cx="676.192" cy="125.5" r="25"/>
	<path opacity="0.1" fill="none" stroke="#FFFFFF" stroke-width="2" stroke-miterlimit="10" d="M651.813,125.5
		c0-13.465,10.914-24.381,24.379-24.381s24.381,10.916,24.381,24.381"/>
	<g>
		<path opacity="0.2" fill="#231F20" stroke="#231F20" stroke-miterlimit="10" d="M660.806,125.262
			c0.34,8.217,7.111,14.775,15.412,14.775c8.279,0,15.029-6.516,15.408-14.701c0.014,0.241,0.018,0.484,0.018,0.726
			c0,8.521-2.883,19.317-15.426,19.317s-15.43-10.801-15.43-19.321C660.788,125.79,660.796,125.528,660.806,125.262z"/>
		<path opacity="0.2" fill="#FFFFFF" stroke="#FFFFFF" stroke-miterlimit="10" d="M676.228,109.512
			c8.52,0,15.428,6.909,15.428,15.43c0,0.219-0.006,0.438-0.018,0.654c-0.414-8.149-7.158-14.634-15.41-14.634
			c-8.303,0-15.07,6.555-15.408,14.771c-0.012-0.265-0.018-0.526-0.018-0.796C660.802,116.417,667.706,109.512,676.228,109.512z"/>
		<path opacity="0.1" fill="#FFFFFF" stroke="#FFFFFF" stroke-miterlimit="10" d="M676.159,139.577
			c-8.52,0-15.43-6.908-15.43-15.429c0-0.22,0.008-0.438,0.02-0.654c0.412,8.149,7.158,14.634,15.41,14.634
			c8.301,0,15.068-6.555,15.408-14.771c0.01,0.266,0.018,0.527,0.018,0.795C691.585,132.672,684.681,139.577,676.159,139.577z"/>
	</g>
</g>
<g>
	<circle fill="#939598" stroke="#231F20" stroke-miterlimit="10" cx="726.192" cy="125.5" r="25"/>
	<path opacity="0.1" fill="none" stroke="#FFFFFF" stroke-width="2" stroke-miterlimit="10" d="M701.813,125.5
		c0-13.465,10.914-24.381,24.379-24.381s24.381,10.916,24.381,24.381"/>
	<g>
		<path opacity="0.2" fill="#231F20" stroke="#231F20" stroke-miterlimit="10" d="M710.806,125.262
			c0.34,8.217,7.111,14.775,15.412,14.775c8.279,0,15.029-6.516,15.408-14.701c0.014,0.241,0.018,0.484,0.018,0.726
			c0,8.521-2.883,19.317-15.426,19.317s-15.43-10.801-15.43-19.321C710.788,125.79,710.796,125.528,710.806,125.262z"/>
		<path opacity="0.2" fill="#FFFFFF" stroke="#FFFFFF" stroke-miterlimit="10" d="M726.228,109.512
			c8.52,0,15.428,6.909,15.428,15.43c0,0.219-0.006,0.438-0.018,0.654c-0.414-8.149-7.158-14.634-15.41-14.634
			c-8.303,0-15.07,6.555-15.408,14.771c-0.012-0.265-0.018-0.526-0.018-0.796C710.802,116.417,717.706,109.512,726.228,109.512z"/>
		<path opacity="0.1" fill="#FFFFFF" stroke="#FFFFFF" stroke-miterlimit="10" d="M726.159,139.577
			c-8.52,0-15.43-6.908-15.43-15.429c0-0.22,0.008-0.438,0.02-0.654c0.412,8.149,7.158,14.634,15.41,14.634
			c8.301,0,15.068-6.555,15.408-14.771c0.01,0.266,0.018,0.527,0.018,0.795C741.585,132.672,734.681,139.577,726.159,139.577z"/>
	</g>
</g>
<g>
	<circle fill="#009444" stroke="#231F20" stroke-miterlimit="10" cx="725.538" cy="75.5" r="25"/>
	<path opacity="0.1" fill="none" stroke="#FFFFFF" stroke-width="2" stroke-miterlimit="10" d="M701.157,75.5
		c0-13.465,10.916-24.38,24.381-24.38s24.381,10.916,24.381,24.38"/>
	<g>
		<path opacity="0.2" fill="#231F20" stroke="#231F20" stroke-miterlimit="10" d="M710.151,75.263
			c0.34,8.217,7.109,14.775,15.412,14.775c8.279,0,15.029-6.516,15.406-14.701c0.016,0.241,0.018,0.484,0.018,0.725
			c0,8.521-2.883,19.317-15.424,19.317c-12.543,0-15.43-10.8-15.43-19.321C710.134,75.79,710.14,75.528,710.151,75.263z"/>
		<path opacity="0.2" fill="#FFFFFF" stroke="#FFFFFF" stroke-miterlimit="10" d="M725.571,59.513c8.521,0,15.43,6.909,15.43,15.429
			c0,0.219-0.008,0.438-0.018,0.654c-0.414-8.149-7.16-14.634-15.412-14.634c-8.301,0-15.068,6.555-15.408,14.771
			c-0.01-0.265-0.018-0.527-0.018-0.795C710.146,66.417,717.052,59.513,725.571,59.513z"/>
		<path opacity="0.1" fill="#FFFFFF" stroke="#FFFFFF" stroke-miterlimit="10" d="M725.505,89.577
			c-8.521,0-15.43-6.909-15.43-15.429c0-0.219,0.008-0.438,0.018-0.654c0.414,8.149,7.16,14.634,15.412,14.634
			c8.301,0,15.068-6.555,15.408-14.771c0.01,0.265,0.018,0.527,0.018,0.795C740.931,82.672,734.024,89.577,725.505,89.577z"/>
	</g>
</g>
<g>
	<circle fill="#F7941D" stroke="#231F20" stroke-miterlimit="10" cx="775.538" cy="75.5" r="25"/>
	<path opacity="0.1" fill="none" stroke="#FFFFFF" stroke-width="2" stroke-miterlimit="10" d="M751.157,75.5
		c0-13.465,10.916-24.38,24.381-24.38s24.381,10.916,24.381,24.38"/>
	<g>
		<path opacity="0.2" fill="#231F20" stroke="#231F20" stroke-miterlimit="10" d="M760.151,75.263
			c0.34,8.217,7.109,14.775,15.412,14.775c8.279,0,15.029-6.516,15.406-14.701c0.016,0.241,0.018,0.484,0.018,0.725
			c0,8.521-2.883,19.317-15.424,19.317c-12.543,0-15.43-10.8-15.43-19.321C760.134,75.79,760.14,75.528,760.151,75.263z"/>
		<path opacity="0.2" fill="#FFFFFF" stroke="#FFFFFF" stroke-miterlimit="10" d="M775.571,59.513c8.521,0,15.43,6.909,15.43,15.429
			c0,0.219-0.008,0.438-0.018,0.654c-0.414-8.149-7.16-14.634-15.412-14.634c-8.301,0-15.068,6.555-15.408,14.771
			c-0.01-0.265-0.018-0.527-0.018-0.795C760.146,66.417,767.052,59.513,775.571,59.513z"/>
		<path opacity="0.1" fill="#FFFFFF" stroke="#FFFFFF" stroke-miterlimit="10" d="M775.505,89.577
			c-8.521,0-15.43-6.909-15.43-15.429c0-0.219,0.008-0.438,0.018-0.654c0.414,8.149,7.16,14.634,15.412,14.634
			c8.301,0,15.068-6.555,15.408-14.771c0.01,0.265,0.018,0.527,0.018,0.795C790.931,82.672,784.024,89.577,775.505,89.577z"/>
	</g>
</g>
<g>
	<circle fill="#39B54A" stroke="#231F20" stroke-miterlimit="10" cx="825.538" cy="75.5" r="25"/>
	<path opacity="0.1" fill="none" stroke="#FFFFFF" stroke-width="2" stroke-miterlimit="10" d="M801.157,75.5
		c0-13.465,10.916-24.38,24.381-24.38s24.381,10.916,24.381,24.38"/>
	<g>
		<path opacity="0.2" fill="#231F20" stroke="#231F20" stroke-miterlimit="10" d="M810.151,75.263
			c0.34,8.217,7.109,14.775,15.412,14.775c8.279,0,15.029-6.516,15.406-14.701c0.016,0.241,0.018,0.484,0.018,0.725
			c0,8.521-2.883,19.317-15.424,19.317c-12.543,0-15.43-10.8-15.43-19.321C810.134,75.79,810.14,75.528,810.151,75.263z"/>
		<path opacity="0.2" fill="#FFFFFF" stroke="#FFFFFF" stroke-miterlimit="10" d="M825.571,59.513c8.521,0,15.43,6.909,15.43,15.429
			c0,0.219-0.008,0.438-0.018,0.654c-0.414-8.149-7.16-14.634-15.412-14.634c-8.301,0-15.068,6.555-15.408,14.771
			c-0.01-0.265-0.018-0.527-0.018-0.795C810.146,66.417,817.052,59.513,825.571,59.513z"/>
		<path opacity="0.1" fill="#FFFFFF" stroke="#FFFFFF" stroke-miterlimit="10" d="M825.505,89.577
			c-8.521,0-15.43-6.909-15.43-15.429c0-0.219,0.008-0.438,0.018-0.654c0.414,8.149,7.16,14.634,15.412,14.634
			c8.301,0,15.068-6.555,15.408-14.771c0.01,0.265,0.018,0.527,0.018,0.795C840.931,82.672,834.024,89.577,825.505,89.577z"/>
	</g>
</g>
<g>
	<circle fill="#D3BE00" stroke="#231F20" stroke-miterlimit="10" cx="875.538" cy="75.5" r="25"/>
	<path opacity="0.1" fill="none" stroke="#FFFFFF" stroke-width="2" stroke-miterlimit="10" d="M851.157,75.5
		c0-13.465,10.916-24.38,24.381-24.38s24.381,10.916,24.381,24.38"/>
	<g>
		<path opacity="0.2" fill="#231F20" stroke="#231F20" stroke-miterlimit="10" d="M860.151,75.263
			c0.34,8.217,7.109,14.775,15.412,14.775c8.279,0,15.029-6.516,15.406-14.701c0.016,0.241,0.018,0.484,0.018,0.725
			c0,8.521-2.883,19.317-15.424,19.317c-12.543,0-15.43-10.8-15.43-19.321C860.134,75.79,860.14,75.528,860.151,75.263z"/>
		<path opacity="0.2" fill="#FFFFFF" stroke="#FFFFFF" stroke-miterlimit="10" d="M875.571,59.513c8.521,0,15.43,6.909,15.43,15.429
			c0,0.219-0.008,0.438-0.018,0.654c-0.414-8.149-7.16-14.634-15.412-14.634c-8.301,0-15.068,6.555-15.408,14.771
			c-0.01-0.265-0.018-0.527-0.018-0.795C860.146,66.417,867.052,59.513,875.571,59.513z"/>
		<path opacity="0.1" fill="#FFFFFF" stroke="#FFFFFF" stroke-miterlimit="10" d="M875.505,89.577
			c-8.521,0-15.43-6.909-15.43-15.429c0-0.219,0.008-0.438,0.018-0.654c0.414,8.149,7.16,14.634,15.412,14.634
			c8.301,0,15.068-6.555,15.408-14.771c0.01,0.265,0.018,0.527,0.018,0.795C890.931,82.672,884.024,89.577,875.505,89.577z"/>
	</g>
</g>
<g>
	<circle fill="#1B75BC" stroke="#231F20" stroke-miterlimit="10" cx="425.777" cy="75.5" r="25"/>
	<path opacity="0.1" fill="none" stroke="#FFFFFF" stroke-width="2" stroke-miterlimit="10" d="M401.396,75.5
		c0-13.465,10.915-24.38,24.38-24.38c13.465,0,24.38,10.916,24.38,24.38"/>
	<g>
		<path opacity="0.2" fill="#231F20" stroke="#231F20" stroke-miterlimit="10" d="M410.39,75.263
			c0.339,8.217,7.11,14.775,15.412,14.775c8.28,0,15.029-6.516,15.408-14.701c0.014,0.241,0.018,0.484,0.018,0.725
			c0,8.521-2.883,19.317-15.425,19.317c-12.542,0-15.429-10.8-15.429-19.321C410.372,75.79,410.379,75.528,410.39,75.263z"/>
		<path opacity="0.2" fill="#FFFFFF" stroke="#FFFFFF" stroke-miterlimit="10" d="M425.81,59.513
			c8.521,0,15.429,6.909,15.429,15.429c0,0.219-0.007,0.438-0.018,0.654c-0.414-8.149-7.16-14.634-15.412-14.634
			c-8.301,0-15.068,6.555-15.408,14.771c-0.011-0.265-0.018-0.527-0.018-0.795C410.385,66.417,417.29,59.513,425.81,59.513z"/>
		<path opacity="0.1" fill="#FFFFFF" stroke="#FFFFFF" stroke-miterlimit="10" d="M425.743,89.577
			c-8.521,0-15.429-6.909-15.429-15.429c0-0.219,0.007-0.438,0.018-0.654c0.414,8.149,7.16,14.634,15.412,14.634
			c8.301,0,15.068-6.555,15.408-14.771c0.011,0.265,0.018,0.527,0.018,0.795C441.168,82.672,434.264,89.577,425.743,89.577z"/>
	</g>
</g>
<g>
	<circle fill="#8B5E3C" stroke="#231F20" stroke-miterlimit="10" cx="475.777" cy="75.5" r="25"/>
	<path opacity="0.1" fill="none" stroke="#FFFFFF" stroke-width="2" stroke-miterlimit="10" d="M451.396,75.5
		c0-13.465,10.915-24.38,24.38-24.38s24.381,10.916,24.381,24.38"/>
	<g>
		<path opacity="0.2" fill="#231F20" stroke="#231F20" stroke-miterlimit="10" d="M460.39,75.263
			c0.34,8.217,7.109,14.775,15.412,14.775c8.279,0,15.029-6.516,15.408-14.701c0.014,0.241,0.018,0.484,0.018,0.725
			c0,8.521-2.885,19.317-15.426,19.317c-12.543,0-15.43-10.8-15.43-19.321C460.372,75.79,460.38,75.528,460.39,75.263z"/>
		<path opacity="0.2" fill="#FFFFFF" stroke="#FFFFFF" stroke-miterlimit="10" d="M475.81,59.513c8.521,0,15.43,6.909,15.43,15.429
			c0,0.219-0.008,0.438-0.018,0.654c-0.414-8.149-7.16-14.634-15.412-14.634c-8.301,0-15.068,6.555-15.408,14.771
			c-0.01-0.265-0.018-0.527-0.018-0.795C460.384,66.417,467.29,59.513,475.81,59.513z"/>
		<path opacity="0.1" fill="#FFFFFF" stroke="#FFFFFF" stroke-miterlimit="10" d="M475.743,89.577
			c-8.521,0-15.43-6.909-15.43-15.429c0-0.219,0.008-0.438,0.018-0.654c0.414,8.149,7.16,14.634,15.412,14.634
			c8.301,0,15.068-6.555,15.408-14.771c0.01,0.265,0.018,0.527,0.018,0.795C491.169,82.672,484.263,89.577,475.743,89.577z"/>
	</g>
</g>
<g>
	<circle fill="#939598" stroke="#231F20" stroke-miterlimit="10" cx="525.776" cy="75.5" r="25"/>
	<path opacity="0.1" fill="none" stroke="#FFFFFF" stroke-width="2" stroke-miterlimit="10" d="M501.396,75.5
		c0-13.465,10.916-24.38,24.381-24.38s24.381,10.916,24.381,24.38"/>
	<g>
		<path opacity="0.2" fill="#231F20" stroke="#231F20" stroke-miterlimit="10" d="M510.39,75.263
			c0.34,8.217,7.109,14.775,15.412,14.775c8.279,0,15.029-6.516,15.406-14.701c0.016,0.241,0.02,0.484,0.02,0.725
			c0,8.521-2.885,19.317-15.426,19.317c-12.543,0-15.43-10.8-15.43-19.321C510.372,75.79,510.38,75.528,510.39,75.263z"/>
		<path opacity="0.2" fill="#FFFFFF" stroke="#FFFFFF" stroke-miterlimit="10" d="M525.81,59.513c8.521,0,15.43,6.909,15.43,15.429
			c0,0.219-0.008,0.438-0.018,0.654c-0.414-8.149-7.16-14.634-15.412-14.634c-8.301,0-15.068,6.555-15.408,14.771
			c-0.01-0.265-0.018-0.527-0.018-0.795C510.384,66.417,517.29,59.513,525.81,59.513z"/>
		<path opacity="0.1" fill="#FFFFFF" stroke="#FFFFFF" stroke-miterlimit="10" d="M525.743,89.577
			c-8.521,0-15.43-6.909-15.43-15.429c0-0.219,0.008-0.438,0.018-0.654c0.414,8.149,7.16,14.634,15.412,14.634
			c8.301,0,15.068-6.555,15.408-14.771c0.01,0.265,0.018,0.527,0.018,0.795C541.169,82.672,534.263,89.577,525.743,89.577z"/>
	</g>
</g>
<g>
	<circle fill="#6D6E71" stroke="#231F20" stroke-miterlimit="10" cx="575.776" cy="75.5" r="25"/>
	<path opacity="0.1" fill="none" stroke="#FFFFFF" stroke-width="2" stroke-miterlimit="10" d="M551.396,75.5
		c0-13.465,10.916-24.38,24.381-24.38s24.381,10.916,24.381,24.38"/>
	<g>
		<path opacity="0.2" fill="#231F20" stroke="#231F20" stroke-miterlimit="10" d="M560.39,75.263
			c0.34,8.217,7.109,14.775,15.412,14.775c8.279,0,15.029-6.516,15.406-14.701c0.016,0.241,0.02,0.484,0.02,0.725
			c0,8.521-2.885,19.317-15.426,19.317c-12.543,0-15.43-10.8-15.43-19.321C560.372,75.79,560.38,75.528,560.39,75.263z"/>
		<path opacity="0.2" fill="#FFFFFF" stroke="#FFFFFF" stroke-miterlimit="10" d="M575.81,59.513c8.521,0,15.43,6.909,15.43,15.429
			c0,0.219-0.008,0.438-0.018,0.654c-0.414-8.149-7.16-14.634-15.412-14.634c-8.301,0-15.068,6.555-15.408,14.771
			c-0.01-0.265-0.018-0.527-0.018-0.795C560.384,66.417,567.29,59.513,575.81,59.513z"/>
		<path opacity="0.1" fill="#FFFFFF" stroke="#FFFFFF" stroke-miterlimit="10" d="M575.743,89.577
			c-8.521,0-15.43-6.909-15.43-15.429c0-0.219,0.008-0.438,0.018-0.654c0.414,8.149,7.16,14.634,15.412,14.634
			c8.301,0,15.068-6.555,15.408-14.771c0.01,0.265,0.018,0.527,0.018,0.795C591.169,82.672,584.263,89.577,575.743,89.577z"/>
	</g>
</g>
<g>
	<circle fill="#E59CCF" stroke="#231F20" stroke-miterlimit="10" cx="625.776" cy="75.5" r="25"/>
	<path opacity="0.1" fill="none" stroke="#FFFFFF" stroke-width="2" stroke-miterlimit="10" d="M601.396,75.5
		c0-13.465,10.916-24.38,24.381-24.38s24.381,10.916,24.381,24.38"/>
	<g>
		<path opacity="0.2" fill="#231F20" stroke="#231F20" stroke-miterlimit="10" d="M610.39,75.263
			c0.34,8.217,7.109,14.775,15.412,14.775c8.279,0,15.029-6.516,15.406-14.701c0.016,0.241,0.02,0.484,0.02,0.725
			c0,8.521-2.885,19.317-15.426,19.317c-12.543,0-15.43-10.8-15.43-19.321C610.372,75.79,610.38,75.528,610.39,75.263z"/>
		<path opacity="0.2" fill="#FFFFFF" stroke="#FFFFFF" stroke-miterlimit="10" d="M625.81,59.513c8.521,0,15.43,6.909,15.43,15.429
			c0,0.219-0.008,0.438-0.018,0.654c-0.414-8.149-7.16-14.634-15.412-14.634c-8.301,0-15.068,6.555-15.408,14.771
			c-0.01-0.265-0.018-0.527-0.018-0.795C610.384,66.417,617.29,59.513,625.81,59.513z"/>
		<path opacity="0.1" fill="#FFFFFF" stroke="#FFFFFF" stroke-miterlimit="10" d="M625.743,89.577
			c-8.521,0-15.43-6.909-15.43-15.429c0-0.219,0.008-0.438,0.018-0.654c0.414,8.149,7.16,14.634,15.412,14.634
			c8.301,0,15.068-6.555,15.408-14.771c0.01,0.265,0.018,0.527,0.018,0.795C641.169,82.672,634.263,89.577,625.743,89.577z"/>
	</g>
</g>
<g>
	<circle fill="#D3BE00" stroke="#231F20" stroke-miterlimit="10" cx="675.776" cy="75.5" r="25"/>
	<path opacity="0.1" fill="none" stroke="#FFFFFF" stroke-width="2" stroke-miterlimit="10" d="M651.396,75.5
		c0-13.465,10.916-24.38,24.381-24.38s24.381,10.916,24.381,24.38"/>
	<g>
		<path opacity="0.2" fill="#231F20" stroke="#231F20" stroke-miterlimit="10" d="M660.39,75.263
			c0.34,8.217,7.109,14.775,15.412,14.775c8.279,0,15.029-6.516,15.406-14.701c0.016,0.241,0.02,0.484,0.02,0.725
			c0,8.521-2.885,19.317-15.426,19.317c-12.543,0-15.43-10.8-15.43-19.321C660.372,75.79,660.38,75.528,660.39,75.263z"/>
		<path opacity="0.2" fill="#FFFFFF" stroke="#FFFFFF" stroke-miterlimit="10" d="M675.81,59.513c8.521,0,15.43,6.909,15.43,15.429
			c0,0.219-0.008,0.438-0.018,0.654c-0.414-8.149-7.16-14.634-15.412-14.634c-8.301,0-15.068,6.555-15.408,14.771
			c-0.01-0.265-0.018-0.527-0.018-0.795C660.384,66.417,667.29,59.513,675.81,59.513z"/>
		<path opacity="0.1" fill="#FFFFFF" stroke="#FFFFFF" stroke-miterlimit="10" d="M675.743,89.577
			c-8.521,0-15.43-6.909-15.43-15.429c0-0.219,0.008-0.438,0.018-0.654c0.414,8.149,7.16,14.634,15.412,14.634
			c8.301,0,15.068-6.555,15.408-14.771c0.01,0.265,0.018,0.527,0.018,0.795C691.169,82.672,684.263,89.577,675.743,89.577z"/>
	</g>
</g>
<g>
	<circle fill="#009444" stroke="#231F20" stroke-miterlimit="10" cx="174.799" cy="125.5" r="25"/>
	<path opacity="0.1" fill="none" stroke="#FFFFFF" stroke-width="2" stroke-miterlimit="10" d="M150.419,125.5
		c0-13.465,10.915-24.381,24.38-24.381c13.465,0,24.38,10.916,24.38,24.381"/>
	<g>
		<path opacity="0.2" fill="#231F20" stroke="#231F20" stroke-miterlimit="10" d="M159.412,125.262
			c0.339,8.217,7.11,14.775,15.412,14.775c8.28,0,15.029-6.516,15.408-14.701c0.014,0.241,0.018,0.484,0.018,0.726
			c0,8.521-2.883,19.317-15.425,19.317c-12.542,0-15.429-10.801-15.429-19.321C159.395,125.79,159.402,125.528,159.412,125.262z"/>
		<path opacity="0.2" fill="#FFFFFF" stroke="#FFFFFF" stroke-miterlimit="10" d="M174.833,109.512
			c8.521,0,15.429,6.909,15.429,15.43c0,0.219-0.007,0.438-0.018,0.654c-0.414-8.149-7.16-14.634-15.412-14.634
			c-8.301,0-15.068,6.555-15.408,14.771c-0.011-0.265-0.018-0.526-0.018-0.796C159.407,116.417,166.312,109.512,174.833,109.512z"/>
		<path opacity="0.1" fill="#FFFFFF" stroke="#FFFFFF" stroke-miterlimit="10" d="M174.766,139.577
			c-8.521,0-15.429-6.908-15.429-15.429c0-0.22,0.007-0.438,0.018-0.654c0.414,8.149,7.16,14.634,15.412,14.634
			c8.301,0,15.068-6.555,15.408-14.771c0.011,0.266,0.018,0.527,0.018,0.795C190.191,132.672,183.286,139.577,174.766,139.577z"/>
	</g>
</g>
<g>
	<circle fill="#F7941D" stroke="#231F20" stroke-miterlimit="10" cx="224.799" cy="125.5" r="25"/>
	<path opacity="0.1" fill="none" stroke="#FFFFFF" stroke-width="2" stroke-miterlimit="10" d="M200.419,125.5
		c0-13.465,10.915-24.381,24.38-24.381c13.465,0,24.38,10.916,24.38,24.381"/>
	<g>
		<path opacity="0.2" fill="#231F20" stroke="#231F20" stroke-miterlimit="10" d="M209.412,125.262
			c0.339,8.217,7.11,14.775,15.412,14.775c8.28,0,15.029-6.516,15.408-14.701c0.014,0.241,0.018,0.484,0.018,0.726
			c0,8.521-2.883,19.317-15.425,19.317c-12.542,0-15.429-10.801-15.429-19.321C209.395,125.79,209.402,125.528,209.412,125.262z"/>
		<path opacity="0.2" fill="#FFFFFF" stroke="#FFFFFF" stroke-miterlimit="10" d="M224.833,109.512
			c8.521,0,15.429,6.909,15.429,15.43c0,0.219-0.007,0.438-0.018,0.654c-0.414-8.149-7.16-14.634-15.412-14.634
			c-8.301,0-15.068,6.555-15.408,14.771c-0.011-0.265-0.018-0.526-0.018-0.796C209.407,116.417,216.312,109.512,224.833,109.512z"/>
		<path opacity="0.1" fill="#FFFFFF" stroke="#FFFFFF" stroke-miterlimit="10" d="M224.766,139.577
			c-8.521,0-15.429-6.908-15.429-15.429c0-0.22,0.007-0.438,0.018-0.654c0.414,8.149,7.16,14.634,15.412,14.634
			c8.301,0,15.068-6.555,15.408-14.771c0.011,0.266,0.018,0.527,0.018,0.795C240.191,132.672,233.286,139.577,224.766,139.577z"/>
	</g>
</g>
<g>
	<circle fill="#E59CCF" stroke="#231F20" stroke-miterlimit="10" cx="75.038" cy="125.5" r="25"/>
	<path opacity="0.1" fill="none" stroke="#FFFFFF" stroke-width="2" stroke-miterlimit="10" d="M50.657,125.5
		c0-13.465,10.916-24.381,24.38-24.381s24.38,10.916,24.38,24.381"/>
	<g>
		<path opacity="0.2" fill="#231F20" stroke="#231F20" stroke-miterlimit="10" d="M59.651,125.262
			c0.339,8.217,7.11,14.775,15.411,14.775c8.28,0,15.03-6.516,15.408-14.701c0.014,0.241,0.018,0.484,0.018,0.726
			c0,8.521-2.883,19.317-15.426,19.317c-12.542,0-15.429-10.801-15.429-19.321C59.633,125.79,59.64,125.528,59.651,125.262z"/>
		<path opacity="0.2" fill="#FFFFFF" stroke="#FFFFFF" stroke-miterlimit="10" d="M75.071,109.512
			c8.521,0,15.429,6.909,15.429,15.43c0,0.219-0.007,0.438-0.018,0.654c-0.414-8.149-7.159-14.634-15.411-14.634
			c-8.301,0-15.068,6.555-15.408,14.771c-0.01-0.265-0.018-0.526-0.018-0.796C59.646,116.417,66.551,109.512,75.071,109.512z"/>
		<path opacity="0.1" fill="#FFFFFF" stroke="#FFFFFF" stroke-miterlimit="10" d="M75.004,139.577
			c-8.521,0-15.429-6.908-15.429-15.429c0-0.22,0.007-0.438,0.018-0.654c0.414,8.149,7.159,14.634,15.411,14.634
			c8.301,0,15.069-6.555,15.408-14.771c0.01,0.266,0.018,0.527,0.018,0.795C90.43,132.672,83.524,139.577,75.004,139.577z"/>
	</g>
</g>
<g>
	<circle fill="#D3BE00" stroke="#231F20" stroke-miterlimit="10" cx="125.038" cy="125.5" r="25"/>
	<path opacity="0.1" fill="none" stroke="#FFFFFF" stroke-width="2" stroke-miterlimit="10" d="M100.657,125.5
		c0-13.465,10.916-24.381,24.38-24.381s24.38,10.916,24.38,24.381"/>
	<g>
		<path opacity="0.2" fill="#231F20" stroke="#231F20" stroke-miterlimit="10" d="M109.651,125.262
			c0.339,8.217,7.11,14.775,15.411,14.775c8.28,0,15.03-6.516,15.408-14.701c0.014,0.241,0.018,0.484,0.018,0.726
			c0,8.521-2.883,19.317-15.426,19.317c-12.542,0-15.429-10.801-15.429-19.321C109.633,125.79,109.64,125.528,109.651,125.262z"/>
		<path opacity="0.2" fill="#FFFFFF" stroke="#FFFFFF" stroke-miterlimit="10" d="M125.071,109.512
			c8.521,0,15.429,6.909,15.429,15.43c0,0.219-0.007,0.438-0.018,0.654c-0.414-8.149-7.159-14.634-15.411-14.634
			c-8.301,0-15.068,6.555-15.408,14.771c-0.01-0.265-0.018-0.526-0.018-0.796C109.646,116.417,116.551,109.512,125.071,109.512z"/>
		<path opacity="0.1" fill="#FFFFFF" stroke="#FFFFFF" stroke-miterlimit="10" d="M125.004,139.577
			c-8.521,0-15.429-6.908-15.429-15.429c0-0.22,0.007-0.438,0.018-0.654c0.414,8.149,7.159,14.634,15.411,14.634
			c8.301,0,15.069-6.555,15.408-14.771c0.01,0.266,0.018,0.527,0.018,0.795C140.43,132.672,133.524,139.577,125.004,139.577z"/>
	</g>
</g>
<g>
	<circle fill="#939598" stroke="#231F20" stroke-miterlimit="10" cx="25.538" cy="75.5" r="25"/>
	<path opacity="0.1" fill="none" stroke="#FFFFFF" stroke-width="2" stroke-miterlimit="10" d="M1.158,75.5
		c0-13.465,10.916-24.38,24.38-24.38s24.38,10.916,24.38,24.38"/>
	<g>
		<path opacity="0.2" fill="#231F20" stroke="#231F20" stroke-miterlimit="10" d="M10.151,75.263
			c0.339,8.217,7.11,14.775,15.411,14.775c8.28,0,15.03-6.516,15.408-14.701c0.014,0.241,0.018,0.484,0.018,0.725
			c0,8.521-2.884,19.317-15.426,19.317s-15.429-10.8-15.429-19.321C10.133,75.79,10.141,75.528,10.151,75.263z"/>
		<path opacity="0.2" fill="#FFFFFF" stroke="#FFFFFF" stroke-miterlimit="10" d="M25.572,59.513C34.092,59.513,41,66.421,41,74.942
			c0,0.219-0.007,0.438-0.018,0.654c-0.414-8.149-7.159-14.634-15.411-14.634c-8.302,0-15.069,6.555-15.408,14.771
			c-0.01-0.265-0.018-0.527-0.018-0.795C10.146,66.417,17.051,59.513,25.572,59.513z"/>
		<path opacity="0.1" fill="#FFFFFF" stroke="#FFFFFF" stroke-miterlimit="10" d="M25.504,89.577
			c-8.521,0-15.429-6.909-15.429-15.429c0-0.219,0.007-0.438,0.018-0.654c0.414,8.149,7.159,14.634,15.411,14.634
			c8.301,0,15.068-6.555,15.408-14.771c0.011,0.265,0.018,0.527,0.018,0.795C40.93,82.672,34.025,89.577,25.504,89.577z"/>
	</g>
</g>
<g>
	<circle fill="#8B5E3C" stroke="#231F20" stroke-miterlimit="10" cx="75.538" cy="75.5" r="25"/>
	<path opacity="0.1" fill="none" stroke="#FFFFFF" stroke-width="2" stroke-miterlimit="10" d="M51.158,75.5
		c0-13.465,10.916-24.38,24.38-24.38s24.38,10.916,24.38,24.38"/>
	<g>
		<path opacity="0.2" fill="#231F20" stroke="#231F20" stroke-miterlimit="10" d="M60.151,75.263
			c0.339,8.217,7.11,14.775,15.411,14.775c8.28,0,15.03-6.516,15.408-14.701c0.014,0.241,0.018,0.484,0.018,0.725
			c0,8.521-2.884,19.317-15.426,19.317s-15.429-10.8-15.429-19.321C60.133,75.79,60.141,75.528,60.151,75.263z"/>
		<path opacity="0.2" fill="#FFFFFF" stroke="#FFFFFF" stroke-miterlimit="10" d="M75.572,59.513C84.092,59.513,91,66.421,91,74.942
			c0,0.219-0.007,0.438-0.018,0.654c-0.414-8.149-7.159-14.634-15.411-14.634c-8.302,0-15.069,6.555-15.408,14.771
			c-0.01-0.265-0.018-0.527-0.018-0.795C60.146,66.417,67.051,59.513,75.572,59.513z"/>
		<path opacity="0.1" fill="#FFFFFF" stroke="#FFFFFF" stroke-miterlimit="10" d="M75.504,89.577
			c-8.521,0-15.429-6.909-15.429-15.429c0-0.219,0.007-0.438,0.018-0.654c0.414,8.149,7.16,14.634,15.412,14.634
			c8.301,0,15.068-6.555,15.408-14.771c0.011,0.265,0.018,0.527,0.018,0.795C90.93,82.672,84.025,89.577,75.504,89.577z"/>
	</g>
</g>
<g>
	<circle fill="#F7941D" stroke="#231F20" stroke-miterlimit="10" cx="125.538" cy="75.5" r="25"/>
	<path opacity="0.1" fill="none" stroke="#FFFFFF" stroke-width="2" stroke-miterlimit="10" d="M101.158,75.5
		c0-13.465,10.916-24.38,24.38-24.38s24.38,10.916,24.38,24.38"/>
	<g>
		<path opacity="0.2" fill="#231F20" stroke="#231F20" stroke-miterlimit="10" d="M110.151,75.263
			c0.339,8.217,7.11,14.775,15.411,14.775c8.28,0,15.03-6.516,15.408-14.701c0.014,0.241,0.018,0.484,0.018,0.725
			c0,8.521-2.884,19.317-15.426,19.317s-15.429-10.8-15.429-19.321C110.133,75.79,110.141,75.528,110.151,75.263z"/>
		<path opacity="0.2" fill="#FFFFFF" stroke="#FFFFFF" stroke-miterlimit="10" d="M125.572,59.513
			c8.521,0,15.429,6.909,15.429,15.429c0,0.219-0.007,0.438-0.018,0.654c-0.414-8.149-7.159-14.634-15.411-14.634
			c-8.302,0-15.069,6.555-15.408,14.771c-0.01-0.265-0.018-0.527-0.018-0.795C110.146,66.417,117.051,59.513,125.572,59.513z"/>
		<path opacity="0.1" fill="#FFFFFF" stroke="#FFFFFF" stroke-miterlimit="10" d="M125.504,89.577
			c-8.521,0-15.429-6.909-15.429-15.429c0-0.219,0.007-0.438,0.018-0.654c0.414,8.149,7.16,14.634,15.412,14.634
			c8.301,0,15.068-6.555,15.408-14.771c0.011,0.265,0.018,0.527,0.018,0.795C140.93,82.672,134.025,89.577,125.504,89.577z"/>
	</g>
</g>
<g>
	<circle fill="#39B54A" stroke="#231F20" stroke-miterlimit="10" cx="175.538" cy="75.5" r="25"/>
	<path opacity="0.1" fill="none" stroke="#FFFFFF" stroke-width="2" stroke-miterlimit="10" d="M151.158,75.5
		c0-13.465,10.916-24.38,24.38-24.38s24.38,10.916,24.38,24.38"/>
	<g>
		<path opacity="0.2" fill="#231F20" stroke="#231F20" stroke-miterlimit="10" d="M160.151,75.263
			c0.339,8.217,7.11,14.775,15.411,14.775c8.28,0,15.03-6.516,15.408-14.701c0.014,0.241,0.018,0.484,0.018,0.725
			c0,8.521-2.884,19.317-15.426,19.317s-15.429-10.8-15.429-19.321C160.133,75.79,160.141,75.528,160.151,75.263z"/>
		<path opacity="0.2" fill="#FFFFFF" stroke="#FFFFFF" stroke-miterlimit="10" d="M175.572,59.513
			c8.521,0,15.429,6.909,15.429,15.429c0,0.219-0.007,0.438-0.018,0.654c-0.414-8.149-7.159-14.634-15.411-14.634
			c-8.302,0-15.069,6.555-15.408,14.771c-0.01-0.265-0.018-0.527-0.018-0.795C160.146,66.417,167.051,59.513,175.572,59.513z"/>
		<path opacity="0.1" fill="#FFFFFF" stroke="#FFFFFF" stroke-miterlimit="10" d="M175.504,89.577
			c-8.521,0-15.429-6.909-15.429-15.429c0-0.219,0.007-0.438,0.018-0.654c0.414,8.149,7.159,14.634,15.411,14.634
			c8.301,0,15.068-6.555,15.408-14.771c0.011,0.265,0.018,0.527,0.018,0.795C190.93,82.672,184.025,89.577,175.504,89.577z"/>
	</g>
</g>
<g>
	<circle fill="#EA3946" stroke="#231F20" stroke-miterlimit="10" cx="225.538" cy="75.5" r="25"/>
	<path opacity="0.1" fill="none" stroke="#FFFFFF" stroke-width="2" stroke-miterlimit="10" d="M201.158,75.5
		c0-13.465,10.916-24.38,24.38-24.38s24.38,10.916,24.38,24.38"/>
	<g>
		<path opacity="0.2" fill="#231F20" stroke="#231F20" stroke-miterlimit="10" d="M210.151,75.263
			c0.339,8.217,7.11,14.775,15.411,14.775c8.28,0,15.03-6.516,15.408-14.701c0.014,0.241,0.018,0.484,0.018,0.725
			c0,8.521-2.884,19.317-15.426,19.317s-15.429-10.8-15.429-19.321C210.133,75.79,210.141,75.528,210.151,75.263z"/>
		<path opacity="0.2" fill="#FFFFFF" stroke="#FFFFFF" stroke-miterlimit="10" d="M225.572,59.513
			c8.521,0,15.429,6.909,15.429,15.429c0,0.219-0.007,0.438-0.018,0.654c-0.414-8.149-7.159-14.634-15.411-14.634
			c-8.302,0-15.069,6.555-15.408,14.771c-0.01-0.265-0.018-0.527-0.018-0.795C210.146,66.417,217.051,59.513,225.572,59.513z"/>
		<path opacity="0.1" fill="#FFFFFF" stroke="#FFFFFF" stroke-miterlimit="10" d="M225.504,89.577
			c-8.521,0-15.429-6.909-15.429-15.429c0-0.219,0.007-0.438,0.018-0.654c0.414,8.149,7.16,14.634,15.412,14.634
			c8.301,0,15.068-6.555,15.408-14.771c0.011,0.265,0.018,0.527,0.018,0.795C240.93,82.672,234.025,89.577,225.504,89.577z"/>
	</g>
</g>
<g>
	<circle fill="#E59CCF" stroke="#231F20" stroke-miterlimit="10" cx="275.538" cy="75.5" r="25"/>
	<path opacity="0.1" fill="none" stroke="#FFFFFF" stroke-width="2" stroke-miterlimit="10" d="M251.158,75.5
		c0-13.465,10.916-24.38,24.38-24.38s24.38,10.916,24.38,24.38"/>
	<g>
		<path opacity="0.2" fill="#231F20" stroke="#231F20" stroke-miterlimit="10" d="M260.151,75.263
			c0.339,8.217,7.11,14.775,15.411,14.775c8.28,0,15.03-6.516,15.408-14.701c0.015,0.241,0.018,0.484,0.018,0.725
			c0,8.521-2.883,19.317-15.426,19.317c-12.542,0-15.429-10.8-15.429-19.321C260.133,75.79,260.141,75.528,260.151,75.263z"/>
		<path opacity="0.2" fill="#FFFFFF" stroke="#FFFFFF" stroke-miterlimit="10" d="M275.572,59.513
			c8.521,0,15.429,6.909,15.429,15.429c0,0.219-0.007,0.438-0.018,0.654c-0.414-8.149-7.159-14.634-15.411-14.634
			c-8.302,0-15.069,6.555-15.408,14.771c-0.01-0.265-0.018-0.527-0.018-0.795C260.146,66.417,267.051,59.513,275.572,59.513z"/>
		<path opacity="0.1" fill="#FFFFFF" stroke="#FFFFFF" stroke-miterlimit="10" d="M275.504,89.577
			c-8.521,0-15.429-6.909-15.429-15.429c0-0.219,0.007-0.438,0.018-0.654c0.414,8.149,7.159,14.634,15.411,14.634
			c8.301,0,15.068-6.555,15.408-14.771c0.011,0.265,0.018,0.527,0.018,0.795C290.93,82.672,284.025,89.577,275.504,89.577z"/>
	</g>
</g>
<g>
	<circle fill="#8B5E3C" stroke="#231F20" stroke-miterlimit="10" cx="325.538" cy="75.5" r="25"/>
	<path opacity="0.1" fill="none" stroke="#FFFFFF" stroke-width="2" stroke-miterlimit="10" d="M301.158,75.5
		c0-13.465,10.916-24.38,24.38-24.38s24.38,10.916,24.38,24.38"/>
	<g>
		<path opacity="0.2" fill="#231F20" stroke="#231F20" stroke-miterlimit="10" d="M310.151,75.263
			c0.339,8.217,7.11,14.775,15.411,14.775c8.28,0,15.03-6.516,15.408-14.701c0.015,0.241,0.018,0.484,0.018,0.725
			c0,8.521-2.883,19.317-15.426,19.317c-12.542,0-15.429-10.8-15.429-19.321C310.133,75.79,310.141,75.528,310.151,75.263z"/>
		<path opacity="0.2" fill="#FFFFFF" stroke="#FFFFFF" stroke-miterlimit="10" d="M325.572,59.513
			c8.521,0,15.429,6.909,15.429,15.429c0,0.219-0.007,0.438-0.018,0.654c-0.414-8.149-7.159-14.634-15.411-14.634
			c-8.302,0-15.069,6.555-15.408,14.771c-0.01-0.265-0.018-0.527-0.018-0.795C310.146,66.417,317.051,59.513,325.572,59.513z"/>
		<path opacity="0.1" fill="#FFFFFF" stroke="#FFFFFF" stroke-miterlimit="10" d="M325.504,89.577
			c-8.521,0-15.429-6.909-15.429-15.429c0-0.219,0.007-0.438,0.018-0.654c0.414,8.149,7.159,14.634,15.411,14.634
			c8.301,0,15.068-6.555,15.408-14.771c0.011,0.265,0.018,0.527,0.018,0.795C340.93,82.672,334.025,89.577,325.504,89.577z"/>
	</g>
</g>
<g>
	<circle fill="#939598" stroke="#231F20" stroke-miterlimit="10" cx="375.538" cy="75.5" r="25"/>
	<path opacity="0.1" fill="none" stroke="#FFFFFF" stroke-width="2" stroke-miterlimit="10" d="M351.158,75.5
		c0-13.465,10.916-24.38,24.38-24.38s24.38,10.916,24.38,24.38"/>
	<g>
		<path opacity="0.2" fill="#231F20" stroke="#231F20" stroke-miterlimit="10" d="M360.151,75.263
			c0.339,8.217,7.11,14.775,15.411,14.775c8.28,0,15.03-6.516,15.408-14.701c0.015,0.241,0.018,0.484,0.018,0.725
			c0,8.521-2.883,19.317-15.426,19.317c-12.542,0-15.429-10.8-15.429-19.321C360.133,75.79,360.141,75.528,360.151,75.263z"/>
		<path opacity="0.2" fill="#FFFFFF" stroke="#FFFFFF" stroke-miterlimit="10" d="M375.572,59.513
			c8.521,0,15.429,6.909,15.429,15.429c0,0.219-0.007,0.438-0.018,0.654c-0.414-8.149-7.159-14.634-15.411-14.634
			c-8.302,0-15.069,6.555-15.408,14.771c-0.01-0.265-0.018-0.527-0.018-0.795C360.146,66.417,367.051,59.513,375.572,59.513z"/>
		<path opacity="0.1" fill="#FFFFFF" stroke="#FFFFFF" stroke-miterlimit="10" d="M375.504,89.577
			c-8.521,0-15.429-6.909-15.429-15.429c0-0.219,0.007-0.438,0.018-0.654c0.414,8.149,7.159,14.634,15.411,14.634
			c8.301,0,15.068-6.555,15.408-14.771c0.011,0.265,0.018,0.527,0.018,0.795C390.93,82.672,384.025,89.577,375.504,89.577z"/>
	</g>
</g>
<g>
	<circle fill="#8B5E3C" stroke="#231F20" stroke-miterlimit="10" cx="25.795" cy="175.967" r="25"/>
	<path opacity="0.1" fill="none" stroke="#FFFFFF" stroke-width="2" stroke-miterlimit="10" d="M1.415,175.967
		c0-13.465,10.916-24.38,24.38-24.38s24.38,10.915,24.38,24.38"/>
	<g>
		<path opacity="0.2" fill="#231F20" stroke="#231F20" stroke-miterlimit="10" d="M10.408,175.731
			c0.339,8.217,7.11,14.774,15.411,14.774c8.28,0,15.03-6.516,15.408-14.7c0.014,0.24,0.018,0.484,0.018,0.725
			c0,8.521-2.883,19.316-15.426,19.316c-12.542,0-15.429-10.799-15.429-19.32C10.39,176.257,10.397,175.996,10.408,175.731z"/>
		<path opacity="0.2" fill="#FFFFFF" stroke="#FFFFFF" stroke-miterlimit="10" d="M25.829,159.981
			c8.521,0,15.429,6.908,15.429,15.429c0,0.22-0.007,0.438-0.018,0.653c-0.414-8.148-7.16-14.633-15.411-14.633
			c-8.302,0-15.068,6.555-15.408,14.771c-0.01-0.266-0.018-0.527-0.018-0.795C10.403,166.885,17.308,159.981,25.829,159.981z"/>
		<path opacity="0.1" fill="#FFFFFF" stroke="#FFFFFF" stroke-miterlimit="10" d="M25.761,190.044
			c-8.521,0-15.429-6.908-15.429-15.429c0-0.219,0.007-0.438,0.018-0.654c0.414,8.149,7.159,14.634,15.411,14.634
			c8.301,0,15.068-6.556,15.408-14.771c0.011,0.265,0.018,0.526,0.018,0.796C41.187,183.139,34.282,190.044,25.761,190.044z"/>
	</g>
</g>
<g>
	<circle fill="#939598" stroke="#231F20" stroke-miterlimit="10" cx="75.795" cy="175.967" r="25"/>
	<path opacity="0.1" fill="none" stroke="#FFFFFF" stroke-width="2" stroke-miterlimit="10" d="M51.415,175.967
		c0-13.465,10.916-24.38,24.38-24.38s24.38,10.915,24.38,24.38"/>
	<g>
		<path opacity="0.2" fill="#231F20" stroke="#231F20" stroke-miterlimit="10" d="M60.408,175.731
			c0.339,8.217,7.11,14.774,15.411,14.774c8.28,0,15.03-6.516,15.408-14.7c0.014,0.24,0.018,0.484,0.018,0.725
			c0,8.521-2.883,19.316-15.426,19.316c-12.542,0-15.429-10.799-15.429-19.32C60.39,176.257,60.397,175.996,60.408,175.731z"/>
		<path opacity="0.2" fill="#FFFFFF" stroke="#FFFFFF" stroke-miterlimit="10" d="M75.829,159.981
			c8.521,0,15.429,6.908,15.429,15.429c0,0.22-0.007,0.438-0.018,0.653c-0.414-8.148-7.16-14.633-15.411-14.633
			c-8.302,0-15.068,6.555-15.408,14.771c-0.011-0.266-0.018-0.527-0.018-0.795C60.403,166.885,67.308,159.981,75.829,159.981z"/>
		<path opacity="0.1" fill="#FFFFFF" stroke="#FFFFFF" stroke-miterlimit="10" d="M75.761,190.044
			c-8.521,0-15.429-6.908-15.429-15.429c0-0.219,0.007-0.438,0.018-0.654c0.414,8.149,7.16,14.634,15.412,14.634
			c8.301,0,15.068-6.556,15.408-14.771c0.011,0.265,0.018,0.526,0.018,0.796C91.187,183.139,84.282,190.044,75.761,190.044z"/>
	</g>
</g>
<g>
	<circle fill="#6D6E71" stroke="#231F20" stroke-miterlimit="10" cx="125.795" cy="175.967" r="25"/>
	<path opacity="0.1" fill="none" stroke="#FFFFFF" stroke-width="2" stroke-miterlimit="10" d="M101.415,175.967
		c0-13.465,10.916-24.38,24.38-24.38s24.38,10.915,24.38,24.38"/>
	<g>
		<path opacity="0.2" fill="#231F20" stroke="#231F20" stroke-miterlimit="10" d="M110.408,175.731
			c0.339,8.217,7.11,14.774,15.411,14.774c8.28,0,15.03-6.516,15.408-14.7c0.014,0.24,0.018,0.484,0.018,0.725
			c0,8.521-2.883,19.316-15.426,19.316c-12.542,0-15.429-10.799-15.429-19.32C110.39,176.257,110.397,175.996,110.408,175.731z"/>
		<path opacity="0.2" fill="#FFFFFF" stroke="#FFFFFF" stroke-miterlimit="10" d="M125.829,159.981
			c8.521,0,15.429,6.908,15.429,15.429c0,0.22-0.007,0.438-0.018,0.653c-0.414-8.148-7.16-14.633-15.411-14.633
			c-8.302,0-15.068,6.555-15.408,14.771c-0.011-0.266-0.018-0.527-0.018-0.795C110.403,166.885,117.308,159.981,125.829,159.981z"/>
		<path opacity="0.1" fill="#FFFFFF" stroke="#FFFFFF" stroke-miterlimit="10" d="M125.761,190.044
			c-8.521,0-15.429-6.908-15.429-15.429c0-0.219,0.007-0.438,0.018-0.654c0.414,8.149,7.16,14.634,15.412,14.634
			c8.301,0,15.068-6.556,15.408-14.771c0.011,0.265,0.018,0.526,0.018,0.796C141.187,183.139,134.282,190.044,125.761,190.044z"/>
	</g>
</g>
<g>
	<circle fill="#E59CCF" stroke="#231F20" stroke-miterlimit="10" cx="175.795" cy="175.967" r="25"/>
	<path opacity="0.1" fill="none" stroke="#FFFFFF" stroke-width="2" stroke-miterlimit="10" d="M151.415,175.967
		c0-13.465,10.916-24.38,24.38-24.38s24.38,10.915,24.38,24.38"/>
	<g>
		<path opacity="0.2" fill="#231F20" stroke="#231F20" stroke-miterlimit="10" d="M160.408,175.731
			c0.339,8.217,7.11,14.774,15.411,14.774c8.28,0,15.03-6.516,15.408-14.7c0.014,0.24,0.018,0.484,0.018,0.725
			c0,8.521-2.883,19.316-15.426,19.316c-12.542,0-15.429-10.799-15.429-19.32C160.39,176.257,160.397,175.996,160.408,175.731z"/>
		<path opacity="0.2" fill="#FFFFFF" stroke="#FFFFFF" stroke-miterlimit="10" d="M175.829,159.981
			c8.521,0,15.429,6.908,15.429,15.429c0,0.22-0.007,0.438-0.018,0.653c-0.414-8.148-7.16-14.633-15.411-14.633
			c-8.302,0-15.068,6.555-15.408,14.771c-0.011-0.266-0.018-0.527-0.018-0.795C160.403,166.885,167.308,159.981,175.829,159.981z"/>
		<path opacity="0.1" fill="#FFFFFF" stroke="#FFFFFF" stroke-miterlimit="10" d="M175.761,190.044
			c-8.521,0-15.429-6.908-15.429-15.429c0-0.219,0.007-0.438,0.018-0.654c0.414,8.149,7.16,14.634,15.412,14.634
			c8.301,0,15.068-6.556,15.408-14.771c0.011,0.265,0.018,0.526,0.018,0.796C191.187,183.139,184.282,190.044,175.761,190.044z"/>
	</g>
</g>
<g>
	<circle fill="#009444" stroke="#231F20" stroke-miterlimit="10" cx="377.14" cy="176.354" r="25"/>
	<path opacity="0.1" fill="none" stroke="#FFFFFF" stroke-width="2" stroke-miterlimit="10" d="M352.76,176.354
		c0-13.465,10.915-24.381,24.38-24.381s24.38,10.916,24.38,24.381"/>
	<g>
		<path opacity="0.2" fill="#231F20" stroke="#231F20" stroke-miterlimit="10" d="M361.753,176.116
			c0.339,8.217,7.11,14.775,15.411,14.775c8.281,0,15.03-6.516,15.408-14.701c0.014,0.241,0.018,0.484,0.018,0.726
			c0,8.521-2.883,19.317-15.426,19.317c-12.542,0-15.429-10.801-15.429-19.32C361.736,176.643,361.743,176.381,361.753,176.116z"/>
		<path opacity="0.2" fill="#FFFFFF" stroke="#FFFFFF" stroke-miterlimit="10" d="M377.174,160.366
			c8.521,0,15.429,6.909,15.429,15.43c0,0.219-0.007,0.438-0.018,0.654c-0.414-8.149-7.16-14.634-15.412-14.634
			c-8.301,0-15.068,6.556-15.408,14.771c-0.011-0.265-0.018-0.526-0.018-0.796C361.749,167.272,368.653,160.366,377.174,160.366z"/>
		<path opacity="0.1" fill="#FFFFFF" stroke="#FFFFFF" stroke-miterlimit="10" d="M377.107,190.43
			c-8.521,0-15.429-6.908-15.429-15.429c0-0.22,0.007-0.438,0.018-0.654c0.414,8.149,7.16,14.634,15.412,14.634
			c8.301,0,15.068-6.555,15.408-14.771c0.011,0.266,0.018,0.527,0.018,0.795C392.532,183.526,385.627,190.43,377.107,190.43z"/>
	</g>
</g>
<g>
	<circle fill="#F7941D" stroke="#231F20" stroke-miterlimit="10" cx="427.14" cy="176.354" r="25"/>
	<path opacity="0.1" fill="none" stroke="#FFFFFF" stroke-width="2" stroke-miterlimit="10" d="M402.76,176.354
		c0-13.465,10.915-24.381,24.38-24.381s24.38,10.916,24.38,24.381"/>
	<g>
		<path opacity="0.2" fill="#231F20" stroke="#231F20" stroke-miterlimit="10" d="M411.753,176.116
			c0.339,8.217,7.11,14.775,15.411,14.775c8.281,0,15.03-6.516,15.408-14.701c0.014,0.241,0.018,0.484,0.018,0.726
			c0,8.521-2.883,19.317-15.426,19.317c-12.542,0-15.429-10.801-15.429-19.32C411.736,176.643,411.743,176.381,411.753,176.116z"/>
		<path opacity="0.2" fill="#FFFFFF" stroke="#FFFFFF" stroke-miterlimit="10" d="M427.174,160.366
			c8.521,0,15.429,6.909,15.429,15.43c0,0.219-0.007,0.438-0.018,0.654c-0.414-8.149-7.16-14.634-15.412-14.634
			c-8.301,0-15.068,6.556-15.408,14.771c-0.011-0.265-0.018-0.526-0.018-0.796C411.749,167.272,418.653,160.366,427.174,160.366z"/>
		<path opacity="0.1" fill="#FFFFFF" stroke="#FFFFFF" stroke-miterlimit="10" d="M427.107,190.43
			c-8.521,0-15.429-6.908-15.429-15.429c0-0.22,0.007-0.438,0.018-0.654c0.414,8.149,7.16,14.634,15.412,14.634
			c8.301,0,15.068-6.555,15.408-14.771c0.011,0.266,0.018,0.527,0.018,0.795C442.532,183.526,435.627,190.43,427.107,190.43z"/>
	</g>
</g>
<g>
	<circle fill="#39B54A" stroke="#231F20" stroke-miterlimit="10" cx="477.14" cy="176.354" r="25"/>
	<path opacity="0.1" fill="none" stroke="#FFFFFF" stroke-width="2" stroke-miterlimit="10" d="M452.76,176.354
		c0-13.465,10.915-24.381,24.379-24.381s24.381,10.916,24.381,24.381"/>
	<g>
		<path opacity="0.2" fill="#231F20" stroke="#231F20" stroke-miterlimit="10" d="M461.753,176.116
			c0.34,8.217,7.111,14.775,15.412,14.775c8.279,0,15.029-6.516,15.408-14.701c0.014,0.241,0.018,0.484,0.018,0.726
			c0,8.521-2.885,19.317-15.426,19.317c-12.543,0-15.43-10.801-15.43-19.32C461.735,176.643,461.743,176.381,461.753,176.116z"/>
		<path opacity="0.2" fill="#FFFFFF" stroke="#FFFFFF" stroke-miterlimit="10" d="M477.175,160.366
			c8.52,0,15.428,6.909,15.428,15.43c0,0.219-0.006,0.438-0.018,0.654c-0.414-8.149-7.158-14.634-15.41-14.634
			c-8.303,0-15.07,6.556-15.408,14.771c-0.012-0.265-0.018-0.526-0.018-0.796C461.749,167.272,468.653,160.366,477.175,160.366z"/>
		<path opacity="0.1" fill="#FFFFFF" stroke="#FFFFFF" stroke-miterlimit="10" d="M477.106,190.43c-8.52,0-15.43-6.908-15.43-15.429
			c0-0.22,0.008-0.438,0.018-0.654c0.414,8.149,7.16,14.634,15.412,14.634c8.301,0,15.068-6.555,15.408-14.771
			c0.01,0.266,0.018,0.527,0.018,0.795C492.532,183.526,485.628,190.43,477.106,190.43z"/>
	</g>
</g>
<g>
	<circle fill="#D3BE00" stroke="#231F20" stroke-miterlimit="10" cx="527.14" cy="176.354" r="25"/>
	<path opacity="0.1" fill="none" stroke="#FFFFFF" stroke-width="2" stroke-miterlimit="10" d="M502.761,176.354
		c0-13.465,10.914-24.381,24.379-24.381s24.381,10.916,24.381,24.381"/>
	<g>
		<path opacity="0.2" fill="#231F20" stroke="#231F20" stroke-miterlimit="10" d="M511.753,176.116
			c0.34,8.217,7.111,14.775,15.412,14.775c8.279,0,15.029-6.516,15.408-14.701c0.014,0.241,0.018,0.484,0.018,0.726
			c0,8.521-2.885,19.317-15.426,19.317c-12.543,0-15.43-10.801-15.43-19.32C511.735,176.643,511.743,176.381,511.753,176.116z"/>
		<path opacity="0.2" fill="#FFFFFF" stroke="#FFFFFF" stroke-miterlimit="10" d="M527.175,160.366
			c8.52,0,15.428,6.909,15.428,15.43c0,0.219-0.006,0.438-0.018,0.654c-0.414-8.149-7.16-14.634-15.41-14.634
			c-8.303,0-15.07,6.556-15.408,14.771c-0.012-0.265-0.018-0.526-0.018-0.796C511.749,167.272,518.653,160.366,527.175,160.366z"/>
		<path opacity="0.1" fill="#FFFFFF" stroke="#FFFFFF" stroke-miterlimit="10" d="M527.106,190.43c-8.52,0-15.43-6.908-15.43-15.429
			c0-0.22,0.008-0.438,0.018-0.654c0.414,8.149,7.16,14.634,15.412,14.634c8.301,0,15.068-6.555,15.408-14.771
			c0.01,0.266,0.018,0.527,0.018,0.795C542.532,183.526,535.628,190.43,527.106,190.43z"/>
	</g>
</g>
<g>
	<circle fill="#D3BE00" stroke="#231F20" stroke-miterlimit="10" cx="225.795" cy="175.967" r="25"/>
	<path opacity="0.1" fill="none" stroke="#FFFFFF" stroke-width="2" stroke-miterlimit="10" d="M201.415,175.967
		c0-13.465,10.916-24.38,24.38-24.38s24.38,10.915,24.38,24.38"/>
	<g>
		<path opacity="0.2" fill="#231F20" stroke="#231F20" stroke-miterlimit="10" d="M210.408,175.731
			c0.339,8.217,7.11,14.774,15.411,14.774c8.28,0,15.03-6.516,15.408-14.7c0.014,0.24,0.018,0.484,0.018,0.725
			c0,8.521-2.883,19.316-15.426,19.316c-12.542,0-15.429-10.799-15.429-19.32C210.39,176.257,210.397,175.996,210.408,175.731z"/>
		<path opacity="0.2" fill="#FFFFFF" stroke="#FFFFFF" stroke-miterlimit="10" d="M225.829,159.981
			c8.521,0,15.429,6.908,15.429,15.429c0,0.22-0.007,0.438-0.018,0.653c-0.414-8.148-7.16-14.633-15.411-14.633
			c-8.302,0-15.068,6.555-15.408,14.771c-0.011-0.266-0.018-0.527-0.018-0.795C210.403,166.885,217.308,159.981,225.829,159.981z"/>
		<path opacity="0.1" fill="#FFFFFF" stroke="#FFFFFF" stroke-miterlimit="10" d="M225.761,190.044
			c-8.521,0-15.429-6.908-15.429-15.429c0-0.219,0.007-0.438,0.018-0.654c0.414,8.149,7.16,14.634,15.412,14.634
			c8.301,0,15.068-6.556,15.408-14.771c0.011,0.265,0.018,0.526,0.018,0.796C241.187,183.139,234.282,190.044,225.761,190.044z"/>
	</g>
</g>
<g>
	<circle fill="#939598" stroke="#231F20" stroke-miterlimit="10" cx="275.795" cy="175.967" r="25"/>
	<path opacity="0.1" fill="none" stroke="#FFFFFF" stroke-width="2" stroke-miterlimit="10" d="M251.415,175.967
		c0-13.465,10.916-24.38,24.38-24.38s24.38,10.915,24.38,24.38"/>
	<g>
		<path opacity="0.2" fill="#231F20" stroke="#231F20" stroke-miterlimit="10" d="M260.408,175.731
			c0.339,8.217,7.11,14.774,15.411,14.774c8.28,0,15.03-6.516,15.408-14.7c0.014,0.24,0.018,0.484,0.018,0.725
			c0,8.521-2.883,19.316-15.426,19.316c-12.542,0-15.429-10.799-15.429-19.32C260.39,176.257,260.397,175.996,260.408,175.731z"/>
		<path opacity="0.2" fill="#FFFFFF" stroke="#FFFFFF" stroke-miterlimit="10" d="M275.829,159.981
			c8.521,0,15.429,6.908,15.429,15.429c0,0.22-0.007,0.438-0.018,0.653c-0.414-8.148-7.159-14.633-15.411-14.633
			c-8.302,0-15.068,6.555-15.408,14.771c-0.011-0.266-0.018-0.527-0.018-0.795C260.403,166.885,267.308,159.981,275.829,159.981z"/>
		<path opacity="0.1" fill="#FFFFFF" stroke="#FFFFFF" stroke-miterlimit="10" d="M275.761,190.044
			c-8.521,0-15.429-6.908-15.429-15.429c0-0.219,0.007-0.438,0.018-0.654c0.414,8.149,7.16,14.634,15.412,14.634
			c8.301,0,15.068-6.556,15.408-14.771c0.011,0.265,0.018,0.526,0.018,0.796C291.187,183.139,284.282,190.044,275.761,190.044z"/>
	</g>
</g>
<g>
	<circle fill="#8B5E3C" stroke="#231F20" stroke-miterlimit="10" cx="325.795" cy="175.967" r="25"/>
	<path opacity="0.1" fill="none" stroke="#FFFFFF" stroke-width="2" stroke-miterlimit="10" d="M301.415,175.967
		c0-13.465,10.916-24.38,24.38-24.38s24.38,10.915,24.38,24.38"/>
	<g>
		<path opacity="0.2" fill="#231F20" stroke="#231F20" stroke-miterlimit="10" d="M310.408,175.731
			c0.339,8.217,7.11,14.774,15.411,14.774c8.28,0,15.03-6.516,15.408-14.7c0.014,0.24,0.018,0.484,0.018,0.725
			c0,8.521-2.883,19.316-15.426,19.316c-12.542,0-15.429-10.799-15.429-19.32C310.39,176.257,310.397,175.996,310.408,175.731z"/>
		<path opacity="0.2" fill="#FFFFFF" stroke="#FFFFFF" stroke-miterlimit="10" d="M325.829,159.981
			c8.521,0,15.429,6.908,15.429,15.429c0,0.22-0.007,0.438-0.018,0.653c-0.414-8.148-7.16-14.633-15.411-14.633
			c-8.302,0-15.068,6.555-15.408,14.771c-0.011-0.266-0.018-0.527-0.018-0.795C310.403,166.885,317.308,159.981,325.829,159.981z"/>
		<path opacity="0.1" fill="#FFFFFF" stroke="#FFFFFF" stroke-miterlimit="10" d="M325.761,190.044
			c-8.521,0-15.429-6.908-15.429-15.429c0-0.219,0.007-0.438,0.018-0.654c0.414,8.149,7.16,14.634,15.412,14.634
			c8.302,0,15.068-6.556,15.408-14.771c0.011,0.265,0.018,0.526,0.018,0.796C341.187,183.139,334.282,190.044,325.761,190.044z"/>
	</g>
</g>
<g>
	<circle fill="#1B75BC" stroke="#231F20" stroke-miterlimit="10" cx="827.308" cy="175.967" r="25"/>
	<path opacity="0.1" fill="none" stroke="#FFFFFF" stroke-width="2" stroke-miterlimit="10" d="M802.929,175.967
		c0-13.465,10.914-24.38,24.379-24.38s24.381,10.915,24.381,24.38"/>
	<g>
		<path opacity="0.2" fill="#231F20" stroke="#231F20" stroke-miterlimit="10" d="M811.921,175.731
			c0.34,8.217,7.111,14.774,15.412,14.774c8.279,0,15.029-6.516,15.408-14.7c0.014,0.24,0.018,0.484,0.018,0.725
			c0,8.521-2.885,19.316-15.426,19.316c-12.543,0-15.43-10.799-15.43-19.32C811.903,176.257,811.911,175.996,811.921,175.731z"/>
		<path opacity="0.2" fill="#FFFFFF" stroke="#FFFFFF" stroke-miterlimit="10" d="M827.341,159.981
			c8.521,0,15.43,6.908,15.43,15.429c0,0.22-0.006,0.438-0.018,0.653c-0.414-8.148-7.16-14.633-15.412-14.633
			c-8.301,0-15.068,6.555-15.406,14.771c-0.012-0.266-0.018-0.527-0.018-0.795C811.917,166.885,818.821,159.981,827.341,159.981z"/>
		<path opacity="0.1" fill="#FFFFFF" stroke="#FFFFFF" stroke-miterlimit="10" d="M827.274,190.044
			c-8.521,0-15.43-6.908-15.43-15.429c0-0.219,0.008-0.438,0.018-0.654c0.414,8.149,7.16,14.634,15.412,14.634
			c8.301,0,15.068-6.556,15.408-14.771c0.01,0.265,0.018,0.526,0.018,0.796C842.7,183.139,835.796,190.044,827.274,190.044z"/>
	</g>
</g>
<g>
	<circle fill="#8B5E3C" stroke="#231F20" stroke-miterlimit="10" cx="877.308" cy="175.967" r="25"/>
	<path opacity="0.1" fill="none" stroke="#FFFFFF" stroke-width="2" stroke-miterlimit="10" d="M852.929,175.967
		c0-13.465,10.914-24.38,24.379-24.38s24.381,10.915,24.381,24.38"/>
	<g>
		<path opacity="0.2" fill="#231F20" stroke="#231F20" stroke-miterlimit="10" d="M861.921,175.731
			c0.34,8.217,7.111,14.774,15.412,14.774c8.279,0,15.029-6.516,15.408-14.7c0.014,0.24,0.018,0.484,0.018,0.725
			c0,8.521-2.885,19.316-15.426,19.316c-12.543,0-15.43-10.799-15.43-19.32C861.903,176.257,861.911,175.996,861.921,175.731z"/>
		<path opacity="0.2" fill="#FFFFFF" stroke="#FFFFFF" stroke-miterlimit="10" d="M877.341,159.981
			c8.521,0,15.43,6.908,15.43,15.429c0,0.22-0.006,0.438-0.018,0.653c-0.414-8.148-7.16-14.633-15.412-14.633
			c-8.301,0-15.068,6.555-15.406,14.771c-0.012-0.266-0.018-0.527-0.018-0.795C861.917,166.885,868.821,159.981,877.341,159.981z"/>
		<path opacity="0.1" fill="#FFFFFF" stroke="#FFFFFF" stroke-miterlimit="10" d="M877.274,190.044
			c-8.521,0-15.43-6.908-15.43-15.429c0-0.219,0.008-0.438,0.018-0.654c0.414,8.149,7.16,14.634,15.412,14.634
			c8.301,0,15.068-6.556,15.408-14.771c0.01,0.265,0.018,0.526,0.018,0.796C892.7,183.139,885.796,190.044,877.274,190.044z"/>
	</g>
</g>
<g>
	<circle fill="#8B5E3C" stroke="#231F20" stroke-miterlimit="10" cx="727.069" cy="175.967" r="25"/>
	<path opacity="0.1" fill="none" stroke="#FFFFFF" stroke-width="2" stroke-miterlimit="10" d="M702.688,175.967
		c0-13.465,10.916-24.38,24.381-24.38s24.381,10.915,24.381,24.38"/>
	<g>
		<path opacity="0.2" fill="#231F20" stroke="#231F20" stroke-miterlimit="10" d="M711.683,175.731
			c0.34,8.217,7.109,14.774,15.412,14.774c8.279,0,15.029-6.516,15.408-14.7c0.014,0.24,0.018,0.484,0.018,0.725
			c0,8.521-2.885,19.316-15.426,19.316c-12.543,0-15.43-10.799-15.43-19.32C711.665,176.257,711.673,175.996,711.683,175.731z"/>
		<path opacity="0.2" fill="#FFFFFF" stroke="#FFFFFF" stroke-miterlimit="10" d="M727.103,159.981
			c8.521,0,15.43,6.908,15.43,15.429c0,0.22-0.008,0.438-0.018,0.653c-0.414-8.148-7.16-14.633-15.412-14.633
			c-8.301,0-15.068,6.555-15.408,14.771c-0.01-0.266-0.018-0.527-0.018-0.795C711.677,166.885,718.583,159.981,727.103,159.981z"/>
		<path opacity="0.1" fill="#FFFFFF" stroke="#FFFFFF" stroke-miterlimit="10" d="M727.036,190.044
			c-8.521,0-15.43-6.908-15.43-15.429c0-0.219,0.008-0.438,0.018-0.654c0.414,8.149,7.16,14.634,15.412,14.634
			c8.301,0,15.068-6.556,15.408-14.771c0.01,0.265,0.018,0.526,0.018,0.796C742.462,183.139,735.556,190.044,727.036,190.044z"/>
	</g>
</g>
<g>
	<circle fill="#939598" stroke="#231F20" stroke-miterlimit="10" cx="777.069" cy="175.967" r="25"/>
	<path opacity="0.1" fill="none" stroke="#FFFFFF" stroke-width="2" stroke-miterlimit="10" d="M752.688,175.967
		c0-13.465,10.916-24.38,24.381-24.38s24.381,10.915,24.381,24.38"/>
	<g>
		<path opacity="0.2" fill="#231F20" stroke="#231F20" stroke-miterlimit="10" d="M761.683,175.731
			c0.34,8.217,7.109,14.774,15.412,14.774c8.279,0,15.029-6.516,15.408-14.7c0.014,0.24,0.018,0.484,0.018,0.725
			c0,8.521-2.885,19.316-15.426,19.316c-12.543,0-15.43-10.799-15.43-19.32C761.665,176.257,761.673,175.996,761.683,175.731z"/>
		<path opacity="0.2" fill="#FFFFFF" stroke="#FFFFFF" stroke-miterlimit="10" d="M777.103,159.981
			c8.521,0,15.43,6.908,15.43,15.429c0,0.22-0.008,0.438-0.018,0.653c-0.414-8.148-7.16-14.633-15.412-14.633
			c-8.301,0-15.068,6.555-15.408,14.771c-0.01-0.266-0.018-0.527-0.018-0.795C761.677,166.885,768.583,159.981,777.103,159.981z"/>
		<path opacity="0.1" fill="#FFFFFF" stroke="#FFFFFF" stroke-miterlimit="10" d="M777.036,190.044
			c-8.521,0-15.43-6.908-15.43-15.429c0-0.219,0.008-0.438,0.018-0.654c0.414,8.149,7.16,14.634,15.412,14.634
			c8.301,0,15.068-6.556,15.408-14.771c0.01,0.265,0.018,0.526,0.018,0.796C792.462,183.139,785.556,190.044,777.036,190.044z"/>
	</g>
</g>
<g>
	<circle fill="#E59CCF" stroke="#231F20" stroke-miterlimit="10" cx="576.901" cy="175.973" r="25"/>
	<path opacity="0.1" fill="none" stroke="#FFFFFF" stroke-width="2" stroke-miterlimit="10" d="M552.521,175.973
		c0-13.465,10.916-24.381,24.381-24.381s24.381,10.916,24.381,24.381"/>
	<g>
		<path opacity="0.2" fill="#231F20" stroke="#231F20" stroke-miterlimit="10" d="M561.515,175.735
			c0.34,8.217,7.109,14.775,15.412,14.775c8.279,0,15.029-6.516,15.408-14.701c0.014,0.24,0.018,0.484,0.018,0.725
			c0,8.521-2.885,19.318-15.426,19.318c-12.543,0-15.43-10.801-15.43-19.321C561.497,176.262,561.505,176,561.515,175.735z"/>
		<path opacity="0.2" fill="#FFFFFF" stroke="#FFFFFF" stroke-miterlimit="10" d="M576.935,159.985c8.521,0,15.43,6.908,15.43,15.43
			c0,0.219-0.008,0.438-0.018,0.654c-0.414-8.15-7.16-14.634-15.412-14.634c-8.301,0-15.068,6.555-15.406,14.771
			c-0.012-0.265-0.02-0.526-0.02-0.796C561.509,166.89,568.415,159.985,576.935,159.985z"/>
		<path opacity="0.1" fill="#FFFFFF" stroke="#FFFFFF" stroke-miterlimit="10" d="M576.868,190.049
			c-8.521,0-15.43-6.908-15.43-15.43c0-0.219,0.008-0.438,0.018-0.653c0.414,8.149,7.16,14.634,15.412,14.634
			c8.301,0,15.068-6.555,15.408-14.771c0.01,0.265,0.018,0.526,0.018,0.795C592.294,183.145,585.39,190.049,576.868,190.049z"/>
	</g>
</g>
<g>
	<circle fill="#8B5E3C" stroke="#231F20" stroke-miterlimit="10" cx="626.901" cy="175.973" r="25"/>
	<path opacity="0.1" fill="none" stroke="#FFFFFF" stroke-width="2" stroke-miterlimit="10" d="M602.521,175.973
		c0-13.465,10.916-24.381,24.381-24.381s24.381,10.916,24.381,24.381"/>
	<g>
		<path opacity="0.2" fill="#231F20" stroke="#231F20" stroke-miterlimit="10" d="M611.515,175.735
			c0.34,8.217,7.109,14.775,15.412,14.775c8.279,0,15.029-6.516,15.408-14.701c0.014,0.24,0.018,0.484,0.018,0.725
			c0,8.521-2.885,19.318-15.426,19.318c-12.543,0-15.43-10.801-15.43-19.321C611.497,176.262,611.505,176,611.515,175.735z"/>
		<path opacity="0.2" fill="#FFFFFF" stroke="#FFFFFF" stroke-miterlimit="10" d="M626.935,159.985c8.521,0,15.43,6.908,15.43,15.43
			c0,0.219-0.008,0.438-0.018,0.654c-0.414-8.15-7.16-14.634-15.412-14.634c-8.301,0-15.068,6.555-15.406,14.771
			c-0.012-0.265-0.02-0.526-0.02-0.796C611.509,166.89,618.415,159.985,626.935,159.985z"/>
		<path opacity="0.1" fill="#FFFFFF" stroke="#FFFFFF" stroke-miterlimit="10" d="M626.868,190.049
			c-8.521,0-15.43-6.908-15.43-15.43c0-0.219,0.008-0.438,0.018-0.653c0.414,8.149,7.16,14.634,15.412,14.634
			c8.301,0,15.068-6.555,15.408-14.771c0.01,0.265,0.018,0.526,0.018,0.795C642.294,183.145,635.39,190.049,626.868,190.049z"/>
	</g>
</g>
<g>
	<circle fill="#939598" stroke="#231F20" stroke-miterlimit="10" cx="676.901" cy="175.973" r="25"/>
	<path opacity="0.1" fill="none" stroke="#FFFFFF" stroke-width="2" stroke-miterlimit="10" d="M652.521,175.973
		c0-13.465,10.916-24.381,24.381-24.381s24.381,10.916,24.381,24.381"/>
	<g>
		<path opacity="0.2" fill="#231F20" stroke="#231F20" stroke-miterlimit="10" d="M661.515,175.735
			c0.34,8.217,7.109,14.775,15.412,14.775c8.279,0,15.029-6.516,15.408-14.701c0.014,0.24,0.018,0.484,0.018,0.725
			c0,8.521-2.885,19.318-15.426,19.318c-12.543,0-15.43-10.801-15.43-19.321C661.497,176.262,661.505,176,661.515,175.735z"/>
		<path opacity="0.2" fill="#FFFFFF" stroke="#FFFFFF" stroke-miterlimit="10" d="M676.935,159.985c8.521,0,15.43,6.908,15.43,15.43
			c0,0.219-0.008,0.438-0.018,0.654c-0.414-8.15-7.16-14.634-15.412-14.634c-8.301,0-15.068,6.555-15.406,14.771
			c-0.012-0.265-0.02-0.526-0.02-0.796C661.509,166.89,668.415,159.985,676.935,159.985z"/>
		<path opacity="0.1" fill="#FFFFFF" stroke="#FFFFFF" stroke-miterlimit="10" d="M676.868,190.049
			c-8.521,0-15.43-6.908-15.43-15.43c0-0.219,0.008-0.438,0.018-0.653c0.414,8.149,7.16,14.634,15.412,14.634
			c8.301,0,15.068-6.555,15.408-14.771c0.01,0.265,0.018,0.526,0.018,0.795C692.294,183.145,685.39,190.049,676.868,190.049z"/>
	</g>
</g>
</svg>
